<svg version="1.2" baseProfile="tiny-ps" xmlns="http://www.w3.org/2000/svg" width="104" height="91"><defs><clipPath clipPathUnits="userSpaceOnUse" id="cp1"><path d="M0 0h104v91H0z"/></clipPath></defs><style/><g id="Page 1" clip-path="url(#cp1)"><path id="Path 1" fill-rule="evenodd" d="M61.99-.04c1.41 0 2.49.43 3.46 1.4.86.86 1.29 1.94 1.29 3.35v8.64h14.04c1.41 0 2.7.65 3.78 1.94l18.8 25.17c.64.75.97 1.62.97 2.8v31.11c0 2.59-2.16 4.75-4.75 4.75h-7.35c-.43 3.02-1.73 5.62-3.89 7.78-2.7 2.7-6.04 4.1-9.82 4.1-3.78 0-7.13-1.4-9.83-4.1-2.05-2.06-3.46-4.65-4-7.78H51.84c-.43 3.02-1.73 5.62-3.89 7.78-2.7 2.7-6.05 4.1-9.83 4.1-3.78 0-7.12-1.4-9.82-4.1-2.16-2.16-3.46-4.76-3.89-7.78h-7.35c-2.7 0-4.75-2.16-4.75-4.75V57.63H4.75C2.16 57.63 0 55.47 0 52.88V4.71C0 2.12 2.16-.04 4.75-.04h57.24zm-.32 5.07H5.08v47.41h56.59V5.03zm5.07 13.5v34.35c0 1.4-.43 2.48-1.29 3.34-.97.98-2.05 1.41-3.46 1.41h-44.6v16.31h7.13c.64-2.7 1.94-5.08 3.99-6.92 2.7-2.48 5.94-3.78 9.72-3.78 3.67 0 6.81 1.3 9.51 3.78 2.05 1.84 3.34 4.22 3.99 6.92h13.18c.65-2.7 1.94-5.08 3.99-6.92 5.51-5.07 13.72-5.07 19.23 0 2.05 1.95 3.35 4.22 3.89 6.92h7.23v-27H81.32c-2.7 0-4.96-2.27-4.96-4.97V18.53h-9.62zm31.22 23.22L81.54 19.83v21.92h16.42zM44.28 83.22c3.56-3.45 3.46-9.07-.11-12.52-3.35-3.14-8.75-3.14-12.09 0-3.57 3.45-3.68 9.07-.11 12.52 3.35 3.46 8.96 3.46 12.31 0zM72.47 70.7c-3.57 3.45-3.67 9.07-.22 12.52 3.46 3.46 9.07 3.46 12.42 0a8.751 8.751 0 00-.11-12.52c-3.34-3.14-8.74-3.14-12.09 0z" fill="#2c2e35"/></g></svg>