<?xml version="1.0" encoding="utf-8"?>
<!-- Generator: Adobe Illustrator 16.0.0, SVG Export Plug-In . SVG Version: 6.00 Build 0)  -->
<!DOCTYPE svg PUBLIC "-//W3C//DTD SVG 1.1//EN" "http://www.w3.org/Graphics/SVG/1.1/DTD/svg11.dtd">
<svg version="1.1" id="Capa_1" xmlns="http://www.w3.org/2000/svg" xmlns:xlink="http://www.w3.org/1999/xlink" x="0px" y="0px"
	 width="55.791px" height="48.687px" viewBox="271.968 327.513 55.791 48.687"
	 enable-background="new 271.968 327.513 55.791 48.687" xml:space="preserve">
<g>
	<path d="M305.118,327.513c0.752,0,1.328,0.231,1.85,0.751c0.461,0.462,0.691,1.04,0.691,1.79v4.621h7.51
		c0.75,0,1.443,0.347,2.02,1.04l10.051,13.457c0.346,0.404,0.52,0.866,0.52,1.501v16.633c0,1.386-1.156,2.541-2.541,2.541h-3.928
		c-0.23,1.617-0.924,3.003-2.08,4.158c-1.443,1.444-3.234,2.195-5.254,2.195c-2.021,0-3.812-0.75-5.256-2.195
		c-1.098-1.097-1.85-2.483-2.137-4.158h-6.873c-0.232,1.617-0.924,3.003-2.08,4.158c-1.443,1.444-3.234,2.195-5.256,2.195
		s-3.812-0.75-5.256-2.195c-1.154-1.155-1.848-2.541-2.078-4.158h-3.928c-1.444,0-2.542-1.155-2.542-2.541v-8.952h-4.042
		c-1.386,0-2.542-1.155-2.542-2.541v-25.759c0-1.386,1.155-2.541,2.542-2.541H305.118z M304.947,330.228h-30.264v25.354h30.264
		V330.228z M307.659,337.447v18.366c0,0.751-0.23,1.328-0.691,1.791c-0.521,0.52-1.098,0.75-1.85,0.75h-23.852v8.721h3.812
		c0.348-1.444,1.04-2.714,2.137-3.696c1.444-1.329,3.178-2.021,5.199-2.021c1.963,0,3.638,0.693,5.082,2.021
		c1.097,0.982,1.791,2.252,2.136,3.696h7.047c0.346-1.444,1.039-2.714,2.137-3.696c2.945-2.714,7.334-2.714,10.279,0
		c1.098,1.04,1.791,2.252,2.08,3.696h3.869v-14.439h-9.588c-1.443,0-2.656-1.212-2.656-2.656v-12.533H307.659z M295.647,372.042
		c1.906-1.848,1.849-4.852-0.058-6.7c-1.791-1.675-4.678-1.675-6.469,0c-1.906,1.848-1.963,4.852-0.058,6.7
		C290.853,373.89,293.857,373.89,295.647,372.042z M310.722,365.342c-1.906,1.848-1.965,4.852-0.117,6.7
		c1.85,1.848,4.852,1.848,6.643,0c1.848-1.848,1.848-4.852-0.059-6.7C315.4,363.667,312.511,363.667,310.722,365.342z
		 M324.351,349.864l-8.779-11.724v11.724H324.351z"/>
</g>
</svg>
