<?xml version="1.0" encoding="utf-8"?>
<!-- Generator: Adobe Illustrator 24.3.0, SVG Export Plug-In . SVG Version: 6.00 Build 0)  -->
<svg version="1.1" id="Слой_1" xmlns="http://www.w3.org/2000/svg" xmlns:xlink="http://www.w3.org/1999/xlink" x="0px" y="0px"
	 viewBox="0 0 52 53" style="enable-background:new 0 0 52 53;" xml:space="preserve">
<g>
	<path d="M11.89,3.1h28.35c2.81,0,5.22,0.98,7.22,2.95c2,2,3,4.41,3,7.22v17.32c0,2.81-1,5.22-3,7.22c-2,2-4.41,3-7.22,3h-16
		l-10.4,9.64c-0.85,0.73-1.79,0.9-2.83,0.52c-1.08-0.46-1.62-1.27-1.62-2.43v-8.08c-2.23-0.54-4.07-1.73-5.52-3.58
		c-1.44-1.85-2.17-3.95-2.17-6.29V13.26c0-2.81,1-5.22,3-7.22C6.69,4.08,9.08,3.1,11.89,3.1z M40.25,5.81H11.89
		c-2,0-3.73,0.73-5.2,2.19C5.23,9.47,4.5,11.22,4.5,13.26v17.32c0,2.23,0.69,4.01,2.08,5.34c1.39,1.33,3.25,2.13,5.6,2.4v9.99
		l11.03-10.28h17.04c2.04,0,3.79-0.73,5.26-2.19c1.46-1.46,2.19-3.21,2.19-5.26V13.26c0-2.04-0.73-3.79-2.19-5.26
		C44.04,6.55,42.29,5.81,40.25,5.81z M38.63,15.28H13.51c-0.5,0-0.75-0.25-0.75-0.75v-1.21c0-0.5,0.25-0.75,0.75-0.75h25.12
		c0.5,0,0.75,0.25,0.75,0.75v1.21C39.38,15.03,39.13,15.28,38.63,15.28z M38.63,23.77H13.51c-0.5,0-0.75-0.25-0.75-0.75v-1.27
		c0-0.5,0.25-0.75,0.75-0.75h25.12c0.5,0,0.75,0.25,0.75,0.75v1.27C39.38,23.52,39.13,23.77,38.63,23.77z M30.08,32.15H13.51
		c-0.5,0-0.75-0.25-0.75-0.75v-1.21c0-0.5,0.25-0.75,0.75-0.75h16.57c0.5,0,0.75,0.25,0.75,0.75v1.21
		C30.83,31.9,30.58,32.15,30.08,32.15z"/>
</g>
</svg>
