<?xml version="1.0" encoding="utf-8"?>
<!-- Generator: Adobe Illustrator 16.0.0, SVG Export Plug-In . SVG Version: 6.00 Build 0)  -->
<!DOCTYPE svg PUBLIC "-//W3C//DTD SVG 1.1//EN" "http://www.w3.org/Graphics/SVG/1.1/DTD/svg11.dtd">
<svg version="1.1" id="Capa_1" xmlns="http://www.w3.org/2000/svg" xmlns:xlink="http://www.w3.org/1999/xlink" x="0px" y="0px"
	 width="51.344px" height="51.344px" viewBox="271.968 327.513 51.344 51.344"
	 enable-background="new 271.968 327.513 51.344 51.344" xml:space="preserve">
<g>
	<path d="M303.501,333.924c0.982,0.289,2.195,0.75,3.582,1.444l3.639-2.368c1.039-0.635,2.021-0.578,3.002,0.173
		c1.444,1.155,2.773,2.483,3.928,3.927c0.751,0.982,0.809,1.964,0.115,2.946l-2.367,3.696c0.52,0.866,0.981,2.079,1.502,3.523
		l4.273,0.924c1.213,0.289,1.848,1.04,1.963,2.252c0.231,1.848,0.231,3.696,0,5.487c-0.057,1.097-0.865,2.021-1.963,2.252
		l-4.273,0.924c-0.463,1.329-0.982,2.542-1.502,3.523l2.367,3.696c0.693,0.981,0.636,1.963-0.115,2.945
		c-1.154,1.444-2.483,2.772-3.928,3.927c-0.981,0.751-1.963,0.809-3.002,0.116l-3.639-2.368c-1.04,0.578-2.253,1.097-3.582,1.501
		l-0.865,4.274c-0.231,1.098-1.155,1.906-2.253,1.964c-1.849,0.231-3.696,0.231-5.487,0c-1.212-0.116-1.963-0.751-2.252-1.964
		l-0.924-4.274c-1.444-0.52-2.657-0.981-3.523-1.501l-3.696,2.368c-0.982,0.693-1.964,0.635-2.946-0.116
		c-1.444-1.155-2.772-2.483-3.927-3.927c-0.75-0.924-0.809-1.906-0.173-2.945l2.368-3.696c-0.693-1.329-1.155-2.542-1.444-3.523
		l-4.274-0.924c-1.097-0.231-1.79-1.155-1.963-2.252c-0.231-1.791-0.231-3.639,0-5.487c0.115-1.271,0.75-2.021,1.963-2.252
		l4.274-0.924c0.289-1.155,0.809-2.311,1.444-3.523l-2.368-3.696c-0.636-1.04-0.578-2.021,0.173-2.946
		c1.155-1.444,2.483-2.772,3.927-3.927c0.924-0.751,1.906-0.809,2.946-0.173l3.696,2.368c1.213-0.635,2.368-1.155,3.523-1.444
		l0.924-4.274c0.231-1.213,0.982-1.848,2.252-1.964c1.791-0.231,3.638-0.231,5.487,0c1.098,0.173,2.021,0.867,2.253,1.964
		L303.501,333.924z M300.845,334.617l-0.866-4.216c-1.56-0.173-3.119-0.173-4.678,0l-0.924,4.216
		c-0.173,0.982-0.751,1.617-1.733,1.906c-1.097,0.347-2.194,0.809-3.234,1.329c-0.866,0.462-1.733,0.462-2.599-0.058l-3.639-2.368
		c-1.213,0.982-2.31,2.079-3.292,3.292l2.311,3.639c0.577,0.809,0.635,1.675,0.115,2.599c-0.52,1.04-0.982,2.137-1.328,3.234
		c-0.289,0.982-0.924,1.56-1.906,1.733l-4.216,0.924c-0.173,1.56-0.173,3.119,0,4.678l4.216,0.866
		c1.906,0.462,2.08,2.657,3.234,5.025c0.52,0.866,0.462,1.732-0.115,2.599l-2.311,3.639c0.982,1.213,2.079,2.31,3.292,3.292
		l3.639-2.368c0.866-0.52,1.733-0.52,2.599-0.058c1.04,0.52,2.137,0.982,3.234,1.329c0.982,0.289,1.56,0.924,1.733,1.906
		l0.924,4.216c1.56,0.173,3.119,0.173,4.678,0l0.866-4.216c0.463-1.906,2.656-2.079,5.025-3.234
		c0.865-0.462,1.732-0.462,2.599,0.058l3.638,2.368c1.213-0.982,2.311-2.079,3.293-3.292l-2.368-3.639
		c-0.521-0.866-0.521-1.732-0.058-2.599c0.635-1.213,1.039-2.252,1.328-3.234s0.924-1.56,1.906-1.791l4.216-0.866
		c0.173-1.56,0.173-3.119,0-4.678l-4.216-0.924c-0.982-0.173-1.617-0.751-1.906-1.733c-0.347-1.097-0.809-2.194-1.328-3.234
		c-0.463-0.866-0.463-1.732,0.058-2.599l2.368-3.639c-0.982-1.213-2.08-2.31-3.293-3.292l-3.638,2.368
		c-0.866,0.52-1.733,0.52-2.599,0.058c-1.098-0.52-2.195-0.982-3.234-1.329C301.654,336.234,301.076,335.599,300.845,334.617z
		 M304.83,345.995c1.964,2.021,2.945,4.389,2.945,7.161c0,2.83-0.981,5.198-2.945,7.162c-2.021,2.021-4.39,3.003-7.219,3.003
		c-2.772,0-5.14-0.982-7.104-3.003c-2.021-1.963-3.003-4.332-3.003-7.162c0-2.772,0.982-5.14,3.003-7.161
		c1.964-1.964,4.332-2.946,7.104-2.946C300.441,343.049,302.809,344.031,304.83,345.995z M292.471,347.958
		c-1.444,1.444-2.195,3.177-2.195,5.198c0,2.021,0.693,3.754,2.137,5.198s3.177,2.194,5.198,2.194c2.021,0,3.812-0.75,5.255-2.194
		s2.137-3.177,2.137-5.198c0-2.021-0.693-3.754-2.137-5.198s-3.234-2.137-5.255-2.137
		C295.59,345.822,293.915,346.515,292.471,347.958z"/>
</g>
</svg>
