<?xml version="1.0" encoding="utf-8"?>
<!-- Generator: Adobe Illustrator 24.3.0, SVG Export Plug-In . SVG Version: 6.00 Build 0)  -->
<svg version="1.1" id="Слой_1" xmlns="http://www.w3.org/2000/svg" xmlns:xlink="http://www.w3.org/1999/xlink" x="0px" y="0px"
	 viewBox="0 0 54 53" style="enable-background:new 0 0 54 53;" xml:space="preserve">
<g>
	<path d="M19.62,23.02L23.66,18c2.85-3.5,5.04-8.3,6.58-14.38c0.38-1.69,1.31-2.75,2.77-3.18c1.39-0.38,2.67,0.02,3.87,1.21
		c1.16,1.12,1.89,2.85,2.19,5.2c0.23,2.31,0.17,4.49-0.17,6.53c-0.46,2.35-0.96,4.27-1.5,5.77h9.82c1.46,0,2.69,0.54,3.67,1.62
		c0.98,1.08,1.45,2.31,1.42,3.7c-0.08,1.46-0.46,2.73-1.16,3.81c1.31,1.08,1.91,2.62,1.79,4.62c-0.12,2.04-0.89,3.48-2.31,4.33
		c0.73,1.19,0.92,2.54,0.58,4.04c-0.35,1.5-1.14,2.58-2.37,3.23c0.85,1.5,0.85,3.12,0,4.85c-0.85,1.73-2.21,2.6-4.1,2.6H32.27
		c-1.66,0-3.93-0.56-6.81-1.67c-2.81-1.08-4.76-1.71-5.83-1.91v0.75c0,0.73-0.25,1.34-0.75,1.82c-0.5,0.48-1.1,0.72-1.79,0.72H3.79
		c-0.73,0-1.34-0.24-1.82-0.72c-0.48-0.48-0.72-1.09-0.72-1.82V23.14c0-0.69,0.24-1.29,0.72-1.79c0.48-0.5,1.09-0.75,1.82-0.75
		h13.28c0.65,0,1.23,0.24,1.73,0.72C19.31,21.8,19.58,22.37,19.62,23.02z M16.85,48.95V23.31H3.97v25.64H16.85z M19.62,27.41v18.25
		c1.23,0.15,3.27,0.79,6.12,1.91c2.77,1.08,4.95,1.62,6.53,1.62h12.47c0.92,0,1.54-0.5,1.85-1.5c0.31-1.08,0.12-1.87-0.58-2.37
		c-0.62-0.39-0.81-0.98-0.58-1.79s0.71-1.23,1.44-1.27c1-0.04,1.58-0.62,1.73-1.73c0.15-1-0.12-1.83-0.81-2.48
		c-0.39-0.31-0.58-0.72-0.58-1.24c0-0.52,0.19-0.95,0.58-1.3c0.12-0.12,0.41-0.27,0.89-0.46s0.82-0.42,1.01-0.69
		c0.42-0.65,0.58-1.46,0.46-2.43c-0.15-0.96-0.58-1.56-1.27-1.79c-0.69-0.23-1.08-0.71-1.16-1.44s0.19-1.31,0.81-1.73
		c0.89-0.54,1.19-1.52,0.92-2.95c-0.27-1.42-1.02-2.14-2.25-2.14H36.08c-0.69,0-1.21-0.26-1.56-0.78s-0.38-1.11-0.12-1.76
		c1.46-3.35,2.14-7.06,2.02-11.15c-0.04-2.12-0.52-3.64-1.44-4.56c-1-1-1.69-0.77-2.08,0.69c-1.69,6.51-4.06,11.63-7.1,15.36
		L19.62,27.41z"/>
</g>
</svg>
