<svg xmlns="http://www.w3.org/2000/svg" width="584.28" height="540.54" viewBox="0 0 584.28 540.54">
	<style type="text/css">
		.st0{fill:#fa8242;}
	</style>
	<path class="st0" d="M359.44,459.44L309.11,509.77C304.65,514.23 298.71,516.69 292.39,516.69C286.07,516.69 280.13,514.23 275.67,509.77C271.2,505.31 268.75,499.37 268.75,493.05C268.75,486.72 271.2,480.79 275.67,476.32L325.99,426C330.46,421.53 336.4,419.07 342.72,419.07C349.03,419.07 354.97,421.53 359.44,426C363.91,430.47 366.37,436.41 366.37,442.72C366.37,449.04 363.91,454.97 359.44,459.44M242.06,466.38C235.75,466.38 229.81,463.91 225.34,459.44C216.11,450.22 216.11,435.22 225.34,426L275.66,375.67C280.13,371.2 286.07,368.74 292.39,368.74C298.7,368.74 304.64,371.2 309.11,375.67C313.58,380.14 316.04,386.08 316.04,392.39C316.04,398.71 313.58,404.65 309.11,409.12L258.78,459.44C254.31,463.91 248.38,466.38 242.06,466.38M191.73,416.03C185.41,416.03 179.47,413.58 175.01,409.12C165.79,399.9 165.79,384.9 175,375.67L225.35,325.34C229.81,320.88 235.75,318.42 242.06,318.42C248.39,318.42 254.32,320.88 258.78,325.34C268.01,334.56 268.01,349.57 258.78,358.79L208.46,409.12C204,413.58 198.06,416.03 191.73,416.03M141.4,365.71C135.08,365.71 129.14,363.25 124.68,358.79L121.82,355.93L122,355.59C115.51,346.27 116.59,333.44 124.68,325.34L178.15,271.88C182.61,267.41 188.55,264.96 194.87,264.96C201.2,264.96 207.13,267.41 211.6,271.88C220.82,281.1 220.82,296.1 211.6,305.32L158.13,358.79C153.66,363.25 147.73,365.71 141.4,365.71M107.8,308.46C103.85,312.41 100.67,316.96 98.33,321.99L95.02,329.12L74.36,308.46C42.82,276.93 24.91,234.9 23.91,190.12C22.91,144.77 39.55,102.6 70.76,71.38C100.82,41.33 143.55,24.09 187.99,24.09C214.33,24.09 240.63,30.13 264.05,41.57L271.32,45.12L265.34,50.58C263.06,52.65 260.86,54.76 258.78,56.83L185.78,129.83C176.16,139.45 170.86,152.27 170.86,165.92C170.86,179.57 176.16,192.39 185.78,202.02C195.4,211.63 208.23,216.93 221.93,216.93C232.05,216.93 241.82,213.98 250.19,208.39L366.36,130.95L510.42,275.02C519.64,284.24 519.64,299.24 510.42,308.46C505.96,312.92 500.02,315.38 493.7,315.38C487.37,315.38 481.44,312.92 476.97,308.46L380.21,211.69L363.33,228.57L460.09,325.34C464.56,329.81 467.02,335.75 467.03,342.06C467.03,348.38 464.56,354.32 460.09,358.79C455.62,363.26 449.69,365.72 443.37,365.72C437.06,365.72 431.12,363.26 426.65,358.79L329.88,262.02L313,278.9L409.77,375.67C414.24,380.14 416.7,386.08 416.7,392.39C416.7,398.71 414.24,404.64 409.77,409.11C405.31,413.58 399.37,416.03 393.04,416.03C386.72,416.03 380.78,413.58 376.32,409.12C367.95,400.75 356.86,395.83 345.08,395.25L340.1,395.01L339.85,390.03C339.28,378.25 334.36,367.16 325.99,358.79C317.62,350.42 306.52,345.49 294.73,344.93L289.75,344.69L289.5,339.7C288.92,327.9 284,316.8 275.67,308.46C267.95,300.75 258.13,296.05 247.26,294.86L242.28,294.32L242.35,289.31C242.55,276.32 237.62,264.14 228.48,255C219.49,246.01 207.56,241.07 194.87,241.07C182.19,241.07 170.25,246.01 161.27,255ZM396.66,23.86C441.05,23.86 482.38,40.74 513.03,71.38C538.14,96.49 553.98,128.67 558.84,164.44C563.44,198.29 557.59,233.72 542.36,264.2L538.19,272.53L532.91,264.86C531.26,262.47 529.37,260.21 527.3,258.14L369.4,100.23L236.95,188.53C232.49,191.51 227.29,193.08 221.9,193.08C214.62,193.08 207.79,190.26 202.67,185.13C192.07,174.54 192.07,157.3 202.67,146.7L275.67,73.7C307.34,42.03 351.44,23.86 396.66,23.86M390.18,445.06L390.42,440.08L395.4,439.83C407.21,439.25 418.3,434.33 426.64,426C435.01,417.63 439.93,406.53 440.5,394.76L440.74,389.77L445.73,389.53C457.51,388.96 468.6,384.04 476.97,375.67C485.33,367.3 490.26,356.21 490.83,344.43L491.07,339.44L496.06,339.2C507.83,338.63 518.93,333.71 527.3,325.34C563.48,289.16 583.71,240.94 584.26,189.55C584.82,138.08 565.52,90.11 529.91,54.5C494.76,19.35 447.42,0 396.62,0C360.63,0 325.54,9.76 295.15,28.24L292.31,29.97L289.46,28.25C259.01,9.94 223.84,0.26 187.77,0.26C136.41,0.26 88.86,19.52 53.88,54.5C18.12,90.27 -0.99,138.44 0.03,190.16C1.06,241.32 21.46,289.33 57.47,325.34L107.82,375.69C116.16,384.03 127.26,388.93 139.07,389.51L144.05,389.75L144.29,394.73C144.87,406.55 149.78,417.65 158.13,426C166.49,434.36 177.59,439.29 189.36,439.86L194.35,440.1L194.59,445.08C195.16,456.86 200.09,467.96 208.45,476.32C216.83,484.69 227.93,489.62 239.72,490.18L244.7,490.42L244.95,495.41C245.53,507.21 250.44,518.31 258.78,526.65C267.74,535.61 279.67,540.54 292.38,540.54L292.39,540.54C305.09,540.54 317.03,535.61 325.99,526.65L376.31,476.32C384.69,467.95 389.61,456.85 390.18,445.06"/>
</svg>