<svg version="1.2" baseProfile="tiny-ps" xmlns="http://www.w3.org/2000/svg" width="1412" height="1536"><style>.shp0{fill:#fa8242}</style><g id="Capa 1"><g id="&lt;Group&gt;"><path id="&lt;Path&gt;" class="shp0" d="M706 152.36c15.53 0 28.31-11.8 29.84-26.93.11-1.01.16-2.03.16-3.07V30c0-1.04-.05-2.06-.16-3.07C734.31 11.81 721.53 0 706 0s-28.31 11.81-29.84 26.93c-.11 1.01-.16 2.03-.16 3.07v92.36c0 1.04.05 2.06.16 3.07 1.53 15.13 14.31 26.93 29.84 26.93zm-485.31 69.99c.09.69.17 1.39.3 2.07 1.05 5.42 3.63 10.59 7.68 14.87.2.2.36.42.56.62l65.31 65.31c5.86 5.86 13.54 8.79 21.22 8.79 4.01 0 8.02-.82 11.77-2.42 3.43-1.46 6.65-3.57 9.44-6.37 11.72-11.72 11.72-30.71 0-42.43l-65.31-65.31c-11.72-11.72-30.71-11.72-42.43 0-6.59 6.59-9.47 15.48-8.65 24.09.03.26.08.52.11.78zm-3.79 784.51c-5.86-5.86-13.54-8.79-21.22-8.79s-15.35 2.93-21.21 8.79l-65.31 65.31c-11.72 11.71-11.72 30.71 0 42.43 1.1 1.1 2.28 2.06 3.49 2.95a29.88 29.88 0 0017.72 5.84c7.68 0 15.36-2.93 21.22-8.79l65.31-65.31a30.03 30.03 0 005.35-7.27c5.95-11.32 4.17-25.65-5.35-35.16zm1020.63 0a29.91 29.91 0 00-21.21-8.79c-7.68 0-15.36 2.93-21.22 8.79-9.52 9.51-11.3 23.84-5.35 35.16a30.03 30.03 0 005.35 7.27l65.31 65.31c5.86 5.86 13.54 8.79 21.22 8.79 6.19 0 12.35-1.94 17.58-5.74 1.27-.92 2.5-1.91 3.63-3.05 11.72-11.72 11.72-30.72 0-42.43l-65.31-65.31z"/><path id="&lt;Compound Path&gt;" fill-rule="evenodd" class="shp0" d="M1217.52 783.37c-9.12 62.98-29.69 124-60.96 179.64-26.93 47.92-61.29 91.23-101.45 128.22-.04.04-.08.09-.13.13-3.58 3.3-7.22 6.52-10.89 9.72-1.03.89-2.07 1.77-3.1 2.65-2.73 2.34-5.48 4.64-8.25 6.91-1.27 1.05-2.54 2.09-3.82 3.12a499.72 499.72 0 01-9.24 7.26c-.91.7-1.82 1.43-2.74 2.12a471.776 471.776 0 01-15.4 11.19c-2.6 1.83-5.21 3.63-7.84 5.4-1.51 1.02-3.02 2.04-4.54 3.04-3.38 2.22-6.79 4.41-10.22 6.56-.58.36-1.16.76-1.75 1.12-46.95 29.09-74.97 79.37-74.97 134.5v116.12c0 16.56-13.43 30-30 30h-43.48V1506c0 16.57-13.43 30-30 30H613.25c-16.56 0-30-13.43-30-30v-74.93h-43.47c-16.57 0-30-13.44-30-30v-116.12c0-55.13-28.02-105.41-74.97-134.5-.59-.36-1.17-.76-1.75-1.12-3.43-2.15-6.84-4.34-10.22-6.56-1.52-1.01-3.03-2.02-4.54-3.04-2.63-1.77-5.24-3.57-7.84-5.39-1.49-1.05-2.99-2.1-4.47-3.16-3.68-2.63-7.32-5.3-10.93-8.04-.92-.69-1.83-1.42-2.74-2.12-3.11-2.38-6.19-4.8-9.24-7.26-1.28-1.03-2.55-2.08-3.83-3.12-2.76-2.27-5.51-4.57-8.23-6.9-1.04-.89-2.08-1.77-3.11-2.66-3.67-3.2-7.31-6.43-10.89-9.72-.05-.04-.09-.09-.13-.13-40.16-36.99-74.52-80.3-101.45-128.22-31.27-55.64-51.84-116.66-60.96-179.64-.15-.7-.31-1.4-.41-2.12-.41-2.93-.72-5.88-1.08-8.83-.15-1.24-.31-2.49-.45-3.74-.47-4.07-.88-8.14-1.25-12.23-.19-2.01-.37-4.02-.53-6.04-.28-3.49-.52-6.98-.72-10.48-.16-2.58-.29-5.17-.41-7.76-.14-3.11-.25-6.22-.34-9.33-.08-2.89-.12-5.79-.15-8.68-.02-1.75-.09-3.5-.09-5.24 0-1.57.04-3.14.06-4.72 0-.72-.02-1.44-.01-2.16.01-.86.05-1.71.07-2.56.04-2.45.1-4.91.18-7.35.06-1.8.12-3.59.2-5.39.1-2.53.23-5.07.38-7.6.09-1.65.19-3.31.3-4.96.18-2.72.38-5.44.6-8.15l.36-4.23c.28-3.02.58-6.03.9-9.05.12-1.05.23-2.1.35-3.15.39-3.43.82-6.85 1.27-10.27.09-.59.16-1.18.24-1.77.55-3.96 1.14-7.91 1.77-11.84 0-.01.01-.03.01-.04 16.96-105.21 65.96-202.42 142.18-279.72 90.49-91.76 209.53-145.58 337.31-153.05.07-.01.15-.01.22-.02 4.01-.23 8.03-.42 12.05-.56 1.03-.04 2.07-.05 3.1-.09 2.53-.07 5.07-.16 7.61-.2.56-.01 1.12 0 1.67 0 2.04-.03 4.09-.02 6.13-.02s4.09-.01 6.13.02c.56 0 1.11-.01 1.67 0 2.54.04 5.08.13 7.61.2 1.03.04 2.07.05 3.1.09 4.02.14 8.04.33 12.05.56.07.01.15.01.22.02 127.78 7.47 246.82 61.29 337.31 153.05 76.22 77.3 125.22 174.51 142.18 279.72 0 .01.01.03.01.04.63 3.93 1.22 7.88 1.76 11.84.09.59.17 1.18.25 1.77.45 3.42.88 6.84 1.27 10.27.12 1.05.23 2.1.35 3.15.32 3.02.63 6.03.89 9.05.13 1.41.25 2.82.37 4.23.22 2.71.42 5.43.6 8.15.11 1.65.21 3.31.3 4.96.15 2.53.28 5.07.38 7.6.08 1.8.14 3.59.2 5.39.08 2.44.14 4.9.18 7.35.02.85.06 1.7.07 2.56.01.72-.02 1.44-.01 2.16.02 1.58.06 3.15.06 4.72 0 1.74-.07 3.49-.09 5.24-.03 2.89-.07 5.79-.15 8.68-.09 3.11-.2 6.22-.34 9.33-.12 2.59-.25 5.18-.41 7.76-.2 3.5-.44 6.99-.72 10.48-.16 2.02-.34 4.03-.53 6.04-.37 4.09-.78 8.16-1.25 12.23-.14 1.25-.3 2.5-.45 3.74-.36 2.95-.67 5.9-1.08 8.83-.1.72-.26 1.42-.41 2.12zm-56.31-35.08c.03-.42.07-.85.1-1.28.34-3.89.59-7.8.82-11.71.1-1.82.2-3.64.29-5.46.13-2.9.23-5.81.32-8.71.06-2.64.11-5.27.13-7.9.03-2.66.05-5.32.03-7.98-.02-1.86-.03-3.71-.07-5.55-.03-1.58-.07-3.16-.12-4.73-.07-2.45-.17-4.89-.28-7.33-.05-1.16-.11-2.32-.17-3.48-.17-2.99-.35-5.98-.57-8.96l-.12-1.57c-16.26-209.2-175.74-380.94-380.06-415.36-.08-.02-.16-.03-.25-.04-3.26-.55-6.54-1.05-9.83-1.53-.65-.09-1.3-.2-1.96-.29-2.76-.38-5.52-.73-8.29-1.07-1.15-.14-2.29-.29-3.44-.42-2.34-.26-4.69-.5-7.04-.73-1.53-.15-3.06-.31-4.6-.44-2.04-.18-4.09-.33-6.13-.48-1.81-.14-3.61-.28-5.42-.39-1.88-.12-3.76-.2-5.65-.3-1.94-.1-3.88-.2-5.83-.27-1.88-.07-3.77-.11-5.65-.16-1.93-.04-3.85-.1-5.77-.12-1.89-.03-3.77-.02-5.65-.02-1.88 0-3.76-.01-5.65.02-1.92.02-3.85.08-5.77.12-1.89.05-3.77.09-5.65.16-1.95.07-3.89.17-5.83.27-1.89.1-3.77.18-5.65.3-1.81.11-3.61.25-5.42.39-2.04.15-4.09.3-6.13.48-1.54.13-3.07.29-4.6.44-2.35.23-4.7.47-7.04.73-1.15.13-2.29.28-3.44.42-2.77.34-5.53.69-8.29 1.07-.66.09-1.31.2-1.97.29-3.28.48-6.56.98-9.82 1.53-.09.01-.17.02-.25.04-204.33 34.42-363.8 206.16-380.06 415.36l-.12 1.57c-.22 2.98-.4 5.97-.57 8.96-.06 1.16-.12 2.32-.17 3.48-.11 2.44-.2 4.88-.28 7.33-.05 1.57-.09 3.15-.12 4.73-.04 1.84-.05 3.69-.07 5.55-.02 2.66 0 5.32.03 7.98.02 2.63.07 5.26.14 7.9.08 2.9.18 5.81.32 8.71.08 1.82.18 3.64.28 5.46.23 3.91.48 7.82.81 11.71l.12 1.28c10.78 123.09 71.38 237.72 166.49 315.95.46.39.93.77 1.4 1.15 3.19 2.6 6.41 5.15 9.68 7.67.55.42 1.09.86 1.64 1.27 3.51 2.69 7.07 5.32 10.66 7.9 1.01.72 2.02 1.42 3.03 2.14 2.64 1.86 5.31 3.71 8 5.52 1.25.84 2.51 1.69 3.77 2.52 3.16 2.09 6.34 4.14 9.56 6.15.54.34 1.07.69 1.62 1.03 30.54 18.9 55.26 44.36 72.84 74V758.78c0-26.59 7.65-52.42 22.13-74.72l119.22-183.53c5.53-8.52 15-13.66 25.16-13.66s19.63 5.14 25.16 13.66l119.22 183.53c14.48 22.3 22.13 48.13 22.13 74.72v414.81c17.58-29.64 42.3-55.1 72.84-74 .55-.34 1.08-.69 1.62-1.03 3.22-2.01 6.4-4.06 9.56-6.15 1.26-.83 2.52-1.68 3.77-2.52 2.69-1.81 5.36-3.66 8-5.52 1.01-.72 2.02-1.42 3.03-2.14 3.59-2.58 7.15-5.21 10.66-7.9.55-.41 1.09-.85 1.64-1.27 3.27-2.52 6.49-5.07 9.68-7.67.47-.38.94-.76 1.4-1.15 95.11-78.23 155.71-192.86 166.5-315.95zM676 1254.95V834.22c-13.04-13.34-30.71-20.83-49.69-20.83-9.32 0-18.4 1.82-26.82 5.34v436.22H676zm136.51 0V818.73c-8.42-3.52-17.5-5.34-26.82-5.34-18.98 0-36.65 7.49-49.69 20.83v420.73h76.51zM706 571.94l-32 49.25h63.99L706 571.94zm62.74 859.12H643.26V1476h125.48v-44.94zm73.47-60v-56.11H569.79v56.11h272.42zm-88.76-613.68c10.38-2.63 21.19-3.99 32.24-3.99 9.08 0 18.04.93 26.77 2.76a76.847 76.847 0 00-12.41-39.41l-11.54-17.77-11.54-17.78H635.03l-11.54 17.78-11.54 17.77a76.847 76.847 0 00-12.41 39.41c8.73-1.83 17.69-2.76 26.77-2.76 11.05 0 21.86 1.36 32.24 3.99 17.3 4.39 33.41 12.3 47.45 23.29a127.896 127.896 0 0147.45-23.29z"/><path id="&lt;Path&gt;" class="shp0" d="M1084.47 311.59a30.02 30.02 0 0011.77 2.42c7.68 0 15.36-2.93 21.22-8.79l65.31-65.31c.2-.2.36-.42.56-.62 4.05-4.28 6.63-9.45 7.68-14.87.17-.91.3-1.83.4-2.75 0-.03 0-.07.01-.1.82-8.61-2.06-17.5-8.65-24.09-11.72-11.72-30.71-11.72-42.43 0l-65.31 65.31c-11.72 11.72-11.72 30.71 0 42.43 2.79 2.8 6.01 4.91 9.44 6.37zm-932 362.66c0-16.57-13.43-30-30-30H30.11c-15.54 0-28.31 11.81-29.85 26.94-.1 1-.15 2.03-.15 3.06 0 1.04.05 2.06.15 3.07 1.54 15.13 14.31 26.93 29.85 26.93h92.36c16.57 0 30-13.43 30-30zm1259.27-3.06c-1.54-15.13-14.31-26.94-29.85-26.94h-92.36c-16.57 0-30 13.43-30 30s13.43 30 30 30h92.36c15.54 0 28.31-11.8 29.85-26.93.1-1.01.15-2.03.15-3.07 0-1.03-.05-2.06-.15-3.06z"/></g></g></svg>