<?xml version="1.0" encoding="utf-8"?>
<!-- Generator: Adobe Illustrator 24.3.0, SVG Export Plug-In . SVG Version: 6.00 Build 0)  -->
<svg version="1.1" id="Слой_1" xmlns="http://www.w3.org/2000/svg" xmlns:xlink="http://www.w3.org/1999/xlink" x="0px" y="0px"
	 viewBox="0 0 57 53" style="enable-background:new 0 0 57 53;" xml:space="preserve">
<g>
	<path d="M5.78,39.13l13.17-6.29c-2.62-2-4.14-4.71-4.56-8.14l-1.16-10.34c-0.35-2.85,0.18-5.38,1.59-7.59
		c1.4-2.21,3.29-3.85,5.66-4.91c2.37-1.06,4.92-1.55,7.65-1.47c2.77-0.08,5.35,0.41,7.74,1.47c2.39,1.06,4.27,2.7,5.66,4.91
		c1.39,2.21,1.91,4.75,1.56,7.59L41.93,24.7c-0.42,3.43-1.94,6.14-4.56,8.14l13.17,6.29c1.69,0.77,3,1.9,3.93,3.38
		c0.92,1.48,1.35,2.95,1.27,4.42c-0.08,1.46-0.76,2.69-2.05,3.7s-2.97,1.5-5.05,1.5H7.68c-2.08,0-3.76-0.5-5.05-1.5
		c-1.29-1-1.97-2.23-2.05-3.7C0.5,45.47,0.92,44,1.85,42.51C2.77,41.03,4.08,39.91,5.78,39.13z M21.83,34.46L6.99,41.62
		c-1.08,0.46-1.94,1.15-2.6,2.05c-0.65,0.9-1.01,1.79-1.07,2.66c-0.06,0.87,0.28,1.61,1.01,2.22c0.73,0.62,1.85,0.9,3.35,0.87h40.95
		c1.5,0.04,2.62-0.25,3.35-0.87c0.73-0.62,1.07-1.36,1.01-2.22c-0.06-0.87-0.42-1.75-1.07-2.66s-1.52-1.59-2.6-2.05l-14.61-6.99
		c-0.85-0.42-1.29-0.91-1.33-1.47c-0.04-0.56,0.31-1.09,1.04-1.59c1.58-1.12,2.72-2.18,3.44-3.21c0.71-1.02,1.16-2.36,1.36-4.01
		l1.15-10.34c0.38-3.39-0.68-6.06-3.21-8.03s-5.54-2.91-9.04-2.83c-3.5-0.08-6.51,0.86-9.01,2.8c-2.5,1.94-3.56,4.63-3.18,8.06
		l1.15,10.34c0.27,2.23,1.08,3.98,2.43,5.26c0.58,0.58,1.4,1.27,2.48,2.08c0.62,0.42,0.91,0.92,0.9,1.47
		C22.88,33.72,22.52,34.15,21.83,34.46z"/>
</g>
</svg>
