<svg xmlns="http://www.w3.org/2000/svg" width="583.27" height="583.28" viewBox="0 0 583.27 583.28">
	<style type="text/css">
		.st0{fill:#fa8242;}
	</style>
	<path class="st0" d="M226.93 22.88L356.34 22.88L356.34 152.28L226.93 152.28ZM316.46,209.22L266.81,209.22L255.28,175.16L327.99,175.16ZM329.54,321.33L341.59,384.19L348.2,386.2C360.16,389.84 371.83,394.68 382.89,400.58L388.98,403.84L441.96,367.9L495.57,421.5L459.63,474.49L462.89,480.58C468.79,491.64 473.63,503.31 477.27,515.27L479.28,521.88L542.14,533.93L542.14,560.4L406.12,560.4L405.38,555.26C401.45,528.22 387.87,503.35 367.14,485.25C346.2,466.96 319.39,456.9 291.64,456.9C263.88,456.9 237.07,466.96 216.13,485.25C195.4,503.35 181.82,528.22 177.89,555.26L177.15,560.4L41.13,560.4L41.13,533.93L103.99,521.88L106,515.27C109.64,503.31 114.48,491.64 120.38,480.58L123.63,474.49L87.7,421.5L141.3,367.9L194.29,403.84L200.38,400.58C211.44,394.68 223.11,389.84 235.07,386.2L241.68,384.19L253.73,321.33ZM199.99,560.4L201.47,553.18C210.27,510.65 248.18,479.77 291.64,479.77C335.09,479.77 373,510.65 381.79,553.18L383.29,560.4ZM0,62.07L204.05,62.07L204.05,175.16L231.12,175.16L250.4,232.1L280.2,232.1L280.2,298.45L234.82,298.45L221.79,366.42L218.56,367.57C211.9,369.96 205.28,372.7 198.88,375.73L195.78,377.2L138.5,338.35L58.15,418.7L97,475.98L95.53,479.08C92.5,485.49 89.75,492.12 87.37,498.77L86.21,501.99L18.25,515.02L18.25,583.28L565.02,583.28L565.02,515.02L497.05,501.99L495.9,498.77C493.52,492.1 490.77,485.48 487.74,479.08L486.27,475.98L525.12,418.7L444.77,338.35L387.49,377.2L384.39,375.73C377.98,372.7 371.36,369.95 364.71,367.57L361.48,366.42L348.45,298.45L303.07,298.45L303.07,232.1L332.87,232.1L352.15,175.16L379.22,175.16L379.22,62.07L583.27,62.07L583.27,39.19L379.22,39.19L379.22,0L204.05,0L204.05,39.19L0,39.19Z"/>
</svg>