<?xml version="1.0" encoding="utf-8"?>
<!-- Generator: Adobe Illustrator 16.0.0, SVG Export Plug-In . SVG Version: 6.00 Build 0)  -->
<!DOCTYPE svg PUBLIC "-//W3C//DTD SVG 1.1//EN" "http://www.w3.org/Graphics/SVG/1.1/DTD/svg11.dtd">
<svg version="1.1" id="Capa_1" xmlns="http://www.w3.org/2000/svg" xmlns:xlink="http://www.w3.org/1999/xlink" x="0px" y="0px"
	 width="47.917px" height="50.251px" viewBox="271.968 327.513 47.917 50.251"
	 enable-background="new 271.968 327.513 47.917 50.251" xml:space="preserve">
<g>
	<path d="M313.724,375.223c0,1.386-1.154,2.542-2.541,2.542h-36.674c-1.386,0-2.541-1.155-2.541-2.542v-39.62
		c0-1.386,1.155-2.541,2.541-2.541h20.503c0.521,0,0.751,0.231,0.751,0.751v1.271c0,0.52-0.23,0.751-0.751,0.751H274.74v39.215
		h36.212v-21.832c0-0.52,0.23-0.75,0.751-0.75h1.271c0.52,0,0.75,0.231,0.75,0.75V375.223z M318.634,338.607l-22.12,22.12
		c-0.289,0.289-0.636,0.462-1.04,0.578l-9.24,2.425c-1.443,0.404-2.945-0.981-2.541-2.541l2.367-9.298
		c0.115-0.404,0.347-0.751,0.636-1.04l22.062-22.062c1.098-1.097,2.542-1.501,4.332-1.155c3.177,0.52,6.007,3.523,6.643,6.699
		C320.136,336.066,319.732,337.51,318.634,338.607z M312.57,330.348c-0.866-0.173-1.443,0-1.848,0.404l-22.005,21.947l-2.079,8.085
		l8.027-2.079l22.005-22.004c0.404-0.462,0.52-1.098,0.404-1.906C316.67,332.774,314.591,330.637,312.57,330.348z"/>
</g>
</svg>
