<?xml version="1.0" encoding="utf-8"?>
<!-- Generator: Adobe Illustrator 24.3.0, SVG Export Plug-In . SVG Version: 6.00 Build 0)  -->
<svg version="1.1" id="Слой_1" xmlns="http://www.w3.org/2000/svg" xmlns:xlink="http://www.w3.org/1999/xlink" x="0px" y="0px"
	 viewBox="0 0 44 53" style="enable-background:new 0 0 44 53;" xml:space="preserve">
<g>
	<path d="M30.71,1.91l11.2,11.2c0.58,0.66,0.87,1.35,0.87,2.08v27.43c0,2.66-0.94,4.93-2.83,6.82c-1.89,1.89-4.18,2.83-6.87,2.83
		H10.44c-2.7,0-4.99-0.94-6.87-2.83c-1.89-1.89-2.83-4.16-2.83-6.82V10.75c0-2.69,0.94-4.99,2.83-6.87
		c1.89-1.89,4.18-2.83,6.87-2.83h18.19C29.44,1.05,30.13,1.34,30.71,1.91z M40.01,42.63V17.04H29.27c-0.69,0-1.29-0.24-1.79-0.72
		c-0.5-0.48-0.75-1.09-0.75-1.82V3.82H10.44c-1.93,0-3.56,0.67-4.91,2.02c-1.39,1.39-2.08,3.02-2.08,4.91v31.88
		c0,1.89,0.69,3.52,2.08,4.91c1.35,1.35,2.98,2.02,4.91,2.02h22.64c1.92,0,3.56-0.67,4.91-2.02C39.33,46.19,40.01,44.55,40.01,42.63
		z M12.23,24.73h19c0.5,0,0.75-0.25,0.75-0.75v-1.21c0-0.54-0.25-0.81-0.75-0.81h-19c-0.5,0-0.75,0.27-0.75,0.81v1.21
		C11.48,24.48,11.73,24.73,12.23,24.73z M12.23,33.68h19c0.5,0,0.75-0.25,0.75-0.75v-1.21c0-0.5-0.25-0.75-0.75-0.75h-19
		c-0.5,0-0.75,0.25-0.75,0.75v1.21C11.48,33.43,11.73,33.68,12.23,33.68z M12.23,42.74h19c0.5,0,0.75-0.25,0.75-0.75v-1.21
		c0-0.5-0.25-0.75-0.75-0.75h-19c-0.5,0-0.75,0.25-0.75,0.75v1.21C11.48,42.49,11.73,42.74,12.23,42.74z M39.49,14.56L29.21,4.34
		v10.22H39.49z"/>
</g>
</svg>
