<svg xmlns="http://www.w3.org/2000/svg" width="523.86" height="598.27" viewBox="0 0 523.86 598.27">
	<style type="text/css">
		.st0{fill:#fa8242;}
	</style>
	<path class="st0" d="M147.73,276.91C145.11,274.29 141.62,272.85 137.9,272.85C134.18,272.85 130.69,274.29 128.07,276.91C125.45,279.54 124.01,283.03 124.01,286.74C124.01,290.46 125.45,293.95 128.07,296.57L227.29,395.79C229.93,398.4 233.43,399.85 237.13,399.85C240.84,399.85 244.32,398.4 246.94,395.78L420.57,222.16C423.19,219.54 424.63,216.05 424.63,212.33C424.63,208.62 423.19,205.13 420.57,202.5C417.94,199.88 414.45,198.44 410.74,198.44C407.02,198.44 403.53,199.88 400.91,202.5L237.13,366.29Z"/>
	<path class="st0" d="M496.06,98.65L496.06,361.14C496.06,388.34 482.07,432.07 415.42,485.91C371.27,521.57 313.93,552.91 261.93,569.79C209.93,552.91 152.59,521.57 108.44,485.91C41.79,432.07 27.8,388.34 27.8,361.14L27.8,98.65L261.93,28.41ZM513.94,74.99L265.91,0.57C263.31,-0.19 260.53,-0.19 257.93,0.58L9.9,74.98C4.07,76.73 0,82.2 0,88.3L0,361.14C0,471.61 167.91,569.69 257.81,597.66C259.11,598.07 260.5,598.27 261.93,598.27C263.36,598.27 264.75,598.07 266.05,597.66C355.95,569.67 523.87,471.55 523.87,361.14L523.87,88.3C523.87,82.13 519.88,76.78 513.94,74.99"/>
</svg>