<svg xmlns="http://www.w3.org/2000/svg" viewBox="0 0 438.13 507">
	<style type="text/css">
		.st0{fill:#000000;}
	</style>
	<path class="st0" d="M26.88,481.52L63.12,136.42L127.29,136.42L127.29,172.5C127.29,179.53 133,185.24 140.03,185.24C147.05,185.24 152.77,179.53 152.77,172.5L152.77,136.42L285.36,136.42L285.36,172.5C285.36,179.53 291.08,185.24 298.1,185.24C305.12,185.24 310.84,179.53 310.84,172.5L310.84,136.42L375.01,136.42L411.25,481.52ZM152.77,91.77C152.77,55.21 182.51,25.47 219.07,25.47C255.62,25.47 285.36,55.21 285.36,91.77L285.36,110.94L152.77,110.94ZM438.06,492.93L399.15,122.35C398.47,115.85 393.02,110.94 386.48,110.94L310.84,110.94L310.84,91.77C310.84,41.16 269.67,0 219.07,0C168.46,0 127.29,41.16 127.29,91.77L127.29,110.94L51.65,110.94C45.11,110.94 39.66,115.85 38.98,122.35L0.06,492.93C-0.3,496.51 0.86,500.1 3.27,502.78C5.68,505.46 9.13,507 12.73,507L425.39,507C429,507 432.45,505.46 434.86,502.78C437.27,500.11 438.44,496.51 438.06,492.93"/>
</svg>