<svg xmlns="http://www.w3.org/2000/svg" viewBox="0 0 438.13 507"><path d="M26.88 481.52l36.24-345.1h64.17v36.08c0 7.03 5.71 12.74 12.74 12.74 7.02 0 12.74-5.71 12.74-12.74v-36.08h132.59v36.08c0 7.03 5.72 12.74 12.74 12.74 7.02 0 12.74-5.71 12.74-12.74v-36.08h64.17l36.24 345.1zM152.77 91.77c0-36.56 29.74-66.3 66.3-66.3 36.55 0 66.29 29.74 66.29 66.3v19.17H152.77zm285.29 401.16l-38.91-370.58c-.68-6.5-6.13-11.41-12.67-11.41h-75.64V91.77C310.84 41.16 269.67 0 219.07 0c-50.61 0-91.78 41.16-91.78 91.77v19.17H51.65c-6.54 0-11.99 4.91-12.67 11.41L.06 492.93c-.36 3.58.8 7.17 3.21 9.85 2.41 2.68 5.86 4.22 9.46 4.22h412.66c3.61 0 7.06-1.54 9.47-4.22 2.41-2.67 3.58-6.27 3.2-9.85"/></svg>