<svg xmlns="http://www.w3.org/2000/svg" viewBox="0 0 595.27 595.28">
	<style type="text/css">
		.st0{fill:#000000;}
	</style>
	<path class="st0" d="M90.48,475.42L475.43,91.12L503.47,119.2L118.51,503.5Z"/>
	<path class="st0" d="M90.48,119.21L118.51,91.12L503.47,475.42L475.43,503.51Z"/>
	<path class="st0" d="M359.01,363.64C304.33,418.31 278.16,493.7 287.19,570.48L326.6,565.84C318.99,501.21 341.04,437.73 387.07,391.7C434.79,343.97 502.83,321.83 568.98,332.44L575.27,293.26C496.56,280.62 415.7,306.94 359.01,363.64"/>
	<path class="st0" d="M287.65,24.36L248.07,27.22C252.47,88.12 229.98,148.05 186.27,191.76C143.29,235.32 85.04,257.18 22.37,253.35L19.94,292.97C25.51,293.31 31.03,293.48 36.54,293.48C104.51,293.48 167.2,267.6 214.43,219.73C266.19,167.96 292.88,96.75 287.65,24.36"/>
	<path class="st0" d="M297.63,555.59C155.4,555.59 39.68,439.87 39.68,297.64C39.68,155.4 155.4,39.68 297.63,39.68C439.87,39.68 555.59,155.4 555.59,297.64C555.59,439.87 439.87,555.59 297.63,555.59M297.63,0C133.52,0 0,133.52 0,297.64C0,461.75 133.52,595.28 297.63,595.28C461.75,595.28 595.27,461.75 595.27,297.64C595.27,133.52 461.75,0 297.63,0"/>
</svg>