<svg xmlns="http://www.w3.org/2000/svg" viewBox="0 0 595.27 595.28"><style>.st0{fill:#000}</style><path class="st0" d="M90.48 475.42l384.95-384.3 28.04 28.08-384.96 384.3z"/><path class="st0" d="M90.48 119.21l28.03-28.09 384.96 384.3-28.04 28.09z"/><path class="st0" d="M359.01 363.64c-54.68 54.67-80.85 130.06-71.82 206.84l39.41-4.64c-7.61-64.63 14.44-128.11 60.47-174.14 47.72-47.73 115.76-69.87 181.91-59.26l6.29-39.18c-78.71-12.64-159.57 13.68-216.26 70.38M287.65 24.36l-39.58 2.86c4.4 60.9-18.09 120.83-61.8 164.54-42.98 43.56-101.23 65.42-163.9 61.59l-2.43 39.62c5.57.34 11.09.51 16.6.51 67.97 0 130.66-25.88 177.89-73.75 51.76-51.77 78.45-122.98 73.22-195.37"/><path class="st0" d="M297.63 555.59c-142.23 0-257.95-115.72-257.95-257.95 0-142.24 115.72-257.96 257.95-257.96 142.24 0 257.96 115.72 257.96 257.96 0 142.23-115.72 257.95-257.96 257.95m0-555.59C133.52 0 0 133.52 0 297.64c0 164.11 133.52 297.64 297.63 297.64 164.12 0 297.64-133.53 297.64-297.64C595.27 133.52 461.75 0 297.63 0"/></svg>