<svg xmlns="http://www.w3.org/2000/svg" viewBox="0 0 33.3 40.76" fill="#fa8242"><path class="st0" d="M28.32 35.46c-.29 0-.53-.26-.53-.58 0-.23.13-.45.33-.54l.83-.37V23.29c0-.32.23-.58.53-.58.29 0 .53.26.53.58v11.07c0 .23-.13.45-.33.54l-1.16.52c-.06.03-.13.04-.2.04"/><path class="st0" d="M16.65 40.76c-.29 0-.53-.26-.53-.58V23.44c0-.23.13-.45.33-.54l12.81-5.82c.29-.12.6.04.71.35.01.06.03.12.03.19 0 .26-.16.49-.38.56l-12.44 5.65v15.48l12.09-5.49c.27-.12.58.02.7.32.11.3-.02.64-.29.77l-12.83 5.81c-.06.03-.13.04-.2.04"/><path class="st0" d="M19.94 28.2c-.15 0-.3-.07-.4-.2l-3.29-4.18a.624.624 0 01.05-.82c.05-.04.09-.07.15-.1l12.83-5.82c.21-.09.45-.03.6.16l3.29 4.17c.19.24.17.61-.05.82-.04.05-.09.08-.14.1l-12.84 5.83c-.06.02-.13.04-.2.04m-2.41-4.53l2.56 3.25 11.8-5.36-2.56-3.24z"/><path class="st0" d="M13.35 28.2c-.06 0-.13-.02-.2-.05L.32 22.33c-.27-.12-.39-.46-.28-.76.02-.06.05-.11.08-.16l3.3-4.17c.15-.19.39-.25.6-.16l12.83 5.83c.27.12.4.46.29.76-.02.05-.05.11-.09.16L13.75 28c-.1.13-.24.2-.4.2M1.41 21.56l11.8 5.36 2.56-3.25-11.8-5.35z"/><path class="st0" d="M16.65 40.76c-.07 0-.14-.01-.2-.04L3.62 34.9a.593.593 0 01-.33-.54V23.29c0-.32.24-.58.53-.58.29 0 .53.26.53.58v10.68l11.77 5.34V23.83l-12.5-5.67c-.27-.12-.41-.46-.3-.76.11-.3.42-.44.69-.32h.01l12.83 5.83c.2.09.33.3.33.53v16.74c0 .32-.24.58-.53.58"/><path class="st0" d="M29.48 18.2c-.07 0-.15-.01-.21-.04l-12.62-6.09-12.62 6.09c-.26.13-.58.01-.7-.28-.13-.29-.02-.64.25-.78.01 0 .02-.01.03-.01l12.83-6.19c.13-.06.29-.06.42 0l12.83 6.19c.27.13.39.47.27.77-.08.21-.27.34-.48.34z"/><path class="st0" d="M20.01 20.32H20c-.3-.01-.52-.28-.52-.6.01-.33.27-8.17 4.35-12.01.21-.21.55-.2.75.04.19.23.18.6-.04.82 0 .01-.01.02-.03.03-3.71 3.5-3.96 11.08-3.97 11.16-.01.31-.24.56-.53.56m-6.24-.48c-.28 0-.51-.23-.53-.54 0-.07-.44-6.72-3.79-9.66a.614.614 0 01-.08-.82c.18-.25.51-.29.74-.09 3.72 3.27 4.17 10.2 4.19 10.49.02.32-.2.6-.49.62zm3.04.48h-.02c-.29-.01-.52-.27-.51-.6.01-.64.13-3.92.96-5.04.19-.25.52-.29.75-.09.22.21.26.57.07.82-.44.6-.69 2.9-.72 4.34-.01.32-.25.57-.53.57m.71-16.67c-.29 0-.53-.26-.53-.58v-.69c0-.33.24-.59.53-.59.3 0 .53.26.53.59v.69c0 .32-.23.58-.53.58"/><path class="st0" d="M17.52 3.65c-.29 0-.53-.26-.53-.58v-.69c0-.33.24-.59.53-.59.3 0 .53.26.53.59v.69c0 .32-.23.58-.53.58m0 4.48c-.29 0-.53-.26-.53-.58v-.72c0-.32.24-.58.53-.58.3 0 .53.26.53.58v.72c0 .32-.23.58-.53.58m2.35-2.59h-.63c-.29 0-.52-.26-.52-.58 0-.32.23-.58.52-.58h.63c.29 0 .53.26.53.58 0 .32-.24.58-.53.58m-4.05 0h-.65c-.29 0-.52-.26-.52-.58 0-.32.23-.58.52-.58h.65c.3 0 .53.26.53.58 0 .32-.23.58-.53.58"/><path class="st0" d="M19.87 5.54h-.63c-.29 0-.52-.26-.52-.58 0-.32.23-.58.52-.58h.63c.29 0 .53.26.53.58 0 .32-.24.58-.53.58m-4.05 0h-.65c-.29 0-.52-.26-.52-.58 0-.32.23-.58.52-.58h.65c.3 0 .53.26.53.58 0 .32-.23.58-.53.58m10.81 3.73c-.29 0-.53-.26-.53-.58 0-1.87-1.38-3.39-3.08-3.39-.3 0-.54-.26-.54-.58 0-.32.24-.58.54-.58 1.7 0 3.08-1.52 3.08-3.4 0-.32.24-.58.53-.58.29 0 .53.26.53.58 0 1.87 1.37 3.39 3.07 3.4.3 0 .53.26.53.58 0 .32-.23.58-.53.58-1.69.01-3.07 1.52-3.07 3.39 0 .32-.24.58-.53.58m-1.59-4.55c.67.41 1.22 1.01 1.59 1.74.37-.73.92-1.33 1.58-1.74a4.327 4.327 0 01-1.58-1.75 4.28 4.28 0 01-1.59 1.75z"/><path class="st0" d="M26.63 1.33c-.29 0-.53-.27-.53-.59V.58c0-.32.24-.58.53-.58.29 0 .53.26.53.58v.16c0 .32-.24.59-.53.59"/><path class="st0" d="M26.63 1.33c-.29 0-.53-.27-.53-.59V.58c0-.32.24-.58.53-.58.29 0 .53.26.53.58v.16c0 .32-.24.59-.53.59M6.68 9.77c-.29 0-.53-.26-.53-.59C6.14 7.31 4.76 5.8 3.06 5.8c-.29 0-.53-.26-.53-.58 0-.32.24-.58.53-.58 1.71-.01 3.09-1.52 3.09-3.4 0-.32.24-.58.53-.58.29 0 .53.26.53.58 0 1.87 1.37 3.39 3.07 3.4.29 0 .53.26.53.58 0 .32-.24.58-.53.58-1.69 0-3.07 1.52-3.07 3.38 0 .33-.24.59-.53.59M5.09 5.22c.67.41 1.22 1.01 1.59 1.74.37-.73.92-1.33 1.58-1.74a4.392 4.392 0 01-1.58-1.75c-.38.73-.92 1.34-1.59 1.75z"/><path class="st0" d="M6.68 1.82c-.29 0-.53-.26-.53-.58v-.17c0-.32.24-.58.53-.58.29 0 .53.26.53.58v.17c0 .32-.24.58-.53.58"/><path class="st0" d="M6.68 1.82c-.29 0-.53-.26-.53-.58v-.17c0-.32.24-.58.53-.58.29 0 .53.26.53.58v.17c0 .32-.24.58-.53.58"/></svg>