<svg xmlns="http://www.w3.org/2000/svg" viewBox="0 0 405.07 405.02" fill="#fa8242"><path class="st0" d="M175.36 337.51a100.252 100.252 0 00-49.54-81.43l-46.63-51.81a25.616 25.616 0 00-18.48-8.54c-2.26-.03-4.51.24-6.71.79v-88.55c0-14.92-12.09-27.01-27-27.01S0 93.05 0 107.97v127.78a60.85 60.85 0 007.64 29.52l59.87 107.74v32.01h13.5v-33.76a6.7 6.7 0 00-.85-3.27L19.45 258.7a47.374 47.374 0 01-5.95-22.95V107.97c0-7.46 6.04-13.5 13.5-13.5s13.5 6.04 13.5 13.5v96.9c-8.45 9.82-8.25 24.39.45 33.98l55.32 60.85 9.99-9.08-55.31-60.86c-4.42-4.84-4.24-12.31.4-16.93a12.55 12.55 0 019-3.59c3.36.08 6.53 1.54 8.78 4.05l47.37 52.65c.6.61 1.28 1.13 2.03 1.55a86.518 86.518 0 0143.49 74.92v62.61h13.51v-67.51zm202.7-256.55c-14.91 0-27 12.09-27 27.01v88.57c-9.18-2.37-18.92.61-25.19 7.73l-46.61 51.8a100.017 100.017 0 00-49.56 81.44h-.16v67.51h13.5v-62.61c.07-31.08 16.78-59.75 43.8-75.11.64-.36 1.22-.81 1.72-1.36l47.35-52.65c2.24-2.51 5.41-3.97 8.77-4.05 3.36-.07 6.61 1.22 9 3.59 4.64 4.62 4.82 12.09.41 16.93l-55.29 60.85 9.99 9.09 55.32-60.84c8.71-9.59 8.9-24.17.45-33.99v-96.9c0-7.46 6.04-13.5 13.5-13.5s13.5 6.04 13.5 13.5v127.06a47.53 47.53 0 01-6.61 24.13L324.86 368c-.54 1-.82 2.13-.81 3.26v33.76h13.5v-32.01l59.12-107.17c5.5-9.34 8.39-19.97 8.4-30.81V107.97c0-14.92-12.1-27.01-27.01-27.01"/><path class="st0" d="M303.8 183.35l-94.52 54.69V132.17l94.52-53.16zm-101.27-62.87l-43.21-24.33 94.21-52.99 43.25 24.3zm-6.75 117.56l-94.52-54.68V79.01l94.52 53.16zm6.75-223.6l37.24 20.93-94.25 53.02-37.24-20.93zm114.53 51.25c-.05-.19-.15-.35-.22-.54-.12-.37-.27-.73-.45-1.07-.12-.19-.27-.35-.4-.53-.2-.3-.43-.59-.67-.86-.15-.15-.34-.26-.5-.39a6.94 6.94 0 00-.86-.68h-.07L205.87.86a6.815 6.815 0 00-6.61 0L91.24 61.62h-.07c-.31.2-.59.43-.86.68-.16.13-.35.24-.5.39-.24.27-.47.56-.67.86-.13.18-.29.34-.4.53-.18.34-.33.7-.45 1.07-.07.19-.17.35-.23.54-.18.58-.28 1.17-.3 1.77v119.79a6.75 6.75 0 003.38 5.84l108.01 62.49c.41.22.84.4 1.28.53.13.04.24.11.37.15 1.13.3 2.33.3 3.46 0 .13-.04.24-.11.37-.15.44-.13.87-.31 1.27-.53l108.02-62.49a6.75 6.75 0 003.38-5.84V67.46c0-.6-.08-1.19-.24-1.77"/></svg>