<svg version="1.2" baseProfile="tiny-ps" xmlns="http://www.w3.org/2000/svg" viewBox="0 0 1191 1170" width="1191" height="1170">
	<title>Capa 1</title>
	<style>
		tspan { white-space:pre }
		.shp0 { fill: #000000 } 
	</style>
	<g id="Capa 1">
		<path id="&lt;Compound Path&gt;" fill-rule="evenodd" class="shp0" d="M1190.56 352.69L1190.56 817.81C1190.56 824.79 1186.84 831.23 1180.79 834.72L605.03 1167.1C602.01 1168.85 598.64 1169.72 595.27 1169.72C591.9 1169.72 588.52 1168.85 585.5 1167.1L9.82 834.47C3.79 830.98 0.06 824.54 0.06 817.56L0.01 352.98C-0.07 350.08 0.49 347.12 1.77 344.31C3.18 341.22 5.31 338.66 7.87 336.76C8.28 336.46 200.62 225.36 584.92 3.47C589.79 0.42 595.92 -0.41 601.65 1.58L889.56 101.33C896.78 103.83 901.88 110.32 902.61 117.93C903.33 125.54 899.55 132.87 892.93 136.69L864.65 153.02L883.12 163.68L930.93 136.08C938.13 131.92 947.19 132.78 953.48 138.23L1183.81 337.69C1188.18 341.47 1190.63 346.97 1190.56 352.69ZM825.59 175.57L317.21 469.08C312.3 471.91 306.41 472.48 301.05 470.62L206.7 437.93L427.68 565.52L352.19 500.14C347.41 496.01 344.93 489.82 345.53 483.53C346.13 477.24 349.74 471.63 355.21 468.47L844.06 186.23L825.59 175.57ZM66.31 347.96L305.41 430.8L836.39 124.24L597.31 41.41L66.31 347.96ZM575.78 696.12L39.07 386.25L39.12 806.29L575.73 1116.35L575.78 696.12ZM1137.51 349.26L938.42 176.85L398.49 488.58L597.58 660.99L1137.51 349.26ZM1151.5 386.28L614.84 696.12L614.79 1116.37L1151.5 806.54L1151.5 386.28Z" />
	</g>
</svg>