<svg version="1.2" baseProfile="tiny-ps" xmlns="http://www.w3.org/2000/svg" width="1191" height="1170"><style/><g id="Capa 1"><path id="&lt;Compound Path&gt;" fill-rule="evenodd" d="M1190.56 352.69v465.12c0 6.98-3.72 13.42-9.77 16.91L605.03 1167.1a19.447 19.447 0 01-9.76 2.62c-3.37 0-6.75-.87-9.77-2.62L9.82 834.47a19.545 19.545 0 01-9.76-16.91L.01 352.98c-.08-2.9.48-5.86 1.76-8.67 1.41-3.09 3.54-5.65 6.1-7.55.41-.3 192.75-111.4 577.05-333.29 4.87-3.05 11-3.88 16.73-1.89l287.91 99.75c7.22 2.5 12.32 8.99 13.05 16.6.72 7.61-3.06 14.94-9.68 18.76l-28.28 16.33 18.47 10.66 47.81-27.6c7.2-4.16 16.26-3.3 22.55 2.15l230.33 199.46c4.37 3.78 6.82 9.28 6.75 15zM825.59 175.57L317.21 469.08c-4.91 2.83-10.8 3.4-16.16 1.54l-94.35-32.69 220.98 127.59-75.49-65.38a19.5 19.5 0 01-6.66-16.61c.6-6.29 4.21-11.9 9.68-15.06l488.85-282.24-18.47-10.66zM66.31 347.96l239.1 82.84 530.98-306.56-239.08-82.83-531 306.55zm509.47 348.16L39.07 386.25l.05 420.04 536.61 310.06.05-420.23zm561.73-346.86L938.42 176.85 398.49 488.58l199.09 172.41 539.93-311.73zm13.99 37.02L614.84 696.12l-.05 420.25 536.71-309.83V386.28z" fill="#000"/></g></svg>