<svg xmlns="http://www.w3.org/2000/svg" viewBox="0 0 30.08 30.08"><style>.st0{fill:#000}</style><path class="st0" d="M21.25 15.04c-.86 0-1.55.69-1.55 1.55 0 .86.69 1.55 1.55 1.55.86 0 1.56-.69 1.56-1.55 0-.86-.7-1.55-1.56-1.55m-6.21 0c-.86 0-1.56.69-1.56 1.55 0 .86.7 1.55 1.56 1.55.86 0 1.55-.69 1.55-1.55 0-.86-.69-1.55-1.55-1.55m0 6.21c-.86 0-1.56.7-1.56 1.56 0 .86.7 1.55 1.56 1.55.86 0 1.55-.69 1.55-1.55 0-.86-.69-1.56-1.55-1.56m-6.22 0c-.86 0-1.55.7-1.55 1.56 0 .86.69 1.55 1.55 1.55.86 0 1.55-.69 1.55-1.55 0-.86-.69-1.56-1.55-1.56m0-6.21c-.86 0-1.55.69-1.55 1.55 0 .86.69 1.55 1.55 1.55.86 0 1.55-.69 1.55-1.55 0-.86-.69-1.55-1.55-1.55"/><path class="st0" d="M2.1 5.21h25.87v4.11H2.1zm0 6.22h25.87v16.54H2.1zM29.03 3.1h-5.17V1.05c0-.58-.47-1.05-1.05-1.05-.58 0-1.06.47-1.06 1.05V3.1H8.32V1.05C8.32.47 7.85 0 7.27 0c-.58 0-1.06.47-1.06 1.05V3.1H1.05C.47 3.1 0 3.58 0 4.16v24.86c0 .59.47 1.06 1.05 1.06h27.98c.58 0 1.05-.47 1.05-1.06V4.16c0-.58-.47-1.06-1.05-1.06"/></svg>