<svg xmlns="http://www.w3.org/2000/svg" viewBox="0 0 30.08 30.08">
	<style type="text/css">
		.st0{fill:#000000;}
	</style>
	<path class="st0" d="M21.25,15.04C20.39,15.04 19.7,15.73 19.7,16.59C19.7,17.45 20.39,18.14 21.25,18.14C22.11,18.14 22.81,17.45 22.81,16.59C22.81,15.73 22.11,15.04 21.25,15.04M15.04,15.04C14.18,15.04 13.48,15.73 13.48,16.59C13.48,17.45 14.18,18.14 15.04,18.14C15.9,18.14 16.59,17.45 16.59,16.59C16.59,15.73 15.9,15.04 15.04,15.04M15.04,21.25C14.18,21.25 13.48,21.95 13.48,22.81C13.48,23.67 14.18,24.36 15.04,24.36C15.9,24.36 16.59,23.67 16.59,22.81C16.59,21.95 15.9,21.25 15.04,21.25M8.82,21.25C7.96,21.25 7.27,21.95 7.27,22.81C7.27,23.67 7.96,24.36 8.82,24.36C9.68,24.36 10.37,23.67 10.37,22.81C10.37,21.95 9.68,21.25 8.82,21.25M8.82,15.04C7.96,15.04 7.27,15.73 7.27,16.59C7.27,17.45 7.96,18.14 8.82,18.14C9.68,18.14 10.37,17.45 10.37,16.59C10.37,15.73 9.68,15.04 8.82,15.04"/>
	<path class="st0" d="M2.1 5.21L27.97 5.21L27.97 9.32L2.1 9.32ZM2.1 11.43L27.97 11.43L27.97 27.97L2.1 27.97ZM29.03,3.1L23.86,3.1L23.86,1.05C23.86,0.47 23.39,0 22.81,0C22.23,0 21.75,0.47 21.75,1.05L21.75,3.1L8.32,3.1L8.32,1.05C8.32,0.47 7.85,0 7.27,0C6.69,0 6.21,0.47 6.21,1.05L6.21,3.1L1.05,3.1C0.47,3.1 0,3.58 0,4.16L0,29.02C0,29.61 0.47,30.08 1.05,30.08L29.03,30.08C29.61,30.08 30.08,29.61 30.08,29.02L30.08,4.16C30.08,3.58 29.61,3.1 29.03,3.1"/>
</svg>