<svg version="1.2" baseProfile="tiny-ps" xmlns="http://www.w3.org/2000/svg" viewBox="0 0 104 91" width="104" height="91">
	<title>Page 1</title>
	<defs>
		<clipPath clipPathUnits="userSpaceOnUse" id="cp1">
			<path d="M0 0L104 0L104 91L0 91Z" />
		</clipPath>
	</defs>
	<style>
		tspan { white-space:pre }
		.shp0 { fill: #2c2e35 } 
	</style>
	<g id="Page 1" clip-path="url(#cp1)">
		<path id="Path 1" fill-rule="evenodd" class="shp0" d="M61.99 -0.04C63.4 -0.04 64.48 0.39 65.45 1.36C66.31 2.22 66.74 3.3 66.74 4.71L66.74 13.35L80.78 13.35C82.19 13.35 83.48 14 84.56 15.29L103.36 40.46C104 41.21 104.33 42.08 104.33 43.26L104.33 74.37C104.33 76.96 102.17 79.12 99.58 79.12L92.23 79.12C91.8 82.14 90.5 84.74 88.34 86.9C85.64 89.6 82.3 91 78.52 91C74.74 91 71.39 89.6 68.69 86.9C66.64 84.84 65.23 82.25 64.69 79.12L51.84 79.12C51.41 82.14 50.11 84.74 47.95 86.9C45.25 89.6 41.9 91 38.12 91C34.34 91 31 89.6 28.3 86.9C26.14 84.74 24.84 82.14 24.41 79.12L17.06 79.12C14.36 79.12 12.31 76.96 12.31 74.37L12.31 57.63L4.75 57.63C2.16 57.63 0 55.47 0 52.88L0 4.71C0 2.12 2.16 -0.04 4.75 -0.04L61.99 -0.04ZM61.67 5.03L5.08 5.03L5.08 52.44L61.67 52.44L61.67 5.03ZM66.74 18.53L66.74 52.88C66.74 54.28 66.31 55.36 65.45 56.22C64.48 57.2 63.4 57.63 61.99 57.63L17.39 57.63L17.39 73.94L24.52 73.94C25.16 71.24 26.46 68.86 28.51 67.02C31.21 64.54 34.45 63.24 38.23 63.24C41.9 63.24 45.04 64.54 47.74 67.02C49.79 68.86 51.08 71.24 51.73 73.94L64.91 73.94C65.56 71.24 66.85 68.86 68.9 67.02C74.41 61.95 82.62 61.95 88.13 67.02C90.18 68.97 91.48 71.24 92.02 73.94L99.25 73.94L99.25 46.94L81.32 46.94C78.62 46.94 76.36 44.67 76.36 41.97L76.36 18.53L66.74 18.53ZM97.96 41.75L81.54 19.83L81.54 41.75L97.96 41.75ZM44.28 83.22C47.84 79.77 47.74 74.15 44.17 70.7C40.82 67.56 35.42 67.56 32.08 70.7C28.51 74.15 28.4 79.77 31.97 83.22C35.32 86.68 40.93 86.68 44.28 83.22ZM72.47 70.7C68.9 74.15 68.8 79.77 72.25 83.22C75.71 86.68 81.32 86.68 84.67 83.22C88.13 79.77 88.13 74.15 84.56 70.7C81.22 67.56 75.82 67.56 72.47 70.7Z" />
	</g>
</svg>