<svg xmlns="http://www.w3.org/2000/svg" viewBox="0 0 306.65 213.53"><path d="M244.85 196.03H61.79L22.96 68.28l57.46 27.98c1.2.58 2.49.88 3.83.88 2.54 0 4.95-1.1 6.61-3.02l62.46-72.01 62.46 72.01a8.768 8.768 0 006.62 3.02c1.33 0 2.62-.3 3.82-.88l57.47-27.98zm58.73-151.06c-2.6-2.22-6.44-2.71-9.52-1.21L224.6 77.58 159.93 3.01A8.756 8.756 0 00153.32 0c-2.54 0-4.95 1.1-6.61 3.01L82.04 77.58 12.58 43.76a8.634 8.634 0 00-3.83-.88c-2.08 0-4.1.74-5.68 2.09a8.77 8.77 0 00-2.7 9.2l46.56 153.16c1.13 3.71 4.49 6.2 8.38 6.2h196.03c3.88 0 7.24-2.49 8.37-6.2l46.56-153.15a8.776 8.776 0 00-2.69-9.21"/></svg>