<svg version="1.2" baseProfile="tiny-ps" xmlns="http://www.w3.org/2000/svg" width="1185" height="1186"><style/><g id="Capa 1"><path id="&lt;Compound Path&gt;" fill-rule="evenodd" d="M1180.31 818.87c2.73 2.74 4.24 6.37 4.24 10.24 0 3.86-1.51 7.5-4.24 10.23l-48.7 48.7 48.7 48.7c2.73 2.73 4.24 6.37 4.24 10.23 0 3.87-1.51 7.5-4.24 10.24l-48.7 48.69 48.7 48.7c2.73 2.73 4.24 6.37 4.24 10.24 0 3.86-1.51 7.5-4.24 10.23l-106.08 106.08a14.372 14.372 0 01-10.23 4.24c-3.87 0-7.5-1.51-10.23-4.24l-48.7-48.7-48.7 48.7a14.389 14.389 0 01-10.23 4.24c-3.87 0-7.51-1.51-10.24-4.24l-48.7-48.7-48.69 48.7a14.412 14.412 0 01-10.24 4.24c-3.86 0-7.5-1.51-10.23-4.24l-48.7-48.7-48.7 48.7a14.372 14.372 0 01-10.23 4.24c-3.87 0-7.5-1.51-10.23-4.24l-48.7-48.7-48.7 48.7a14.389 14.389 0 01-10.23 4.24c-3.87 0-7.5-1.51-10.24-4.24l-48.69-48.7-48.7 48.7c-2.74 2.73-6.37 4.24-10.23 4.24-3.87 0-7.5-1.51-10.24-4.24l-106.08-106.08a14.389 14.389 0 01-4.24-10.23c0-3.87 1.51-7.5 4.24-10.24l48.7-48.7-38.5-38.5-48.7 48.7a14.389 14.389 0 01-10.23 4.24c-3.87 0-7.5-1.51-10.24-4.24L190.63 907.32a14.33 14.33 0 01-4.24-10.23c0-3.87 1.5-7.5 4.24-10.24l48.69-48.69-59.84-59.85-48.7 48.7a14.372 14.372 0 01-10.23 4.24c-3.87 0-7.5-1.51-10.23-4.24L4.24 720.93A14.372 14.372 0 010 710.7c0-3.87 1.51-7.5 4.24-10.24l48.7-48.69-48.7-48.7A14.389 14.389 0 010 592.84c0-3.87 1.51-7.5 4.24-10.24l48.7-48.7-48.7-48.69A14.412 14.412 0 010 474.97c0-3.86 1.51-7.5 4.24-10.23l48.7-48.7-48.7-48.7A14.389 14.389 0 010 357.11c0-3.87 1.51-7.5 4.24-10.24l48.7-48.69-48.7-48.7A14.389 14.389 0 010 239.25c0-3.87 1.51-7.51 4.24-10.24l48.7-48.7-48.7-48.7A14.372 14.372 0 010 121.38c0-3.86 1.51-7.5 4.24-10.23L110.32 5.07A14.33 14.33 0 01120.55.83c3.87 0 7.5 1.5 10.24 4.24l48.69 48.7 48.7-48.7c2.73-2.74 6.37-4.24 10.24-4.24 3.86 0 7.5 1.5 10.23 4.24l48.7 48.7 48.7-48.7A14.33 14.33 0 01356.28.83c3.87 0 7.5 1.5 10.23 4.24l48.7 48.7 48.7-48.7c2.73-2.74 6.37-4.24 10.23-4.24 3.81 0 7.54 1.54 10.23 4.24l48.7 48.7 48.7-48.7C584.5 2.33 588.14.83 592 .83c3.87 0 7.51 1.5 10.24 4.24l48.7 48.7 48.69-48.7A14.37 14.37 0 01709.87.83c3.87 0 7.5 1.5 10.24 4.24l106.08 106.08a14.38 14.38 0 014.23 10.23c0 3.87-1.5 7.5-4.23 10.24l-48.7 48.7 59.84 59.84 48.7-48.7c2.73-2.73 6.36-4.24 10.23-4.24s7.5 1.51 10.24 4.24l108.9 108.9c5.64 5.64 5.64 14.82 0 20.47l-48.56 48.56 38.37 38.38 48.57-48.56a14.33 14.33 0 0110.23-4.24c3.86 0 7.5 1.5 10.23 4.24l106.08 106.08c2.73 2.73 4.24 6.36 4.24 10.23s-1.51 7.5-4.24 10.23l-48.7 48.7 48.7 48.7c2.73 2.73 4.24 6.37 4.24 10.23 0 3.87-1.5 7.5-4.24 10.24l-48.7 48.7 48.7 48.69a14.37 14.37 0 014.24 10.24c0 3.86-1.5 7.5-4.24 10.23l-48.7 48.7 48.69 48.69zM857.93 260.49l88.44 88.43 38.32-38.33-88.43-88.43-38.33 38.33zm-117.89.03L887.32 407.8l38.49-38.49-96.84-96.85-.32-.28c-.64-.47-1.13-.89-1.56-1.32l-48.69-48.7-38.36 38.36zM200.86 758.75l38.47-38.46-48.7-48.7a14.372 14.372 0 01-4.24-10.23c0-3.87 1.51-7.5 4.24-10.24l48.7-48.69-48.7-48.7a14.389 14.389 0 01-4.24-10.23c0-3.87 1.51-7.5 4.24-10.24l48.7-48.69-48.7-48.7a14.412 14.412 0 01-4.24-10.24c0-3.86 1.51-7.5 4.24-10.23l48.7-48.7-48.7-48.7a14.372 14.372 0 01-4.24-10.23c0-3.86 1.51-7.5 4.24-10.23l106.08-106.08a14.33 14.33 0 0110.23-4.24c3.86 0 7.5 1.5 10.24 4.24l48.69 48.7 48.7-48.7c2.73-2.74 6.37-4.24 10.23-4.24 3.87 0 7.51 1.5 10.24 4.24l48.7 48.7 48.69-48.7a14.37 14.37 0 0110.24-4.24c3.81 0 7.54 1.54 10.23 4.24l48.7 48.7 48.7-48.7a14.33 14.33 0 0110.23-4.24c3.81 0 7.54 1.54 10.23 4.24l48.7 48.7 38.46-38.47-11.14-11.14a14.37 14.37 0 01-4.24-10.24c0-3.86 1.5-7.5 4.24-10.23l48.69-48.7-85.6-85.61-48.7 48.7a14.347 14.347 0 01-10.23 4.24c-3.87 0-7.51-1.5-10.24-4.24L592 35.77l-48.69 48.7a14.37 14.37 0 01-10.24 4.24c-3.86 0-7.5-1.5-10.23-4.24l-48.7-48.7-48.7 48.7c-2.69 2.7-6.42 4.24-10.23 4.24-3.87 0-7.5-1.5-10.23-4.24l-48.7-48.7-48.7 48.7a14.347 14.347 0 01-10.23 4.24c-3.87 0-7.5-1.5-10.24-4.24l-48.69-48.7-48.7 48.7a14.37 14.37 0 01-10.24 4.24c-3.86 0-7.5-1.5-10.23-4.24l-48.7-48.7-85.61 85.61 48.7 48.7c2.73 2.73 4.24 6.37 4.24 10.23 0 3.87-1.51 7.51-4.24 10.24l-48.7 48.7 48.7 48.7c2.73 2.73 4.24 6.36 4.24 10.23 0 3.86-1.51 7.5-4.24 10.23l-48.7 48.7 48.7 48.7c2.73 2.73 4.24 6.36 4.24 10.23s-1.51 7.5-4.24 10.24l-48.7 48.69 48.7 48.7c2.73 2.73 4.24 6.37 4.24 10.23 0 3.87-1.51 7.5-4.24 10.24l-48.7 48.7 48.7 48.69c2.73 2.74 4.24 6.37 4.24 10.24 0 3.86-1.51 7.5-4.24 10.23l-48.7 48.7 85.61 85.61 48.7-48.7c2.73-2.73 6.37-4.24 10.23-4.24 3.87 0 7.51 1.51 10.24 4.24l11.14 11.14zm158.2-36.58l-.22-.19c-.17-.15-.34-.29-.5-.45l-98.59-98.59-38.42 38.42 47.06 47.06.28.24c.47.37.93.76 1.36 1.19l98.69 98.69 38.35-38.36-48.01-48.01zm9.67-149.37l38.35-38.35-147.3-147.26-38.45 38.44 46.94 46.94.29.25c.61.47 1.07.88 1.47 1.27l98.7 98.71zm-.13-117.73l32.58-32.59L253.9 275.2l-32.57 32.57 147.27 147.3zm53.05-53.06l32.57-32.58-147.28-147.27-32.57 32.57 147.28 147.28zm111.98 5.89l38.49-38.5-97.91-97.9-.2-.18c-.17-.15-.34-.3-.51-.46l-48.7-48.7-38.45 38.46L533.63 407.9zm117.9-.03l38.49-38.5-97.28-97.28-.24-.21c-.39-.32-.77-.66-1.13-1.02l-48.7-48.7-38.43 38.42 147.29 147.29zm117.89-.04l38.5-38.49-97.07-97.07-.27-.24c-.46-.36-.92-.74-1.35-1.17l-48.7-48.7-38.39 38.39 147.28 147.28zM368.57 690.82l38.51-38.51-48.7-48.69c-.4-.41-.8-.87-1.26-1.47l-97.2-97.24-38.59 38.59 48.7 48.69c.17.17.33.35.48.53l98.06 98.1zm-20.51 256.16l-88.31-88.31-38.42 38.42 88.31 88.31 38.42-38.42zm20.51-20.42l38.51-38.52-48.7-48.69c-.38-.39-.76-.82-1.18-1.37l-97.3-97.32-38.57 38.56 48.71 48.71c.25.25.47.52.75.84l97.78 97.79zm781.05-97.45l-48.7-48.7a14.389 14.389 0 01-4.24-10.23c0-3.87 1.51-7.5 4.24-10.23l48.7-48.7-48.7-48.7a14.389 14.389 0 01-4.24-10.23c0-3.87 1.51-7.5 4.24-10.24l48.7-48.7-48.7-48.7a14.372 14.372 0 01-4.24-10.23c0-3.86 1.51-7.5 4.24-10.23l48.7-48.7-85.61-85.61-48.7 48.7a14.372 14.372 0 01-10.23 4.24c-3.87 0-7.5-1.51-10.24-4.24l-48.69-48.7-48.7 48.7a14.395 14.395 0 01-10.24 4.24c-3.86 0-7.5-1.51-10.23-4.24l-48.7-48.7-48.7 48.7a14.372 14.372 0 01-10.23 4.24c-3.87 0-7.5-1.51-10.23-4.24l-48.7-48.7-48.7 48.7a14.372 14.372 0 01-10.23 4.24c-3.87 0-7.5-1.51-10.24-4.24l-48.69-48.7-48.7 48.7a14.395 14.395 0 01-10.24 4.24c-3.86 0-7.5-1.51-10.23-4.24l-48.7-48.7-85.6 85.61 48.69 48.7a14.33 14.33 0 014.24 10.23c0 3.87-1.5 7.5-4.24 10.24l-48.69 48.69 48.69 48.7c2.74 2.73 4.24 6.37 4.24 10.23 0 3.87-1.5 7.5-4.24 10.24l-48.69 48.7 48.69 48.7a14.33 14.33 0 014.24 10.23c0 3.86-1.5 7.5-4.24 10.23l-48.69 48.7 48.69 48.7a14.33 14.33 0 014.24 10.23c0 3.87-1.5 7.5-4.24 10.24l-48.69 48.69 48.69 48.7c2.74 2.73 4.24 6.37 4.24 10.23 0 3.87-1.5 7.5-4.24 10.24l-48.69 48.7 85.6 85.61 48.7-48.7c2.73-2.74 6.37-4.24 10.24-4.24 3.86 0 7.5 1.5 10.23 4.24l48.7 48.7 48.69-48.7a14.37 14.37 0 0110.24-4.24c3.86 0 7.5 1.5 10.23 4.24l48.7 48.7 48.7-48.7a14.33 14.33 0 0110.23-4.24c3.87 0 7.5 1.5 10.24 4.24l48.69 48.7 48.7-48.7c2.73-2.74 6.37-4.24 10.23-4.24 3.87 0 7.5 1.5 10.24 4.24l48.7 48.7 48.69-48.7a14.37 14.37 0 0110.24-4.24c3.86 0 7.5 1.5 10.23 4.24l48.7 48.7 85.61-85.61-48.7-48.7a14.412 14.412 0 01-4.24-10.24c0-3.86 1.51-7.5 4.24-10.23l48.7-48.7-48.7-48.69a14.412 14.412 0 01-4.24-10.24c0-3.86 1.51-7.5 4.24-10.23l48.7-48.7z" fill="#000"/></g></svg>