<svg xmlns="http://www.w3.org/2000/svg" viewBox="0 0 84.89 92.95"><path d="M63.92 31.87c0 12.33-9.63 22.36-21.48 22.36-11.84 0-21.47-10.03-21.47-22.36V17.85h27.97v-5.33H20.97V5.34h42.95zM28.96 80.43h26.97v7.16H28.96zm55.93-56.9V4.17H75.9v5.34h4v14.02c0 7.25-3.33 12.05-9.39 13.5l-2.11.5.27-2.14c.17-1.34.24-2.46.24-3.52V0H15.98v31.87c0 1.09.08 2.21.24 3.52l.26 2.15-2.1-.5c-6.06-1.46-9.4-6.25-9.4-13.51V9.52h4V4.17H0v19.36c0 11.32 6.6 18.69 17.24 19.24l.91.05.38.83c3.82 8.45 11.35 14.28 20.14 15.6l1.28.19v15.64H23.97v12.51h-4v5.36h44.94v-5.36h-3.99V75.08H44.94V59.44l1.28-.19c8.79-1.32 16.32-7.15 20.14-15.6l.38-.83.91-.05c10.64-.55 17.24-7.92 17.24-19.24"/></svg>