<svg xmlns="http://www.w3.org/2000/svg" viewBox="0 0 60.35 48.53"><path d="M45.35 23.82c.29-2.41.53-4.92.73-7.44l.04-.49h2.91c2.06 0 3.46 1.9 3.46 4.25s-1.88 4.28-3.94 4.28h-3.27l.07-.6zm1.88-15.54h-1.22L46 8.04c-.06-1.78-.19-3.54-.38-5.25l-.14-1.3H2.05l-.14 1.3c-.28 2.48-.41 5.04-.41 7.58 0 7.35.87 14.27 2.53 20.02.86 2.98 6.06 14.57 7.77 16.23l.42.41h23.09l.43-.41c1.71-1.66 6.58-12.45 7.37-14.93l.05-.17h4.07c6.41 0 11.62-5.21 11.62-11.62 0-6.41-5.21-11.62-11.62-11.62z" stroke="#000" fill="none" stroke-width="3"/></svg>