<svg version="1.2" baseProfile="tiny-ps" xmlns="http://www.w3.org/2000/svg" width="1200" height="1344"><style>.shp0{fill:#000}</style><g id="Outline"><path id="&lt;Compound Path&gt;" fill-rule="evenodd" class="shp0" d="M984 1152H288c-11.32 0-21.1-7.91-23.47-18.97l-72-336c-.02-.11-.04-.22-.06-.32-2.6-13 5.83-25.65 18.82-28.24C215.17 767.6 312 744.16 312 576c0-184.5-93-396.14-93.93-398.26-5.2-11.73-.27-25.47 11.2-31.21l288-144c11.12-5.56 24.65-1.7 31.17 8.89C601 96.83 693.36 207.55 834.9 250.01c83.51 25.06 144.2 14.48 144.81 14.38 1.41-.26 2.85-.39 4.29-.39 13.25 0 24 10.74 24 24v840c0 13.25-10.75 24-24 24zM816 294.4c-82.56-25.84-198-88.42-296.65-239.24L270.83 179.42C295.13 239.25 360 414.19 360 576c0 59.28-11.63 141.57-67.03 196.97a169.364 169.364 0 01-49.1 34.54L307.4 1104H816V816h-24c-13.26 0-24-10.75-24-24s10.74-24 24-24h24V294.4zm144 19.93c-32.19 1.2-64.42-1.38-96-7.71V1104h96V314.33z"/><path id="&lt;Path&gt;" class="shp0" d="M456 456h-48c-13.26 0-24 10.74-24 24s10.74 24 24 24h48c13.25 0 24-10.74 24-24s-10.75-24-24-24zm-48 312h-48c-13.26 0-24 10.75-24 24s10.74 24 24 24h48c13.25 0 24-10.75 24-24s-10.75-24-24-24zm144 0h-48c-13.26 0-24 10.75-24 24s10.74 24 24 24h48c13.25 0 24-10.75 24-24s-10.75-24-24-24zm96 48h48c13.25 0 24-10.75 24-24s-10.75-24-24-24h-48c-13.26 0-24 10.75-24 24s10.74 24 24 24zm-96-360c-13.26 0-24 10.74-24 24s10.74 24 24 24h48c13.25 0 24-10.74 24-24s-10.75-24-24-24h-48zm144 48h48c13.25 0 24-10.74 24-24s-10.75-24-24-24h-48c-13.26 0-24 10.74-24 24s10.74 24 24 24zM24 1104c-13.26 0-24 10.75-24 24s10.74 24 24 24h96c13.25 0 24-10.75 24-24s-10.75-24-24-24H96V816h24c13.25 0 24-10.75 24-24s-10.75-24-24-24H24c-13.26 0-24 10.75-24 24s10.74 24 24 24h24v288H24zM816 48c-13.26 0-24 10.74-24 24v96c0 13.26 10.74 24 24 24 13.25 0 24-10.74 24-24v-24h96v24c0 13.26 10.74 24 24 24 13.25 0 24-10.74 24-24V72c0-13.26-10.75-24-24-24-13.26 0-24 10.74-24 24v24h-96V72c0-13.26-10.75-24-24-24zm144 1296c13.25 0 24-10.75 24-24v-96c0-13.25-10.75-24-24-24-13.26 0-24 10.75-24 24v24H312v-24c0-13.25-10.75-24-24-24-13.26 0-24 10.75-24 24v96c0 13.25 10.74 24 24 24 13.25 0 24-10.75 24-24v-24h624v24c0 13.25 10.74 24 24 24zm216-1032c13.25 0 24-10.74 24-24s-10.75-24-24-24h-96c-13.26 0-24 10.74-24 24s10.74 24 24 24h24v792h-24c-13.26 0-24 10.75-24 24s10.74 24 24 24h96c13.25 0 24-10.75 24-24s-10.75-24-24-24h-24V312h24z"/></g></svg>