<svg xmlns="http://www.w3.org/2000/svg" width="55.791" height="48.687" viewBox="271.968 327.513 55.791 48.687"><path d="M305.118 327.513c.752 0 1.328.231 1.85.751.461.462.691 1.04.691 1.79v4.621h7.51c.75 0 1.443.347 2.02 1.04l10.051 13.457c.346.404.52.866.52 1.501v16.633c0 1.386-1.156 2.541-2.541 2.541h-3.928a7.156 7.156 0 01-2.08 4.158c-1.443 1.444-3.234 2.195-5.254 2.195-2.021 0-3.812-.75-5.256-2.195-1.098-1.097-1.85-2.483-2.137-4.158h-6.873a7.168 7.168 0 01-2.08 4.158c-1.443 1.444-3.234 2.195-5.256 2.195s-3.812-.75-5.256-2.195a7.166 7.166 0 01-2.078-4.158h-3.928a2.527 2.527 0 01-2.542-2.541v-8.952h-4.042c-1.386 0-2.542-1.155-2.542-2.541v-25.759a2.564 2.564 0 012.542-2.541h30.609zm-.171 2.715h-30.264v25.354h30.264v-25.354zm2.712 7.219v18.366c0 .751-.23 1.328-.691 1.791-.521.52-1.098.75-1.85.75h-23.852v8.721h3.812c.348-1.444 1.04-2.714 2.137-3.696 1.444-1.329 3.178-2.021 5.199-2.021 1.963 0 3.638.693 5.082 2.021 1.097.982 1.791 2.252 2.136 3.696h7.047c.346-1.444 1.039-2.714 2.137-3.696 2.945-2.714 7.334-2.714 10.279 0 1.098 1.04 1.791 2.252 2.08 3.696h3.869v-14.439h-9.588c-1.443 0-2.656-1.212-2.656-2.656v-12.533h-5.141zm-12.012 34.595c1.906-1.848 1.849-4.852-.058-6.7-1.791-1.675-4.678-1.675-6.469 0-1.906 1.848-1.963 4.852-.058 6.7 1.791 1.848 4.795 1.848 6.585 0zm15.075-6.7c-1.906 1.848-1.965 4.852-.117 6.7 1.85 1.848 4.852 1.848 6.643 0a4.69 4.69 0 00-.059-6.7c-1.789-1.675-4.678-1.675-6.467 0zm13.629-15.478l-8.779-11.724v11.724h8.779z"/></svg>