<svg xmlns="http://www.w3.org/2000/svg" viewBox="0 0 52 53"><path d="M11.89 3.1h28.35c2.81 0 5.22.98 7.22 2.95 2 2 3 4.41 3 7.22v17.32c0 2.81-1 5.22-3 7.22s-4.41 3-7.22 3h-16l-10.4 9.64c-.85.73-1.79.9-2.83.52-1.08-.46-1.62-1.27-1.62-2.43v-8.08c-2.23-.54-4.07-1.73-5.52-3.58-1.44-1.85-2.17-3.95-2.17-6.29V13.26c0-2.81 1-5.22 3-7.22C6.69 4.08 9.08 3.1 11.89 3.1zm28.36 2.71H11.89c-2 0-3.73.73-5.2 2.19-1.46 1.47-2.19 3.22-2.19 5.26v17.32c0 2.23.69 4.01 2.08 5.34 1.39 1.33 3.25 2.13 5.6 2.4v9.99l11.03-10.28h17.04c2.04 0 3.79-.73 5.26-2.19 1.46-1.46 2.19-3.21 2.19-5.26V13.26c0-2.04-.73-3.79-2.19-5.26-1.47-1.45-3.22-2.19-5.26-2.19zm-1.62 9.47H13.51c-.5 0-.75-.25-.75-.75v-1.21c0-.5.25-.75.75-.75h25.12c.5 0 .75.25.75.75v1.21c0 .5-.25.75-.75.75zm0 8.49H13.51c-.5 0-.75-.25-.75-.75v-1.27c0-.5.25-.75.75-.75h25.12c.5 0 .75.25.75.75v1.27c0 .5-.25.75-.75.75zm-8.55 8.38H13.51c-.5 0-.75-.25-.75-.75v-1.21c0-.5.25-.75.75-.75h16.57c.5 0 .75.25.75.75v1.21c0 .5-.25.75-.75.75z"/></svg>