<svg version="1.2" baseProfile="tiny-ps" xmlns="http://www.w3.org/2000/svg" width="1344" height="1271"><style>.shp0{fill:#000}</style><g id="Layer 2"><g id="&lt;Group&gt;"><path id="&lt;Path&gt;" class="shp0" d="M1312 1271H96c-17.66 0-32-14.33-32-32 0-17.66 14.34-32 32-32h1216c17.66 0 32 14.34 32 32 0 17.67-14.34 32-32 32z"/></g><g id="&lt;Group&gt;"><path id="&lt;Compound Path&gt;" fill-rule="evenodd" class="shp0" d="M522.05 1142.94c-41.03 0-81.99-15.62-113.22-46.79L46.85 734.11c-62.4-62.41-62.4-163.91 0-226.31L544.64 10.01c12.48-12.48 32.77-12.48 45.25 0l543.04 543.04c6.01 6.01 9.34 14.14 9.34 22.65 0 8.52-3.39 16.64-9.34 22.66l-497.8 497.79c-31.1 31.17-72.12 46.79-113.08 46.79zm-67.91-92.04c37.44 37.32 98.24 37.45 135.81 0l475.2-475.13L567.29 77.91 92.1 553.05c-37.44 37.44-37.44 98.37 0 135.81l362.04 362.04z"/></g><g id="&lt;Group&gt;"><path id="&lt;Compound Path&gt;" fill-rule="evenodd" class="shp0" d="M1184 1143c-88.26 0-160-71.81-160-160 0-76.8 111.36-241.86 133.69-274.18 11.91-17.34 40.77-17.34 52.61 0C1232.64 741.14 1344 906.2 1344 983c0 88.19-71.75 160-160 160zm0-358.14c-46.08 72-96 163.19-96 198.14 0 52.93 43.07 96 96 96s96-43.07 96-96c0-35.01-49.92-126.21-96-198.14z"/></g><g id="&lt;Group&gt;"><path id="&lt;Path&gt;" class="shp0" d="M1087.36 631H34.56c-17.67 0-32-14.34-32-32s14.33-32 32-32h1052.8c17.66 0 32 14.34 32 32s-14.27 32-32 32z"/></g></g></svg>