<svg xmlns="http://www.w3.org/2000/svg" viewBox="0 0 46.96 46.97"><style>.st1{stroke:#000;fill:none;stroke-width:.5}.st0{fill:#000}</style><path class="st0" d="M43.85 13.59l-.05.05-10.5-10.5.05-.05 1.05-1.05 10.5 10.5zM29.44 6.97l2.78-2.78 10.5 10.5-2.74 2.82zM10.56 43.63L3.33 36.4a5.407 5.407 0 01-1.58-3.81c0-1.43.57-2.8 1.58-3.81L26.21 5.89l1.11 1.08.53.54.53.53 10.5 10.5.54.53.53.53 1.11 1.11-22.88 22.92a5.415 5.415 0 01-3.81 1.57c-1.43 0-2.8-.56-3.81-1.57M34.92.46a.757.757 0 00-.53-.21c-.2 0-.39.07-.53.21l-2.13 2.11-3.37 3.37-1.64-1.64a.75.75 0 00-1.06 0L2.27 27.72a7.01 7.01 0 00-1.5 2.23c-.35.84-.53 1.74-.53 2.64 0 .91.18 1.81.53 2.64.35.84.86 1.6 1.5 2.24L9.5 44.7c.64.64 1.4 1.15 2.23 1.5.84.34 1.74.52 2.64.52.91 0 1.81-.18 2.64-.52.84-.35 1.6-.86 2.24-1.5l23.4-23.42a.75.75 0 000-1.06l-1.64-1.64 3.31-3.32.05-.05 2.12-2.12a.75.75 0 00.22-.53c0-.19-.08-.38-.22-.52z"/><path class="st1" d="M43.85 13.59l-.05.05-10.5-10.5.05-.05 1.05-1.05 10.5 10.5-1.05 1.05zM29.44 6.97l2.78-2.78 10.5 10.5-2.74 2.82L29.44 6.97zM10.56 43.63L3.33 36.4a5.407 5.407 0 01-1.58-3.81c0-1.43.57-2.8 1.58-3.81L26.21 5.89l1.11 1.08.53.54.53.53 10.5 10.5.54.53.53.53 1.11 1.11-22.88 22.92a5.415 5.415 0 01-3.81 1.57c-1.43 0-2.8-.56-3.81-1.57zM34.92.46a.757.757 0 00-.53-.21c-.2 0-.39.07-.53.21l-2.13 2.11-3.37 3.37-1.64-1.64a.75.75 0 00-1.06 0L2.27 27.72a7.01 7.01 0 00-1.5 2.23c-.35.84-.53 1.74-.53 2.64 0 .91.18 1.81.53 2.64.35.84.86 1.6 1.5 2.24L9.5 44.7c.64.64 1.4 1.15 2.23 1.5.84.34 1.74.52 2.64.52.91 0 1.81-.18 2.64-.52.84-.35 1.6-.86 2.24-1.5l23.4-23.42a.75.75 0 000-1.06l-1.64-1.64 3.31-3.32.05-.05 2.12-2.12a.75.75 0 00.22-.53c0-.19-.08-.38-.22-.52L34.92.46z"/><path class="st0" d="M11.48 36.94c-.35-.11-.66-.29-.92-.55-.43-.45-.67-1.04-.68-1.67 0-.15.02-.29.05-.44.07-.35.22-.69.44-.97.22-.29.51-.52.84-.67.32-.16.68-.24 1.04-.23.36.01.72.1 1.04.27.32.17.59.42.8.71.21.3.35.64.4.99.05.36.02.73-.09 1.07-.11.35-.3.66-.56.92-.33.32-.76.54-1.21.61-.38.08-.78.06-1.15-.04M9.5 32.05c-.5.53-.86 1.17-1.02 1.88a3.72 3.72 0 00-.02 1.66c.11.55.35 1.06.69 1.51.35.44.79.8 1.29 1.05.5.26 1.05.39 1.61.4h.15c.28 0 .55-.03.82-.09.58-.13 1.13-.39 1.59-.76.46-.38.83-.85 1.07-1.39a3.8 3.8 0 00.34-1.73 3.73 3.73 0 00-.47-1.69 3.75 3.75 0 00-1.17-1.3 3.84 3.84 0 00-3.39-.48c-.56.19-1.07.51-1.49.93z"/><path class="st1" d="M11.48 36.94c-.35-.11-.66-.29-.92-.55-.43-.45-.67-1.04-.68-1.67 0-.15.02-.29.05-.44.07-.35.22-.69.44-.97.22-.29.51-.52.84-.67.32-.16.68-.24 1.04-.23.36.01.72.1 1.04.27.32.17.59.42.8.71.21.3.35.64.4.99.05.36.02.73-.09 1.07-.11.35-.3.66-.56.92-.33.32-.76.54-1.21.61-.38.08-.78.06-1.15-.04zM9.5 32.05c-.5.53-.86 1.17-1.02 1.88a3.72 3.72 0 00-.02 1.66c.11.55.35 1.06.69 1.51.35.44.79.8 1.29 1.05.5.26 1.05.39 1.61.4h.15c.28 0 .55-.03.82-.09.58-.13 1.13-.39 1.59-.76.46-.38.83-.85 1.07-1.39a3.8 3.8 0 00.34-1.73 3.73 3.73 0 00-.47-1.69 3.75 3.75 0 00-1.17-1.3 3.84 3.84 0 00-3.39-.48c-.56.19-1.07.51-1.49.93v.01z"/></svg>