<svg xmlns="http://www.w3.org/2000/svg" width="51.344" height="51.344" viewBox="271.968 327.513 51.344 51.344"><path d="M303.501 333.924c.982.289 2.195.75 3.582 1.444l3.639-2.368c1.039-.635 2.021-.578 3.002.173a25.238 25.238 0 013.928 3.927c.751.982.809 1.964.115 2.946l-2.367 3.696c.52.866.981 2.079 1.502 3.523l4.273.924c1.213.289 1.848 1.04 1.963 2.252a21.808 21.808 0 010 5.487c-.057 1.097-.865 2.021-1.963 2.252l-4.273.924c-.463 1.329-.982 2.542-1.502 3.523l2.367 3.696c.693.981.636 1.963-.115 2.945a25.151 25.151 0 01-3.928 3.927c-.981.751-1.963.809-3.002.116l-3.639-2.368a18.497 18.497 0 01-3.582 1.501l-.865 4.274c-.231 1.098-1.155 1.906-2.253 1.964a21.808 21.808 0 01-5.487 0c-1.212-.116-1.963-.751-2.252-1.964l-.924-4.274c-1.444-.52-2.657-.981-3.523-1.501l-3.696 2.368c-.982.693-1.964.635-2.946-.116a25.231 25.231 0 01-3.927-3.927c-.75-.924-.809-1.906-.173-2.945l2.368-3.696a19.852 19.852 0 01-1.444-3.523l-4.274-.924c-1.097-.231-1.79-1.155-1.963-2.252a21.808 21.808 0 010-5.487c.115-1.271.75-2.021 1.963-2.252l4.274-.924c.289-1.155.809-2.311 1.444-3.523l-2.368-3.696c-.636-1.04-.578-2.021.173-2.946a25.231 25.231 0 013.927-3.927c.924-.751 1.906-.809 2.946-.173l3.696 2.368c1.213-.635 2.368-1.155 3.523-1.444l.924-4.274c.231-1.213.982-1.848 2.252-1.964a21.808 21.808 0 015.487 0c1.098.173 2.021.867 2.253 1.964l.865 4.274zm-2.656.693l-.866-4.216a21.147 21.147 0 00-4.678 0l-.924 4.216c-.173.982-.751 1.617-1.733 1.906a22.463 22.463 0 00-3.234 1.329c-.866.462-1.733.462-2.599-.058l-3.639-2.368a22.177 22.177 0 00-3.292 3.292l2.311 3.639c.577.809.635 1.675.115 2.599a22.345 22.345 0 00-1.328 3.234c-.289.982-.924 1.56-1.906 1.733l-4.216.924a21.147 21.147 0 000 4.678l4.216.866c1.906.462 2.08 2.657 3.234 5.025.52.866.462 1.732-.115 2.599l-2.311 3.639a22.177 22.177 0 003.292 3.292l3.639-2.368c.866-.52 1.733-.52 2.599-.058 1.04.52 2.137.982 3.234 1.329.982.289 1.56.924 1.733 1.906l.924 4.216c1.56.173 3.119.173 4.678 0l.866-4.216c.463-1.906 2.656-2.079 5.025-3.234.865-.462 1.732-.462 2.599.058l3.638 2.368a22.184 22.184 0 003.293-3.292l-2.368-3.639c-.521-.866-.521-1.732-.058-2.599.635-1.213 1.039-2.252 1.328-3.234s.924-1.56 1.906-1.791l4.216-.866c.173-1.56.173-3.119 0-4.678l-4.216-.924c-.982-.173-1.617-.751-1.906-1.733a22.573 22.573 0 00-1.328-3.234c-.463-.866-.463-1.732.058-2.599l2.368-3.639a22.184 22.184 0 00-3.293-3.292l-3.638 2.368c-.866.52-1.733.52-2.599.058-1.098-.52-2.195-.982-3.234-1.329-.982-.29-1.56-.925-1.791-1.907zm3.985 11.378c1.964 2.021 2.945 4.389 2.945 7.161 0 2.83-.981 5.198-2.945 7.162-2.021 2.021-4.39 3.003-7.219 3.003-2.772 0-5.14-.982-7.104-3.003-2.021-1.963-3.003-4.332-3.003-7.162 0-2.772.982-5.14 3.003-7.161 1.964-1.964 4.332-2.946 7.104-2.946 2.83 0 5.198.982 7.219 2.946zm-12.359 1.963c-1.444 1.444-2.195 3.177-2.195 5.198 0 2.021.693 3.754 2.137 5.198s3.177 2.194 5.198 2.194c2.021 0 3.812-.75 5.255-2.194s2.137-3.177 2.137-5.198c0-2.021-.693-3.754-2.137-5.198s-3.234-2.137-5.255-2.137c-2.021.001-3.696.694-5.14 2.137z"/></svg>