<svg xmlns="http://www.w3.org/2000/svg" width="584.28" height="540.54"><path d="M359.44 459.44l-50.33 50.33c-4.46 4.46-10.4 6.92-16.72 6.92-6.32 0-12.26-2.46-16.72-6.92-4.47-4.46-6.92-10.4-6.92-16.72 0-6.33 2.45-12.26 6.92-16.73L325.99 426a23.502 23.502 0 0116.73-6.93c6.31 0 12.25 2.46 16.72 6.93 4.47 4.47 6.93 10.41 6.93 16.72 0 6.32-2.46 12.25-6.93 16.72m-117.38 6.94c-6.31 0-12.25-2.47-16.72-6.94-9.23-9.22-9.23-24.22 0-33.44l50.32-50.33a23.502 23.502 0 0116.73-6.93c6.31 0 12.25 2.46 16.72 6.93 4.47 4.47 6.93 10.41 6.93 16.72 0 6.32-2.46 12.26-6.93 16.73l-50.33 50.32c-4.47 4.47-10.4 6.94-16.72 6.94m-50.33-50.35c-6.32 0-12.26-2.45-16.72-6.91-9.22-9.22-9.22-24.22-.01-33.45l50.35-50.33c4.46-4.46 10.4-6.92 16.71-6.92 6.33 0 12.26 2.46 16.72 6.92 9.23 9.22 9.23 24.23 0 33.45l-50.32 50.33c-4.46 4.46-10.4 6.91-16.73 6.91m-50.33-50.32c-6.32 0-12.26-2.46-16.72-6.92l-2.86-2.86.18-.34c-6.49-9.32-5.41-22.15 2.68-30.25l53.47-53.46c4.46-4.47 10.4-6.92 16.72-6.92 6.33 0 12.26 2.45 16.73 6.92 9.22 9.22 9.22 24.22 0 33.44l-53.47 53.47c-4.47 4.46-10.4 6.92-16.73 6.92m-33.6-57.25c-3.95 3.95-7.13 8.5-9.47 13.53l-3.31 7.13-20.66-20.66c-31.54-31.53-49.45-73.56-50.45-118.34-1-45.35 15.64-87.52 46.85-118.74 30.06-30.05 72.79-47.29 117.23-47.29 26.34 0 52.64 6.04 76.06 17.48l7.27 3.55-5.98 5.46c-2.28 2.07-4.48 4.18-6.56 6.25l-73 73c-9.62 9.62-14.92 22.44-14.92 36.09 0 13.65 5.3 26.47 14.92 36.1 9.62 9.61 22.45 14.91 36.15 14.91 10.12 0 19.89-2.95 28.26-8.54l116.17-77.44 144.06 144.07c9.22 9.22 9.22 24.22 0 33.44-4.46 4.46-10.4 6.92-16.72 6.92-6.33 0-12.26-2.46-16.73-6.92l-96.76-96.77-16.88 16.88 96.76 96.77a23.547 23.547 0 016.94 16.72c0 6.32-2.47 12.26-6.94 16.73-4.47 4.47-10.4 6.93-16.72 6.93-6.31 0-12.25-2.46-16.72-6.93l-96.77-96.77L313 278.9l96.77 96.77c4.47 4.47 6.93 10.41 6.93 16.72 0 6.32-2.46 12.25-6.93 16.72-4.46 4.47-10.4 6.92-16.73 6.92-6.32 0-12.26-2.45-16.72-6.91-8.37-8.37-19.46-13.29-31.24-13.87l-4.98-.24-.25-4.98c-.57-11.78-5.49-22.87-13.86-31.24-8.37-8.37-19.47-13.3-31.26-13.86l-4.98-.24-.25-4.99c-.58-11.8-5.5-22.9-13.83-31.24-7.72-7.71-17.54-12.41-28.41-13.6l-4.98-.54.07-5.01c.2-12.99-4.73-25.17-13.87-34.31-8.99-8.99-20.92-13.93-33.61-13.93-12.68 0-24.62 4.94-33.6 13.93zm288.86-284.6c44.39 0 85.72 16.88 116.37 47.52 25.11 25.11 40.95 57.29 45.81 93.06 4.6 33.85-1.25 69.28-16.48 99.76l-4.17 8.33-5.28-7.67a48.523 48.523 0 00-5.61-6.72L369.4 100.23l-132.45 88.3a26.982 26.982 0 01-15.05 4.55c-7.28 0-14.11-2.82-19.23-7.95-10.6-10.59-10.6-27.83 0-38.43l73-73c31.67-31.67 75.77-49.84 120.99-49.84m-6.48 421.2l.24-4.98 4.98-.25c11.81-.58 22.9-5.5 31.24-13.83 8.37-8.37 13.29-19.47 13.86-31.24l.24-4.99 4.99-.24c11.78-.57 22.87-5.49 31.24-13.86 8.36-8.37 13.29-19.46 13.86-31.24l.24-4.99 4.99-.24c11.77-.57 22.87-5.49 31.24-13.86 36.18-36.18 56.41-84.4 56.96-135.79.56-51.47-18.74-99.44-54.35-135.05C494.76 19.35 447.42 0 396.62 0c-35.99 0-71.08 9.76-101.47 28.24l-2.84 1.73-2.85-1.72C259.01 9.94 223.84.26 187.77.26 136.41.26 88.86 19.52 53.88 54.5 18.12 90.27-.99 138.44.03 190.16c1.03 51.16 21.43 99.17 57.44 135.18l50.35 50.35c8.34 8.34 19.44 13.24 31.25 13.82l4.98.24.24 4.98c.58 11.82 5.49 22.92 13.84 31.27 8.36 8.36 19.46 13.29 31.23 13.86l4.99.24.24 4.98c.57 11.78 5.5 22.88 13.86 31.24 8.38 8.37 19.48 13.3 31.27 13.86l4.98.24.25 4.99c.58 11.8 5.49 22.9 13.83 31.24 8.96 8.96 20.89 13.89 33.6 13.89h.01c12.7 0 24.64-4.93 33.6-13.89l50.32-50.33c8.38-8.37 13.3-19.47 13.87-31.26" fill="#fa8242"/></svg>