<svg xmlns="http://www.w3.org/2000/svg" width="404.08" height="405.07"><path d="M246.82 390.57C177.47 384.7 98.19 358.7 34.74 321l-18.82-11.17c2.8-6.56 4.42-13.41 6-20.08.47-2 .95-4 1.44-5.97 1.46-5.71 3.08-15.01 4.95-25.77 2.69-15.5 6.03-34.78 9.06-42.53l41.34-105.94c.9-2.32 1.72-4.81 2.56-7.35 2.24-6.81 4.56-13.85 8.89-17.66 2.44-2.16 5.63-3.76 8.7-5.17.36-.16.69-.35 1-.58l81.8-62.64c4.1-3.15 9.79-3.11 13.83.14l41.02 32.82c2.6 2.07 4.13 5.17 4.2 8.5a11.22 11.22 0 01-3.82 8.68l-26.17 22.89c-4.45 3.89-11.15 3.65-15.32-.5a11.212 11.212 0 01-3.23-9.04c.34-3.35 2.14-6.35 4.95-8.22l2.32-1.56-7.67-11.47-2.31 1.55c-6.26 4.17-10.27 10.86-11.02 18.34-.74 7.49 1.88 14.83 7.21 20.15 9.28 9.29 24.29 9.79 34.15 1.14l22.01-19.25 6.77 10.16-41.35 35.44-49.39-6.17c.75-3.54 1.62-7.05 2.62-10.53l-13.25-3.84a162.108 162.108 0 00-6.39 49.02c.21 8.91 1.16 17.78 2.09 26.37 1.07 10.09 2.09 19.62 2.03 29.27-.18 28.91-11.38 55.9-29.96 72.18l9.1 10.38c13.15-11.52 22.88-27.07 28.65-44.86 2.09-.69 4.74-.65 7.34-.43 9.06.81 17.86 3.3 26.12 7.02a82.228 82.228 0 00-8.16 17.27l13.09 4.39c1.78-5.3 4.22-10.33 7.22-15.02.17.11.35.19.51.3l6.62-9.66c13-14.56 32.16-24.71 54.44-28.04 33.37-5.01 64.39 6.44 81.1 29.79l11.22-8.03c-6.93-9.69-15.91-17.6-26.28-23.61 20-16.63 48.93-22.62 73.6-14.05l4.53-13.04c-31.11-10.83-67.93-2.07-91.58 20.66-16.43-6.26-35.24-8.28-54.63-5.37-25.8 3.85-48.04 15.81-63.17 33.03-10.45-5.11-21.79-8.33-33.42-9.38-1.53-.13-3.16-.2-4.83-.18 1.43-7.5 2.24-15.27 2.29-23.25.07-10.45-1.04-20.82-2.12-30.84-.89-8.31-1.81-16.89-2-25.23-.17-6.93.22-13.83 1.02-20.69l52.9 6.61c.31.02.6.05.88.05 1.64 0 3.24-.59 4.49-1.67l48.3-41.4a6.902 6.902 0 001.26-9.07l-12.1-18.16c2.06-3.78 3.25-8.01 3.15-12.44a24.977 24.977 0 00-9.38-18.99L204.13 5.49a24.993 24.993 0 00-30.88-.29L95.11 65.32l-2.55 1.75c-3.7 1.72-7.89 3.91-11.5 7.08-7.15 6.29-10.21 15.55-12.89 23.72-.75 2.29-1.5 4.55-2.31 6.65L24.52 210.47c-3.53 9.04-6.72 27.41-9.81 45.18-1.75 10.04-3.39 19.53-4.71 24.73-.53 2.04-1.02 4.12-1.51 6.19-1.93 8.18-3.76 15.9-7.57 22.47-1.88 3.27-.8 7.46 2.45 9.39l24.31 14.44c65.17 38.71 146.65 65.42 217.97 71.45 5.53.47 12.49.75 20.44.75 39.68 0 103.68-6.95 134.04-31.98l-8.77-10.65c-31.36 25.85-109.62 31.07-144.54 28.13" fill="#fff"/></svg>