<svg xmlns="http://www.w3.org/2000/svg" viewBox="0 0 54 53"><path d="M19.62 23.02L23.66 18c2.85-3.5 5.04-8.3 6.58-14.38.38-1.69 1.31-2.75 2.77-3.18 1.39-.38 2.67.02 3.87 1.21 1.16 1.12 1.89 2.85 2.19 5.2.23 2.31.17 4.49-.17 6.53-.46 2.35-.96 4.27-1.5 5.77h9.82c1.46 0 2.69.54 3.67 1.62s1.45 2.31 1.42 3.7c-.08 1.46-.46 2.73-1.16 3.81 1.31 1.08 1.91 2.62 1.79 4.62-.12 2.04-.89 3.48-2.31 4.33.73 1.19.92 2.54.58 4.04-.35 1.5-1.14 2.58-2.37 3.23.85 1.5.85 3.12 0 4.85-.85 1.73-2.21 2.6-4.1 2.6H32.27c-1.66 0-3.93-.56-6.81-1.67-2.81-1.08-4.76-1.71-5.83-1.91v.75c0 .73-.25 1.34-.75 1.82s-1.1.72-1.79.72H3.79c-.73 0-1.34-.24-1.82-.72s-.72-1.09-.72-1.82V23.14c0-.69.24-1.29.72-1.79s1.09-.75 1.82-.75h13.28c.65 0 1.23.24 1.73.72.51.48.78 1.05.82 1.7zm-2.77 25.93V23.31H3.97v25.64h12.88zm2.77-21.54v18.25c1.23.15 3.27.79 6.12 1.91 2.77 1.08 4.95 1.62 6.53 1.62h12.47c.92 0 1.54-.5 1.85-1.5.31-1.08.12-1.87-.58-2.37-.62-.39-.81-.98-.58-1.79s.71-1.23 1.44-1.27c1-.04 1.58-.62 1.73-1.73.15-1-.12-1.83-.81-2.48-.39-.31-.58-.72-.58-1.24s.19-.95.58-1.3c.12-.12.41-.27.89-.46s.82-.42 1.01-.69c.42-.65.58-1.46.46-2.43-.15-.96-.58-1.56-1.27-1.79-.69-.23-1.08-.71-1.16-1.44s.19-1.31.81-1.73c.89-.54 1.19-1.52.92-2.95-.27-1.42-1.02-2.14-2.25-2.14H36.08c-.69 0-1.21-.26-1.56-.78s-.38-1.11-.12-1.76c1.46-3.35 2.14-7.06 2.02-11.15-.04-2.12-.52-3.64-1.44-4.56-1-1-1.69-.77-2.08.69-1.69 6.51-4.06 11.63-7.1 15.36l-6.18 7.73z"/></svg>