<svg xmlns="http://www.w3.org/2000/svg" viewBox="0 0 595.27 595.28"><path d="M523.03 560.4H371.11V391.03c0-9.63-7.81-17.44-17.44-17.44H241.6c-9.64 0-17.44 7.81-17.44 17.44V560.4H72.23V267.5l225.4-225.4 225.4 225.4zM259.04 408.47h77.19V560.4h-77.19zM590.17 285.3l-37.34-37.33c-.02-.02-.03-.04-.05-.05L309.97 5.1c-3.28-3.27-7.71-5.1-12.34-5.1-4.62 0-9.06 1.83-12.33 5.1L42.49 247.92a.12.12 0 00-.05.05L5.1 285.3c-6.8 6.82-6.8 17.86 0 24.67 6.81 6.81 17.86 6.81 24.67 0l7.58-7.59v275.46c0 9.63 7.81 17.44 17.44 17.44h485.68c9.64 0 17.44-7.81 17.44-17.44V302.38l7.59 7.59a17.42 17.42 0 0012.33 5.11c4.47 0 8.93-1.71 12.34-5.11 6.81-6.81 6.81-17.85 0-24.67"/></svg>