<svg xmlns="http://www.w3.org/2000/svg" viewBox="0 0 595.27 595.28">
	<style type="text/css">
		.st0{fill:#000000;}
	</style>
	<path class="st0" d="M523.03,560.4L371.11,560.4L371.11,391.03C371.11,381.4 363.3,373.59 353.67,373.59L241.6,373.59C231.96,373.59 224.16,381.4 224.16,391.03L224.16,560.4L72.23,560.4L72.23,267.5L297.63,42.1L523.03,267.5ZM259.04 408.47L336.23 408.47L336.23 560.4L259.04 560.4ZM590.17,285.3L552.83,247.97C552.81,247.95 552.8,247.93 552.78,247.92L309.97,5.1C306.69,1.83 302.26,0 297.63,0C293.01,0 288.57,1.83 285.3,5.1L42.49,247.92C42.47,247.93 42.45,247.95 42.44,247.97L5.1,285.3C-1.7,292.12 -1.7,303.16 5.1,309.97C11.91,316.78 22.96,316.78 29.77,309.97L37.35,302.38L37.35,577.84C37.35,587.47 45.16,595.28 54.79,595.28L241.6,595.28L353.67,595.28L540.47,595.28C550.11,595.28 557.91,587.47 557.91,577.84L557.91,302.38L565.5,309.97C568.91,313.37 573.37,315.08 577.83,315.08C582.3,315.08 586.76,313.37 590.17,309.97C596.98,303.16 596.98,292.12 590.17,285.3"/>
</svg>