<svg xmlns="http://www.w3.org/2000/svg" viewBox="0 0 137.24 137.25"><path d="M68.8 117.2c19.93 0 39.82-5.57 60.8-17.03l1.48-.81v18.07l-.57.28c-18.25 8.74-39.66 13.36-61.93 13.36-22.26 0-43.65-4.62-61.86-13.36l-.57-.27V99.33l1.48.8c21.25 11.49 41.26 17.07 61.17 17.07m26.92-9.74l-.75.19c-8.71 2.26-17.49 3.41-26.11 3.41-5.57 0-11.24-.48-16.85-1.42l-.84-.13v-2.89c0-12.18 9.98-22.1 22.24-22.1 12.29 0 22.3 9.95 22.31 22.17zM34.98 52.33c.21-1.46-.65-2.86-2.04-3.35-1.31-.45-2.49-.84-3.57-1.2-5.74-1.91-8.9-2.96-11.31-6.67-1.18-1.85-1.45-4.11-.74-6.22A7.653 7.653 0 0122 30.16l23.13-8.22c1.41-.5 2.77-2.27 2.59-4.35L47.1 6.94l1.45.58c10.9 4.27 21.49 11.06 21.03 42.3-.02.83.3 1.61.88 2.21.59.59 1.36.92 2.19.92h35.32c2.23 0 4.15 1.65 4.47 3.84l6.12 42.12-.67.32c-4.96 2.34-9.94 4.36-14.8 6l-1.21.41-.1-1.28c-1.18-14.58-13.64-26-28.37-26-15.92 0-28.4 12.57-28.4 28.61v1.27l-1.23-.3c-5.02-1.24-10.17-2.88-15.3-4.88l-.74-.29zM5.8 92.9c-2.79 0-5.8 2.22-5.8 5.79v18.98c0 2.19 1.27 4.23 3.25 5.2 19.23 9.4 41.83 14.38 65.34 14.38h.01c23.49 0 46.1-4.98 65.38-14.38 1.98-.97 3.26-3.01 3.26-5.2V98.72c0-3.57-3.01-5.79-5.81-5.79-.99 0-1.95.26-2.84.76-1 .56-1.99 1.1-2.97 1.63l-1.26.68-5.82-40.1c-.76-5.2-5.31-9.11-10.57-9.11H75.75l-.02-.99c-.26-14.84-3.22-25.64-9.06-33.03C60.8 5.35 52.99 2.53 46.72.26c-1.48-.52-3.06-.26-4.25.69a4.402 4.402 0 00-1.67 3.83l.69 11.92-21.55 7.66c-4 1.42-7.07 4.53-8.44 8.53-1.33 3.91-.83 8.12 1.39 11.56 3.61 5.57 8.53 7.2 14.77 9.26l.11.04.74.29-6.64 46.26-1.22-.55c-3.94-1.81-7.99-3.86-12.03-6.1-.88-.5-1.83-.75-2.82-.75"/></svg>