<svg version="1.2" baseProfile="tiny-ps" xmlns="http://www.w3.org/2000/svg" viewBox="0 0 1412 1536" width="1412" height="1536">
	<title>Capa 1</title>
	<style>
		tspan { white-space:pre }
		.shp0 { fill: #fa8242 } 
	</style>
	<g id="Capa 1">
		<g id="&lt;Group&gt;">
			<path id="&lt;Path&gt;" class="shp0" d="M706 152.36C721.53 152.36 734.31 140.56 735.84 125.43C735.95 124.42 736 123.4 736 122.36L736 30C736 28.96 735.95 27.94 735.84 26.93C734.31 11.81 721.53 0 706 0C690.47 0 677.69 11.81 676.16 26.93C676.05 27.94 676 28.96 676 30L676 122.36C676 123.4 676.05 124.42 676.16 125.43C677.69 140.56 690.47 152.36 706 152.36Z" />
			<path id="&lt;Path&gt;" class="shp0" d="M220.69 222.35C220.78 223.04 220.86 223.74 220.99 224.42C222.04 229.84 224.62 235.01 228.67 239.29C228.87 239.49 229.03 239.71 229.23 239.91L229.23 239.91L294.54 305.22C300.4 311.08 308.08 314.01 315.76 314.01L315.76 314.01L315.76 314.01C319.77 314.01 323.78 313.19 327.53 311.59C330.96 310.13 334.18 308.02 336.97 305.22C348.69 293.5 348.69 274.51 336.97 262.79L336.97 262.79L271.66 197.48C259.94 185.76 240.95 185.76 229.23 197.48C222.64 204.07 219.76 212.96 220.58 221.57C220.61 221.83 220.66 222.09 220.69 222.35Z" />
			<path id="&lt;Path&gt;" class="shp0" d="M216.9 1006.86C211.04 1001 203.36 998.07 195.68 998.07C188 998.07 180.33 1001 174.47 1006.86L109.16 1072.17C97.44 1083.88 97.44 1102.88 109.16 1114.6C110.26 1115.7 111.44 1116.66 112.65 1117.55C117.91 1121.42 124.13 1123.39 130.37 1123.39C138.05 1123.39 145.73 1120.46 151.59 1114.6L216.9 1049.29C219.09 1047.09 220.88 1044.64 222.25 1042.02C228.2 1030.7 226.42 1016.37 216.9 1006.86Z" />
			<path id="&lt;Path&gt;" class="shp0" d="M1237.53 1006.86C1231.67 1001 1223.99 998.07 1216.32 998.07C1208.64 998.07 1200.96 1001 1195.1 1006.86C1185.58 1016.37 1183.8 1030.7 1189.75 1042.02C1191.12 1044.64 1192.91 1047.09 1195.1 1049.29L1260.41 1114.6C1266.27 1120.46 1273.95 1123.39 1281.63 1123.39C1287.82 1123.39 1293.98 1121.45 1299.21 1117.65C1300.48 1116.73 1301.71 1115.74 1302.84 1114.6C1314.56 1102.88 1314.56 1083.88 1302.84 1072.17L1237.53 1006.86Z" />
			<path id="&lt;Compound Path&gt;" fill-rule="evenodd" class="shp0" d="M1217.52 783.37C1208.4 846.35 1187.83 907.37 1156.56 963.01C1129.63 1010.93 1095.27 1054.24 1055.11 1091.23C1055.07 1091.27 1055.03 1091.32 1054.98 1091.36C1051.4 1094.66 1047.76 1097.88 1044.09 1101.08C1043.06 1101.97 1042.02 1102.85 1040.99 1103.73C1038.26 1106.07 1035.51 1108.37 1032.74 1110.64C1031.47 1111.69 1030.2 1112.73 1028.92 1113.76C1025.87 1116.22 1022.79 1118.63 1019.68 1121.02C1018.77 1121.72 1017.86 1122.45 1016.94 1123.14C1013.33 1125.88 1009.69 1128.55 1006.01 1131.18C1004.53 1132.24 1003.04 1133.29 1001.54 1134.33C998.94 1136.16 996.33 1137.96 993.7 1139.73C992.19 1140.75 990.68 1141.77 989.16 1142.77C985.78 1144.99 982.37 1147.18 978.94 1149.33C978.36 1149.69 977.78 1150.09 977.19 1150.45C930.24 1179.54 902.22 1229.82 902.22 1284.95L902.22 1401.07C902.22 1417.63 888.79 1431.07 872.22 1431.07L828.74 1431.07L828.74 1506C828.74 1522.57 815.31 1536 798.74 1536L613.25 1536C596.69 1536 583.25 1522.57 583.25 1506L583.25 1431.07L539.78 1431.07C523.21 1431.07 509.78 1417.63 509.78 1401.07L509.78 1284.95C509.78 1229.82 481.76 1179.54 434.81 1150.45C434.22 1150.09 433.64 1149.69 433.06 1149.33C429.63 1147.18 426.22 1144.99 422.84 1142.77C421.32 1141.76 419.81 1140.75 418.3 1139.73C415.67 1137.96 413.06 1136.16 410.46 1134.34C408.97 1133.29 407.47 1132.24 405.99 1131.18C402.31 1128.55 398.67 1125.88 395.06 1123.14C394.14 1122.45 393.23 1121.72 392.32 1121.02C389.21 1118.64 386.13 1116.22 383.08 1113.76C381.8 1112.73 380.53 1111.68 379.25 1110.64C376.49 1108.37 373.74 1106.07 371.02 1103.74C369.98 1102.85 368.94 1101.97 367.91 1101.08C364.24 1097.88 360.6 1094.65 357.02 1091.36C356.97 1091.32 356.93 1091.27 356.89 1091.23C316.73 1054.24 282.37 1010.93 255.44 963.01C224.17 907.37 203.6 846.35 194.48 783.37C194.33 782.67 194.17 781.97 194.07 781.25C193.66 778.32 193.35 775.37 192.99 772.42C192.84 771.18 192.68 769.93 192.54 768.68C192.07 764.61 191.66 760.54 191.29 756.45C191.1 754.44 190.92 752.43 190.76 750.41C190.48 746.92 190.24 743.43 190.04 739.93C189.88 737.35 189.75 734.76 189.63 732.17C189.49 729.06 189.38 725.95 189.29 722.84C189.21 719.95 189.17 717.05 189.14 714.16C189.12 712.41 189.05 710.66 189.05 708.92C189.05 707.35 189.09 705.78 189.11 704.2C189.11 703.48 189.09 702.76 189.1 702.04C189.11 701.18 189.15 700.33 189.17 699.48C189.21 697.03 189.27 694.57 189.35 692.13C189.41 690.33 189.47 688.54 189.55 686.74C189.65 684.21 189.78 681.67 189.93 679.14C190.02 677.49 190.12 675.83 190.23 674.18C190.41 671.46 190.61 668.74 190.83 666.03C190.95 664.62 191.07 663.21 191.19 661.8C191.47 658.78 191.77 655.77 192.09 652.75C192.21 651.7 192.32 650.65 192.44 649.6C192.83 646.17 193.26 642.75 193.71 639.33C193.8 638.74 193.87 638.15 193.95 637.56C194.5 633.6 195.09 629.65 195.72 625.72C195.72 625.71 195.73 625.69 195.73 625.68C212.69 520.47 261.69 423.26 337.91 345.96L337.91 345.96C428.4 254.2 547.44 200.38 675.22 192.91C675.29 192.9 675.37 192.9 675.44 192.89C679.45 192.66 683.47 192.47 687.49 192.33C688.52 192.29 689.56 192.28 690.59 192.24C693.12 192.17 695.66 192.08 698.2 192.04C698.76 192.03 699.32 192.04 699.87 192.04C701.91 192.01 703.96 192.02 706 192.02C708.04 192.02 710.09 192.01 712.13 192.04C712.69 192.04 713.24 192.03 713.8 192.04C716.34 192.08 718.88 192.17 721.41 192.24C722.44 192.28 723.48 192.29 724.51 192.33C728.53 192.47 732.55 192.66 736.56 192.89C736.63 192.9 736.71 192.9 736.78 192.91C864.56 200.38 983.6 254.2 1074.09 345.96L1074.09 345.96C1150.31 423.26 1199.31 520.47 1216.27 625.68C1216.27 625.69 1216.28 625.71 1216.28 625.72C1216.91 629.65 1217.5 633.6 1218.04 637.56C1218.13 638.15 1218.21 638.74 1218.29 639.33C1218.74 642.75 1219.17 646.17 1219.56 649.6C1219.68 650.65 1219.79 651.7 1219.91 652.75C1220.23 655.77 1220.54 658.78 1220.8 661.8C1220.93 663.21 1221.05 664.62 1221.17 666.03C1221.39 668.74 1221.59 671.46 1221.77 674.18C1221.88 675.83 1221.98 677.49 1222.07 679.14C1222.22 681.67 1222.35 684.21 1222.45 686.74C1222.53 688.54 1222.59 690.33 1222.65 692.13C1222.73 694.57 1222.79 697.03 1222.83 699.48C1222.85 700.33 1222.89 701.18 1222.9 702.04C1222.91 702.76 1222.88 703.48 1222.89 704.2C1222.91 705.78 1222.95 707.35 1222.95 708.92C1222.95 710.66 1222.88 712.41 1222.86 714.16C1222.83 717.05 1222.79 719.95 1222.71 722.84C1222.62 725.95 1222.51 729.06 1222.37 732.17C1222.25 734.76 1222.12 737.35 1221.96 739.93C1221.76 743.43 1221.52 746.92 1221.24 750.41C1221.08 752.43 1220.9 754.44 1220.71 756.45C1220.34 760.54 1219.93 764.61 1219.46 768.68C1219.32 769.93 1219.16 771.18 1219.01 772.42C1218.65 775.37 1218.34 778.32 1217.93 781.25C1217.83 781.97 1217.67 782.67 1217.52 783.37ZM1161.21 748.29C1161.24 747.87 1161.28 747.44 1161.31 747.01C1161.65 743.12 1161.9 739.21 1162.13 735.3C1162.23 733.48 1162.33 731.66 1162.42 729.84C1162.55 726.94 1162.65 724.03 1162.74 721.13C1162.8 718.49 1162.85 715.86 1162.87 713.23C1162.9 710.57 1162.92 707.91 1162.9 705.25C1162.88 703.39 1162.87 701.54 1162.83 699.7C1162.8 698.12 1162.76 696.54 1162.71 694.97C1162.64 692.52 1162.54 690.08 1162.43 687.64C1162.38 686.48 1162.32 685.32 1162.26 684.16C1162.09 681.17 1161.91 678.18 1161.69 675.2C1161.65 674.67 1161.61 674.15 1161.57 673.63C1145.31 464.43 985.83 292.69 781.51 258.27C781.43 258.25 781.35 258.24 781.26 258.23C778 257.68 774.72 257.18 771.43 256.7C770.78 256.61 770.13 256.5 769.47 256.41C766.71 256.03 763.95 255.68 761.18 255.34C760.03 255.2 758.89 255.05 757.74 254.92C755.4 254.66 753.05 254.42 750.7 254.19C749.17 254.04 747.64 253.88 746.1 253.75C744.06 253.57 742.01 253.42 739.97 253.27C738.16 253.13 736.36 252.99 734.55 252.88C732.67 252.76 730.79 252.68 728.9 252.58C726.96 252.48 725.02 252.38 723.07 252.31C721.19 252.24 719.3 252.2 717.42 252.15C715.49 252.11 713.57 252.05 711.65 252.03C709.76 252 707.88 252.01 706 252.01C704.12 252.01 702.24 252 700.35 252.03C698.43 252.05 696.5 252.11 694.58 252.15C692.69 252.2 690.81 252.24 688.93 252.31C686.98 252.38 685.04 252.48 683.1 252.58C681.21 252.68 679.33 252.76 677.45 252.88C675.64 252.99 673.84 253.13 672.03 253.27C669.99 253.42 667.94 253.57 665.9 253.75C664.36 253.88 662.83 254.04 661.3 254.19C658.95 254.42 656.6 254.66 654.26 254.92C653.11 255.05 651.97 255.2 650.82 255.34C648.05 255.68 645.29 256.03 642.53 256.41C641.87 256.5 641.22 256.61 640.56 256.7C637.28 257.18 634 257.68 630.74 258.23C630.65 258.24 630.57 258.25 630.49 258.27C426.16 292.69 266.69 464.43 250.43 673.63C250.39 674.15 250.35 674.67 250.31 675.2C250.09 678.18 249.91 681.17 249.74 684.16C249.68 685.32 249.62 686.48 249.57 687.64C249.46 690.08 249.37 692.52 249.29 694.97C249.24 696.54 249.2 698.12 249.17 699.7C249.13 701.54 249.12 703.39 249.1 705.25C249.08 707.91 249.1 710.57 249.13 713.23C249.15 715.86 249.2 718.49 249.27 721.13C249.35 724.03 249.45 726.94 249.59 729.84C249.67 731.66 249.77 733.48 249.87 735.3C250.1 739.21 250.35 743.12 250.68 747.01C250.72 747.44 250.76 747.87 250.8 748.29C261.58 871.38 322.18 986.01 417.29 1064.24C417.75 1064.63 418.22 1065.01 418.69 1065.39C421.88 1067.99 425.1 1070.54 428.37 1073.06C428.92 1073.48 429.46 1073.92 430.01 1074.33C433.52 1077.02 437.08 1079.65 440.67 1082.23C441.68 1082.95 442.69 1083.65 443.7 1084.37C446.34 1086.23 449.01 1088.08 451.7 1089.89C452.95 1090.73 454.21 1091.58 455.47 1092.41C458.63 1094.5 461.81 1096.55 465.03 1098.56C465.57 1098.9 466.1 1099.25 466.65 1099.59C497.19 1118.49 521.91 1143.95 539.49 1173.59L539.49 758.78C539.49 732.19 547.14 706.36 561.62 684.06L680.84 500.53C686.37 492.01 695.84 486.87 706 486.87C706 486.87 706 486.87 706 486.87C706 486.87 706 486.87 706 486.87C716.16 486.87 725.63 492.01 731.16 500.53L850.38 684.06C864.86 706.36 872.51 732.19 872.51 758.78L872.51 1173.59C890.09 1143.95 914.81 1118.49 945.35 1099.59C945.9 1099.25 946.43 1098.9 946.97 1098.56C950.19 1096.55 953.37 1094.5 956.53 1092.41C957.79 1091.58 959.05 1090.73 960.3 1089.89C962.99 1088.08 965.66 1086.23 968.3 1084.37C969.31 1083.65 970.32 1082.95 971.33 1082.23C974.92 1079.65 978.48 1077.02 981.99 1074.33C982.54 1073.92 983.08 1073.48 983.63 1073.06C986.9 1070.54 990.12 1067.99 993.31 1065.39C993.78 1065.01 994.25 1064.63 994.71 1064.24C1089.82 986.01 1150.42 871.38 1161.21 748.29ZM676 1254.95L676 834.22C662.96 820.88 645.29 813.39 626.31 813.39C616.99 813.39 607.91 815.21 599.49 818.73L599.49 1254.95L676 1254.95ZM812.51 1254.95L812.51 818.73C804.09 815.21 795.01 813.39 785.69 813.39C766.71 813.39 749.04 820.88 736 834.22L736 1254.95L812.51 1254.95ZM706 571.94L674 621.19L737.99 621.19L706 571.94ZM768.74 1431.06L643.26 1431.06L643.26 1476L768.74 1476L768.74 1431.06ZM842.21 1371.06L842.21 1314.95L569.79 1314.95L569.79 1371.06L842.21 1371.06ZM753.45 757.38C763.83 754.75 774.64 753.39 785.69 753.39C785.69 753.39 785.69 753.39 785.69 753.39C794.77 753.39 803.73 754.32 812.46 756.15C811.99 742.12 807.73 728.55 800.05 716.74L788.51 698.97L776.97 681.19L635.03 681.19L623.49 698.97L611.95 716.74C604.27 728.55 600.01 742.12 599.54 756.15C608.27 754.32 617.23 753.39 626.31 753.39L626.31 753.39C637.36 753.39 648.17 754.75 658.55 757.38C675.85 761.77 691.96 769.68 706 780.67C720.04 769.68 736.15 761.77 753.45 757.38Z" />
			<path id="&lt;Path&gt;" class="shp0" d="M1084.47 311.59C1088.22 313.19 1092.23 314.01 1096.24 314.01C1096.24 314.01 1096.24 314.01 1096.24 314.01C1103.92 314.01 1111.6 311.08 1117.46 305.22L1182.77 239.91L1182.77 239.91C1182.97 239.71 1183.13 239.49 1183.33 239.29C1187.38 235.01 1189.96 229.84 1191.01 224.42C1191.18 223.51 1191.31 222.59 1191.41 221.67C1191.41 221.64 1191.41 221.6 1191.42 221.57C1192.24 212.96 1189.36 204.07 1182.77 197.48C1171.05 185.76 1152.06 185.76 1140.34 197.48L1075.03 262.79L1075.03 262.79C1063.31 274.51 1063.31 293.5 1075.03 305.22C1077.82 308.02 1081.04 310.13 1084.47 311.59Z" />
			<path id="&lt;Path&gt;" class="shp0" d="M152.47 674.25C152.47 657.68 139.04 644.25 122.47 644.25L30.11 644.25C14.57 644.25 1.8 656.06 0.26 671.19C0.16 672.19 0.11 673.22 0.11 674.25C0.11 675.29 0.16 676.31 0.26 677.32C1.8 692.45 14.57 704.25 30.11 704.25L122.47 704.25C139.04 704.25 152.47 690.82 152.47 674.25Z" />
			<path id="&lt;Path&gt;" class="shp0" d="M1411.74 671.19C1410.2 656.06 1397.43 644.25 1381.89 644.25L1289.53 644.25C1272.96 644.25 1259.53 657.68 1259.53 674.25C1259.53 690.82 1272.96 704.25 1289.53 704.25L1381.89 704.25C1397.43 704.25 1410.2 692.45 1411.74 677.32C1411.84 676.31 1411.89 675.29 1411.89 674.25C1411.89 673.22 1411.84 672.19 1411.74 671.19Z" />
		</g>
	</g>
</svg>