<svg xmlns="http://www.w3.org/2000/svg" width="470.59" height="512"><path d="M235.29 50.78c5.18 0 9.44-3.93 9.95-8.97.03-.34.05-.68.05-1.03V10c0-.35-.02-.69-.05-1.03-.51-5.04-4.77-8.97-9.95-8.97s-9.43 3.93-9.95 8.97c-.03.34-.05.68-.05 1.03v30.78c0 .35.02.69.05 1.03.52 5.04 4.77 8.97 9.95 8.97M73.52 74.11c.03.23.06.46.1.69a9.967 9.967 0 002.56 4.96c.07.07.12.14.19.2v.01l21.77 21.77a9.962 9.962 0 007.07 2.92c1.34 0 2.68-.27 3.93-.8a10 10 0 003.14-16.27L90.51 65.82c-3.9-3.9-10.23-3.9-14.14 0a9.951 9.951 0 00-2.85 8.29m-1.26 261.5a9.962 9.962 0 00-7.07-2.92c-2.56 0-5.12.97-7.08 2.92l-21.77 21.78c-3.9 3.9-3.9 10.23 0 14.14.37.36.76.69 1.17.98a9.966 9.966 0 005.91 1.95c2.56 0 5.11-.98 7.07-2.93l21.77-21.77a10.01 10.01 0 000-14.15m340.21 0a9.962 9.962 0 00-7.07-2.92c-2.56 0-5.12.97-7.07 2.92-3.18 3.18-3.77 7.95-1.79 11.73.46.87 1.05 1.68 1.79 2.42l21.77 21.77a9.973 9.973 0 0012.93 1.02c.42-.31.83-.64 1.21-1.02 3.91-3.91 3.91-10.24 0-14.14zm-80.94 19.13c-.15.13-.31.26-.47.39-1.06.86-2.13 1.71-3.22 2.55-.19.14-.37.29-.55.43-1.17.89-2.36 1.77-3.55 2.63-.34.24-.68.47-1.01.71-.89.62-1.77 1.24-2.67 1.84-.42.28-.84.57-1.26.84-1.05.7-2.11 1.38-3.18 2.05-.18.11-.36.23-.54.34-10.18 6.31-18.42 14.79-24.28 24.67V252.92c0-8.86-2.55-17.47-7.38-24.91l-39.74-61.17c-1.84-2.84-5-4.56-8.39-4.56-3.38 0-6.54 1.72-8.38 4.56l-39.74 61.17a45.635 45.635 0 00-7.38 24.91v138.27c-5.86-9.88-14.1-18.36-24.28-24.67-.18-.11-.36-.23-.54-.34-1.07-.67-2.13-1.35-3.19-2.05-.42-.27-.84-.56-1.25-.84a126 126 0 01-2.67-1.84l-1.01-.71c-1.2-.86-2.38-1.74-3.55-2.63-.19-.14-.37-.29-.55-.43-1.09-.84-2.16-1.69-3.23-2.55-.15-.13-.31-.26-.47-.39-31.7-26.08-51.9-64.28-55.49-105.31-.01-.15-.03-.29-.04-.43-.11-1.3-.19-2.6-.27-3.9-.03-.61-.07-1.22-.09-1.82-.05-.97-.09-1.94-.11-2.91-.02-.88-.04-1.75-.05-2.63-.01-.89-.01-1.77-.01-2.66.01-.62.01-1.24.03-1.85.01-.53.02-1.05.04-1.58.02-.81.05-1.63.09-2.44l.06-1.16c.05-1 .11-2 .19-2.99.01-.17.02-.35.04-.52 5.42-69.73 58.57-126.98 126.68-138.45.03-.01.06-.01.09-.02 1.08-.18 2.18-.35 3.27-.51l.66-.09c.91-.13 1.84-.25 2.76-.36.38-.05.76-.1 1.15-.14.78-.09 1.56-.17 2.34-.24.51-.05 1.02-.11 1.54-.15.68-.06 1.36-.11 2.04-.16.6-.05 1.2-.09 1.81-.13.62-.04 1.25-.07 1.88-.1.65-.03 1.29-.07 1.94-.09.63-.02 1.26-.04 1.89-.05.64-.02 1.28-.04 1.92-.05h3.77c.64.01 1.28.03 1.92.05.63.01 1.26.03 1.88.05.65.02 1.3.06 1.95.09.62.03 1.25.06 1.88.1.6.04 1.2.08 1.81.13.68.05 1.36.1 2.04.16.51.04 1.02.1 1.53.15.79.07 1.57.15 2.35.24.38.04.76.09 1.15.14.92.11 1.84.23 2.76.36l.65.09c1.1.16 2.19.33 3.28.51.03.01.06.01.08.02 68.11 11.47 121.27 68.72 126.69 138.45.01.17.03.35.04.52.07.99.13 1.99.19 2.99l.06 1.16c.03.81.07 1.63.09 2.44a112.883 112.883 0 01.06 3.43c.01.89 0 1.77-.01 2.66 0 .88-.02 1.75-.04 2.63-.03.97-.06 1.94-.11 2.91l-.09 1.82c-.08 1.3-.16 2.6-.28 3.9l-.03.43c-3.6 41.03-23.8 79.23-55.5 105.31m-141.64 83.57h90.81v18.71h-90.81zm24.49 38.71h41.83V492h-41.83zm31.58-269.96h-21.33l10.66-16.42zm-.67 211.25V278.07c4.35-4.45 10.24-6.94 16.57-6.94 3.1 0 6.13.6 8.94 1.78v145.4zm-45.5 0v-145.4c2.81-1.18 5.83-1.78 8.94-1.78 6.33 0 12.22 2.49 16.56 6.94v140.24zm35.5-158.09a42.494 42.494 0 00-15.81-7.76 43.586 43.586 0 00-19.68-.41c.16-4.68 1.58-9.21 4.14-13.14l3.85-5.93 3.85-5.92h47.31l3.85 5.92 3.84 5.93c2.56 3.93 3.98 8.46 4.14 13.14a43.55 43.55 0 00-19.67.41 42.463 42.463 0 00-15.82 7.76m170.65.19c.13-.97.24-1.96.36-2.94l.15-1.25c.15-1.35.29-2.71.41-4.07.07-.67.13-1.35.18-2.02a197.65 197.65 0 00.38-6.08c.04-1.04.08-2.07.11-3.11.02-.96.04-1.93.05-2.89.01-.58.03-1.17.03-1.75 0-.52-.02-1.05-.02-1.57 0-.24.01-.48 0-.72 0-.29-.01-.57-.02-.85-.01-.82-.03-1.64-.06-2.46-.02-.59-.04-1.19-.07-1.79-.03-.85-.07-1.69-.12-2.53-.03-.55-.07-1.11-.1-1.66-.06-.9-.13-1.81-.21-2.71a33.5 33.5 0 00-.12-1.41c-.09-1.01-.19-2.02-.29-3.02l-.12-1.05c-.13-1.14-.27-2.29-.43-3.42-.02-.2-.05-.4-.08-.6-.18-1.31-.37-2.63-.58-3.94 0-.01-.01-.01-.01-.01-5.65-35.08-21.98-67.48-47.39-93.24-30.16-30.59-69.84-48.53-112.44-51.02-.02 0-.05-.01-.07-.01-1.34-.07-2.68-.14-4.02-.19-.34-.01-.69-.01-1.03-.02-.84-.03-1.69-.06-2.54-.07h-.55c-.68-.01-1.37-.01-2.05-.01-.68 0-1.36 0-2.04.01h-.56c-.84.01-1.69.04-2.53.07-.35.01-.69.01-1.04.02-1.34.05-2.68.12-4.01.19-.03 0-.05.01-.08.01-42.59 2.49-82.27 20.43-112.43 51.02-25.41 25.76-41.74 58.16-47.4 93.24v.01c-.21 1.31-.41 2.63-.59 3.94-.03.2-.05.4-.08.6-.15 1.13-.29 2.28-.42 3.42l-.12 1.05c-.11 1-.21 2.01-.3 3.02l-.12 1.41c-.07.9-.14 1.81-.2 2.71-.04.55-.07 1.11-.1 1.66-.05.84-.09 1.68-.13 2.53l-.06 1.79c-.03.82-.05 1.64-.07 2.46 0 .28-.01.56-.02.85 0 .24.01.48.01.72-.01.52-.02 1.05-.02 1.57 0 .58.02 1.17.03 1.75.01.96.02 1.93.05 2.89.03 1.04.06 2.07.11 3.11.04.86.08 1.73.13 2.59.07 1.17.15 2.33.25 3.49.05.67.11 1.35.17 2.02.13 1.36.26 2.72.42 4.07l.15 1.25c.12.98.22 1.97.36 2.94.03.24.09.48.13.71 3.05 20.99 9.9 41.33 20.33 59.88a174.23 174.23 0 0033.81 42.74c.02.01.03.03.05.04 1.19 1.1 2.4 2.18 3.63 3.24.34.3.69.59 1.03.89.91.77 1.83 1.54 2.75 2.3.42.35.85.7 1.27 1.04 1.02.82 2.05 1.62 3.08 2.42.31.23.61.47.92.71 1.2.91 2.41 1.8 3.64 2.68.49.35.99.7 1.49 1.05.87.61 1.74 1.2 2.61 1.79.51.34 1.01.68 1.52 1.02 1.12.74 2.26 1.47 3.4 2.18.2.13.39.26.59.38 15.65 9.7 24.99 26.46 24.99 44.83v38.71c0 5.52 4.47 10 10 10h14.49V502c0 5.52 4.48 10 10 10h61.83c5.52 0 10-4.48 10-10v-24.98h14.49c5.52 0 10-4.48 10-10v-38.71c0-18.37 9.34-35.13 24.99-44.83.2-.12.39-.25.58-.38 1.15-.71 2.28-1.44 3.41-2.18.51-.34 1.01-.68 1.51-1.01.88-.6 1.75-1.2 2.62-1.8.49-.35.99-.7 1.49-1.05 1.22-.88 2.44-1.77 3.64-2.68.31-.24.61-.48.91-.71 1.04-.8 2.07-1.6 3.08-2.42.43-.34.85-.69 1.28-1.04.92-.76 1.84-1.53 2.75-2.3.34-.3.69-.59 1.03-.89 1.22-1.06 2.44-2.14 3.63-3.24.02-.01.03-.03.04-.04A174.27 174.27 0 00385.48 321c10.42-18.55 17.28-38.89 20.32-59.88.05-.23.1-.47.14-.71m-44.49-156.55c1.25.53 2.59.8 3.92.8 2.56 0 5.12-.97 7.08-2.92l21.77-21.78c.06-.06.12-.13.18-.2a9.967 9.967 0 002.56-4.96c.06-.3.1-.61.14-.92v-.03c.27-2.87-.69-5.83-2.88-8.03-3.91-3.9-10.24-3.9-14.15 0L358.3 87.59c-3.9 3.91-3.9 10.24 0 14.15.93.93 2.01 1.63 3.15 2.12M50.78 224.75c0-5.53-4.47-10-10-10H10c-5.18 0-9.44 3.93-9.95 8.97-.04.34-.05.68-.05 1.03 0 .34.01.68.05 1.02.51 5.04 4.77 8.98 9.95 8.98h30.78c5.53 0 10-4.48 10-10m419.76-1.03c-.51-5.04-4.77-8.97-9.95-8.97H429.8c-5.52 0-10 4.47-10 10 0 5.52 4.48 10 10 10h30.79c5.18 0 9.44-3.94 9.95-8.98.03-.34.05-.68.05-1.02 0-.35-.02-.69-.05-1.03" fill="#fff"/></svg>