<svg version="1.2" baseProfile="tiny-ps" xmlns="http://www.w3.org/2000/svg" width="46" height="50"><defs><clipPath clipPathUnits="userSpaceOnUse" id="cp1"><path d="M0 0h46v50H0z"/></clipPath></defs><style/><g id="Page 1" clip-path="url(#cp1)"><path id="Path 1" fill-rule="evenodd" d="M35.1 22.47c-.02 1.31-.24 2.61-.64 3.86-.59 1.34-1.28 2.63-2.05 3.86-1.8 3.13-4.51 7.87-4.51 9.63 0 .48-.39.87-.88.87h-8.41a.87.87 0 01-.87-.87c0-1.76-2.72-6.5-4.51-9.63-.78-1.23-1.46-2.52-2.05-3.86-.4-1.25-.62-2.55-.65-3.86.02-6.77 5.52-12.25 12.29-12.25S35.09 15.7 35.1 22.47zm-1.75 0c0-5.82-4.72-10.53-10.53-10.53-5.82 0-10.53 4.71-10.53 10.53.03 1.12.21 2.23.55 3.3.57 1.22 1.21 2.4 1.91 3.55 2.27 3.94 4.19 7.42 4.65 9.62h.74l-3.43-11.15a.903.903 0 01.01-.54c.15-.46.65-.71 1.11-.55l4.99 1.66 4.99-1.66c.17-.06.36-.06.53-.01.46.14.72.63.58 1.1l-3.43 11.15h.76c.45-2.2 2.37-5.68 4.64-9.63.7-1.14 1.33-2.32 1.9-3.54.34-1.07.53-2.18.56-3.3zm-6.58 26.61l-1.41.8a.83.83 0 01-.44.12h-4.21c-.15 0-.3-.04-.44-.12l-1.4-.8a.882.882 0 01.88-1.53l1.2.7h3.74l1.2-.7a.883.883 0 01.88 1.53zm-.35-5.58l-7.02.7h-.09c-.45 0-.83-.34-.88-.79a.89.89 0 01.79-.96l7.02-.7c.48-.05.91.3.96.79.05.48-.3.91-.78.96zm0 2.63l-7.02.7c-.03.01-.06.01-.09.01-.45 0-.83-.34-.88-.79-.04-.48.31-.92.79-.96l7.02-.71c.48-.04.91.31.96.79.05.48-.3.91-.78.96zM23.7 1.2v6.14c0 .49-.4.88-.88.88-.49 0-.88-.39-.88-.88V1.2c0-.48.39-.88.88-.88.48 0 .88.4.88.88zm15.25 7.05l-4.34 4.34-.02.02c-.35.34-.91.33-1.24-.02-.34-.35-.33-.9.02-1.24l4.34-4.34c.01-.01.02-.02.02-.03.35-.33.91-.32 1.24.03.34.34.33.9-.02 1.24zm6.69 14.89c0 .49-.4.88-.88.88h-6.15c-.48 0-.87-.39-.87-.88 0-.48.39-.88.87-.88h6.15c.48 0 .88.4.88.88zm-6.69 16.12a.89.89 0 01-1.24.02l-4.34-4.35a.863.863 0 010-1.24c.34-.34.9-.34 1.24 0l4.34 4.35c.33.34.33.88 0 1.22zm-26.68-4.33l-4.35 4.35c-.16.16-.38.25-.62.25-.23 0-.45-.09-.62-.25a.881.881 0 010-1.24l4.35-4.35c.34-.33.88-.33 1.22 0 .34.34.35.89.02 1.24zM7.9 23.14c0 .49-.4.88-.88.88H.88c-.49 0-.88-.39-.88-.88 0-.48.39-.88.88-.88h6.14c.48 0 .88.4.88.88zm4.62-11.17c.01.49-.39.88-.87.88-.24 0-.46-.09-.62-.26L6.68 8.25c0-.01-.01-.02-.02-.02a.884.884 0 01.02-1.25c.35-.33.91-.32 1.24.03l4.35 4.34c.16.17.25.39.25.62zm11.21 26.71l3.01-9.78-3.65 1.22c-.18.06-.37.06-.55 0l-3.65-1.22 3.01 9.78c.03.09.04.17.04.26h1.76c0-.09.01-.17.03-.26z" fill="#000"/></g></svg>