<svg xmlns="http://www.w3.org/2000/svg" viewBox="0 0 512 512"><path d="M479.94 46.51c-6.88 76.79-38.29 238.79-83.04 283.54-58.93 58.93-178.05 82.17-237.59 22.63a88.22 88.22 0 01-2.68-2.79c44.63-46.28 101.39-97.67 163.79-136.29 7.51-4.65 9.83-14.51 5.18-22.03-4.65-7.51-14.51-9.83-22.02-5.18-62.85 38.9-119.93 89.94-165.32 136.49-30.86-63.52-6.58-157.53 43.68-207.79 44.75-44.75 206.75-76.16 283.54-83.04.44-.04.86-.06 1.27-.06 4.7 0 7.83 2.4 9.34 3.91 1.65 1.64 4.33 5.21 3.85 10.61zm18.78-33.24C489.2 3.75 476.04-1.01 462.63.18c-34.26 3.06-95.92 12.16-156.95 27.69-72.8 18.53-122.04 40.26-146.37 64.6-34.63 34.62-58.96 86.8-65.1 139.57-3.17 27.31-1.5 53.23 4.98 77.04 3.77 13.87 9.1 26.63 15.9 38.21-9.42 10.2-18.17 20-26.17 29.21C35.86 437.57 4.01 485.12 2.68 487.12c-4.89 7.35-2.9 17.28 4.44 22.19 2.73 1.81 5.81 2.69 8.86 2.69a16 16 0 0013.33-7.13c.31-.47 32.03-47.84 83.77-107.38 6.68-7.69 13.91-15.82 21.61-24.24.66.69 1.32 1.38 1.99 2.06 17.76 17.75 40.04 30.37 66.23 37.49 16 4.36 32.96 6.54 50.65 6.54 8.63 0 17.44-.52 26.39-1.56 52.77-6.13 104.95-30.47 139.58-65.1 24.33-24.33 46.06-73.57 64.59-146.37 15.53-61.03 24.63-122.69 27.69-156.95a45.218 45.218 0 00-13.09-36.09"/></svg>