<svg xmlns="http://www.w3.org/2000/svg" width="583.27" height="583.28"><path d="M226.93 22.88h129.41v129.4H226.93zm89.53 186.34h-49.65l-11.53-34.06h72.71zm13.08 112.11l12.05 62.86 6.61 2.01c11.96 3.64 23.63 8.48 34.69 14.38l6.09 3.26 52.98-35.94 53.61 53.6-35.94 52.99 3.26 6.09c5.9 11.06 10.74 22.73 14.38 34.69l2.01 6.61 62.86 12.05v26.47H406.12l-.74-5.14c-3.93-27.04-17.51-51.91-38.24-70.01a114.744 114.744 0 00-75.5-28.35 114.75 114.75 0 00-75.51 28.35c-20.73 18.1-34.31 42.97-38.24 70.01l-.74 5.14H41.13v-26.47l62.86-12.05 2.01-6.61c3.64-11.96 8.48-23.63 14.38-34.69l3.25-6.09L87.7 421.5l53.6-53.6 52.99 35.94 6.09-3.26c11.06-5.9 22.73-10.74 34.69-14.38l6.61-2.01 12.05-62.86zM199.99 560.4l1.48-7.22c8.8-42.53 46.71-73.41 90.17-73.41 43.45 0 81.36 30.88 90.15 73.41l1.5 7.22zM0 62.07h204.05v113.09h27.07l19.28 56.94h29.8v66.35h-45.38l-13.03 67.97-3.23 1.15c-6.66 2.39-13.28 5.13-19.68 8.16l-3.1 1.47-57.28-38.85-80.35 80.35L97 475.98l-1.47 3.1c-3.03 6.41-5.78 13.04-8.16 19.69l-1.16 3.22-67.96 13.03v68.26h546.77v-68.26l-67.97-13.03-1.15-3.22c-2.38-6.67-5.13-13.29-8.16-19.69l-1.47-3.1 38.85-57.28-80.35-80.35-57.28 38.85-3.1-1.47c-6.41-3.03-13.03-5.78-19.68-8.16l-3.23-1.15-13.03-67.97h-45.38V232.1h29.8l19.28-56.94h27.07V62.07h204.05V39.19H379.22V0H204.05v39.19H0z" fill="#fff"/></svg>