<svg xmlns="http://www.w3.org/2000/svg" viewBox="0 0 57 53"><path d="M5.78 39.13l13.17-6.29c-2.62-2-4.14-4.71-4.56-8.14l-1.16-10.34c-.35-2.85.18-5.38 1.59-7.59 1.4-2.21 3.29-3.85 5.66-4.91S25.4.31 28.13.39c2.77-.08 5.35.41 7.74 1.47 2.39 1.06 4.27 2.7 5.66 4.91 1.39 2.21 1.91 4.75 1.56 7.59L41.93 24.7c-.42 3.43-1.94 6.14-4.56 8.14l13.17 6.29c1.69.77 3 1.9 3.93 3.38.92 1.48 1.35 2.95 1.27 4.42-.08 1.46-.76 2.69-2.05 3.7s-2.97 1.5-5.05 1.5H7.68c-2.08 0-3.76-.5-5.05-1.5S.66 48.4.58 46.93C.5 45.47.92 44 1.85 42.51c.92-1.48 2.23-2.6 3.93-3.38zm16.05-4.67L6.99 41.62a6.147 6.147 0 00-2.6 2.05c-.65.9-1.01 1.79-1.07 2.66-.06.87.28 1.61 1.01 2.22.73.62 1.85.9 3.35.87h40.95c1.5.04 2.62-.25 3.35-.87s1.07-1.36 1.01-2.22c-.06-.87-.42-1.75-1.07-2.66s-1.52-1.59-2.6-2.05l-14.61-6.99c-.85-.42-1.29-.91-1.33-1.47-.04-.56.31-1.09 1.04-1.59 1.58-1.12 2.72-2.18 3.44-3.21.71-1.02 1.16-2.36 1.36-4.01l1.15-10.34c.38-3.39-.68-6.06-3.21-8.03s-5.54-2.91-9.04-2.83c-3.5-.08-6.51.86-9.01 2.8s-3.56 4.63-3.18 8.06l1.15 10.34c.27 2.23 1.08 3.98 2.43 5.26.58.58 1.4 1.27 2.48 2.08.62.42.91.92.9 1.47-.01.56-.37.99-1.06 1.3z"/></svg>