<svg version="1.2" baseProfile="tiny-ps" xmlns="http://www.w3.org/2000/svg" width="850" height="1474"><style/><g id="Outline"><path id="&lt;Compound Path&gt;" fill-rule="evenodd" d="M787.77 996.55c25.04 98.58 37.73 221.2 37.73 364.45 0 9.1-7.4 16.5-16.5 16.5H513.5v79.5c0 9.1-7.4 16.5-16.5 16.5H353c-9.1 0-16.5-7.4-16.5-16.5v-79.5H41c-9.1 0-16.5-7.4-16.5-16.5 0-335.91 70.97-471.19 92.72-504.65l1.81-2.79L1.05 405.2c-2.18-8.3 2.25-16.77 10.31-19.71l157.14-57.14V257c0-6.79 4.07-12.8 10.38-15.32l112.16-44.86L312.99 109c1.84-7.36 8.43-12.5 16.01-12.5h31.5V17c0-9.1 7.4-16.5 16.5-16.5h96c9.1 0 16.5 7.4 16.5 16.5v79.5H521c7.58 0 14.17 5.14 16 12.5l21.97 87.82 112.16 44.86c6.3 2.52 10.37 8.53 10.37 15.32v71.35l157.14 57.14c8.07 2.93 12.5 11.41 10.32 19.71L731.81 850.35l-.85 3.21 1.82 2.79c11.88 18.27 34.81 60.79 54.99 140.2zm-106.29-140.2l15 .24c.04-1.29.23-2.56.55-3.79L813.2 411.36l-131.72-47.89v492.88zm110.89 480.57c-3.75-358.83-91.1-468.21-92.06-469.37a15.845 15.845 0 01-3.81-10.31l-15-.01V1073c0 9.1-7.4 16.5-16.5 16.5h-96c-9.1 0-16.5-7.4-16.5-16.5V307.03L508.12 129.5H341.88L297.5 307.03V1217c0 9.1-7.4 16.5-16.5 16.5h-96c-9.1 0-16.5-7.4-16.5-16.5V363.47L36.79 411.36 152.96 852.8c1.37 5.24.09 10.82-3.52 15.04-.88 1.06-88.07 110.54-91.81 469.08l-.08 7.58h734.9l-.08-7.58zM393.5 96.5h63v-63h-63v63zm-192 1008h63V305.01c0-1.34.17-2.68.51-4.01l16.15-64.7-79.66 31.87v20.33h7.5c9.1 0 16.5 7.4 16.5 16.5s-7.4 16.5-16.5 16.5h-7.5v63h7.5c9.1 0 16.5 7.4 16.5 16.5s-7.4 16.5-16.5 16.5h-7.5v63h7.5c9.1 0 16.5 7.4 16.5 16.5s-7.4 16.5-16.5 16.5h-7.5v63h7.5c9.1 0 16.5 7.4 16.5 16.5s-7.4 16.5-16.5 16.5h-7.5v63h7.5c9.1 0 16.5 7.4 16.5 16.5s-7.4 16.5-16.5 16.5h-7.5v63h7.5c9.1 0 16.5 7.4 16.5 16.5s-7.4 16.5-16.5 16.5h-7.5v63h7.5c9.1 0 16.5 7.4 16.5 16.5s-7.4 16.5-16.5 16.5h-7.5v63h7.5c9.1 0 16.5 7.4 16.5 16.5s-7.4 16.5-16.5 16.5h-7.5v111zm0 96h63v-63h-63v63zm279 177h-111v63h111v-63zm88.33-1141.2L585 301c.33 1.31.5 2.66.5 4v751.5h63v-63H641c-9.1 0-16.5-7.4-16.5-16.5s7.4-16.5 16.5-16.5h7.5v-63H641c-9.1 0-16.5-7.4-16.5-16.5s7.4-16.5 16.5-16.5h7.5v-63H641c-9.1 0-16.5-7.4-16.5-16.5s7.4-16.5 16.5-16.5h7.5v-63H641c-9.1 0-16.5-7.4-16.5-16.5s7.4-16.5 16.5-16.5h7.5v-63H641c-9.1 0-16.5-7.4-16.5-16.5s7.4-16.5 16.5-16.5h7.5v-63H641c-9.1 0-16.5-7.4-16.5-16.5s7.4-16.5 16.5-16.5h7.5v-63H641c-9.1 0-16.5-7.4-16.5-16.5s7.4-16.5 16.5-16.5h7.5v-63H641c-9.1 0-16.5-7.4-16.5-16.5s7.4-16.5 16.5-16.5h7.5v-20.33l-79.67-31.87z" fill="#000"/></g></svg>