<svg xmlns="http://www.w3.org/2000/svg" width="47.917" height="50.251" viewBox="271.968 327.513 47.917 50.251"><path d="M313.724 375.223c0 1.386-1.154 2.542-2.541 2.542h-36.674a2.564 2.564 0 01-2.541-2.542v-39.62a2.564 2.564 0 012.541-2.541h20.503c.521 0 .751.231.751.751v1.271c0 .52-.23.751-.751.751H274.74v39.215h36.212v-21.832c0-.52.23-.75.751-.75h1.271c.52 0 .75.231.75.75v22.005zm4.91-36.616l-22.12 22.12c-.289.289-.636.462-1.04.578l-9.24 2.425c-1.443.404-2.945-.981-2.541-2.541l2.367-9.298c.115-.404.347-.751.636-1.04l22.062-22.062c1.098-1.097 2.542-1.501 4.332-1.155 3.177.52 6.007 3.523 6.643 6.699.403 1.733-.001 3.177-1.099 4.274zm-6.064-8.259c-.866-.173-1.443 0-1.848.404l-22.005 21.947-2.079 8.085 8.027-2.079 22.005-22.004c.404-.462.52-1.098.404-1.906-.404-2.021-2.483-4.158-4.504-4.447z"/></svg>