<svg version="1.2" baseProfile="tiny-ps" xmlns="http://www.w3.org/2000/svg" viewBox="0 0 1199 1200" width="1199" height="1200">
	<title>Capa 1</title>
	<style>
		tspan { white-space:pre }
		.shp0 { fill: #fa8242 } 
	</style>
	<g id="Capa 1">
		<path id="&lt;Compound Path&gt;" fill-rule="evenodd" class="shp0" d="M1193.79 614.41L1103.47 735.2L1121.34 885.17C1122.6 895.62 1116.72 905.8 1107.04 909.94L968.21 969.14L908.99 1107.98C905.24 1116.78 896.63 1122.46 887.07 1122.46C886.12 1122.46 885.16 1122.4 884.22 1122.29L734.37 1104.31L613.58 1194.62C609.43 1197.74 604.48 1199.39 599.28 1199.39C594.08 1199.39 589.13 1197.74 584.97 1194.62L464.19 1104.21L314.32 1122.19C313.38 1122.31 312.41 1122.36 311.47 1122.36C301.91 1122.36 293.3 1116.68 289.55 1107.88L230.33 969.04L91.52 909.84C81.84 905.71 75.96 895.52 77.22 885.07L95.2 735.2L4.77 614.41C-1.55 605.99 -1.55 594.22 4.77 585.8L95.18 465.02L77.22 315.15C75.96 304.7 81.84 294.51 91.52 290.38L230.35 231.18L289.57 92.33C293.32 83.54 301.93 77.85 311.49 77.85C312.44 77.85 313.4 77.91 314.34 78.03L464.19 96.01L584.98 5.59C589.13 2.48 594.08 0.83 599.28 0.83C604.48 0.83 609.43 2.48 613.59 5.6L734.37 96.01L884.24 78.03C885.18 77.91 886.14 77.85 887.09 77.85C896.65 77.85 905.26 83.54 909.01 92.33L968.32 231.18L1107.13 290.38C1116.82 294.51 1122.7 304.7 1121.44 315.15L1103.48 465.02L1193.79 585.81C1200.11 594.23 1200.11 605.99 1193.79 614.41ZM126.67 872.98L257.87 928.95C260.4 930.08 262.65 931.58 264.61 933.43L297.64 933.43L297.64 425.52L138.48 425.52L143.71 468.81C144.45 474.93 142.83 481.02 139.14 485.95L53.62 600.11L139.07 714.27C142.77 719.2 144.39 725.29 143.65 731.41L126.67 872.98ZM1059.48 714.35L1144.94 600.11L1059.48 486.01C1055.79 481.07 1054.16 474.99 1054.9 468.87L1071.89 327.29L940.69 271.32C935.01 268.9 930.55 264.44 928.12 258.76L872.15 127.56L730.58 144.56C724.58 145.29 718.3 143.61 713.45 139.96L599.28 54.45L485.1 139.91C480.27 143.55 474.01 145.24 467.97 144.5L326.4 127.5L270.45 258.7C268.02 264.38 263.55 268.85 257.86 271.27L126.67 327.23L132.75 377.84L345.32 377.84L345.32 417.52L361.17 417.52C446.39 417.43 515.81 348.01 515.91 262.78L515.91 183.41C515.91 170.27 526.6 159.57 539.75 159.57L579.44 159.57C636.28 159.64 682.58 205.94 682.65 262.78L682.65 417.52L873.7 417.52C874.17 417.51 874.7 417.51 875.24 417.51C919.51 417.51 956.03 450.76 960.19 494.84C961.73 515.46 955.73 535.42 943.26 551.6C948.04 554.76 952.49 558.41 956.53 562.49C988.44 594.79 988.12 647.02 955.83 678.93C952.12 682.64 948.05 686 943.71 688.96C948.85 695.8 952.88 703.34 955.73 711.44C963.1 732.46 961.85 755.08 952.2 775.15C943.27 793.72 928.15 808.05 909.3 815.93C916.78 828.69 920.72 843.14 920.73 858.03C920.74 880.29 912.07 901.24 896.33 916.99C880.6 932.74 859.66 941.42 837.39 941.43L345.32 941.43L345.32 981.12L287.34 981.12L326.38 1072.66L467.96 1055.65C468.89 1055.54 469.83 1055.49 470.75 1055.49L470.81 1055.49C475.92 1055.49 481 1057.18 485.1 1060.26L599.28 1145.77L713.46 1060.39C718.3 1056.76 724.55 1055.08 730.57 1055.79L872.15 1072.8L928.1 941.6C930.53 935.92 935 931.46 940.69 929.03L1071.89 873.06L1054.9 731.49C1054.17 725.37 1055.79 719.28 1059.48 714.35ZM361.17 465.21L345.32 465.21L345.32 893.75L837.39 893.75C857.07 893.75 873.08 877.74 873.08 858.06C873.08 838.39 857.07 822.38 837.39 822.38L817.55 822.38C804.4 822.38 793.71 811.68 793.71 798.54C793.71 785.39 804.4 774.69 817.55 774.69L877.08 774.69C896.75 774.69 912.76 758.69 912.76 739.01C912.76 719.33 896.75 703.32 877.08 703.32L837.39 703.32C824.24 703.32 813.55 692.63 813.55 679.48C813.55 666.33 824.24 655.64 837.39 655.64L896.92 655.64C906.38 655.64 915.53 651.82 922.12 645.17C929.56 637.86 933.32 627.76 932.48 617.42C930.05 598.25 913.28 583.71 893.65 584.26L837.39 584.27C824.24 584.27 813.55 573.57 813.55 560.42C813.55 547.28 824.24 536.58 837.39 536.58L877.08 536.58C886.53 536.58 895.68 532.77 902.28 526.12C909.71 518.81 913.48 508.7 912.64 498.36C910.21 479.19 893.43 464.62 873.81 465.21L658.81 465.21C645.66 465.21 634.96 454.51 634.96 441.37L634.96 262.78C634.96 232.16 610.05 207.26 579.44 207.26L563.59 207.26L563.59 262.78C563.47 374.28 472.66 465.09 361.17 465.21Z" />
	</g>
</svg>