<svg xmlns="http://www.w3.org/2000/svg" viewBox="0 0 17.99 19"><style>.st0{fill:#000}</style><path class="st0" d="M5.99 5h7v3h-7zm7.5-1h-8c-.27 0-.5.22-.5.5v4c0 .27.23.5.5.5h8c.28 0 .5-.23.5-.5v-4c0-.28-.22-.5-.5-.5"/><path class="st0" d="M16.99 18h-15v-1.98l.59-.03c.23-.03.41-.24.41-.49 0-.14-.05-.26-.14-.36a.524.524 0 00-.36-.14h-.5v-1.98l.59-.03c.23-.03.41-.24.41-.49 0-.14-.05-.26-.14-.36a.524.524 0 00-.36-.14h-.5v-1.98l.59-.03c.23-.03.41-.24.41-.49 0-.28-.22-.5-.5-.5h-.5V7.02l.59-.03c.23-.03.41-.25.41-.49 0-.14-.05-.26-.14-.36A.524.524 0 002.49 6h-.5V4.02l.59-.03c.23-.03.41-.25.41-.49 0-.28-.22-.5-.5-.5h-.5V1h15zm1-16.5c0-.83-.67-1.5-1.5-1.5h-15c-.27 0-.5.22-.5.5v2.47L.41 3c-.23.03-.41.25-.41.5 0 .13.05.25.14.35.1.09.22.15.35.15h.5v1.97L.41 6c-.23.03-.41.25-.41.5 0 .13.05.25.14.35.1.09.22.15.35.15h.5v1.97L.41 9c-.23.03-.41.25-.41.5 0 .13.05.25.14.35.1.09.22.15.35.15h.5v1.97L.41 12c-.23.03-.41.25-.41.5 0 .13.05.25.14.35.1.09.22.15.35.15h.5v1.97L.41 15c-.23.03-.41.25-.41.5 0 .13.05.25.14.35.1.09.22.15.35.15h.5v2.5c0 .27.23.5.5.5h15c.83 0 1.5-.68 1.5-1.5z"/></svg>