<svg xmlns="http://www.w3.org/2000/svg" viewBox="0 0 44 53"><path d="M30.71 1.91l11.2 11.2c.58.66.87 1.35.87 2.08v27.43c0 2.66-.94 4.93-2.83 6.82-1.89 1.89-4.18 2.83-6.87 2.83H10.44c-2.7 0-4.99-.94-6.87-2.83C1.68 47.55.74 45.28.74 42.62V10.75c0-2.69.94-4.99 2.83-6.87 1.89-1.89 4.18-2.83 6.87-2.83h18.19c.81 0 1.5.29 2.08.86zm9.3 40.72V17.04H29.27a2.5 2.5 0 01-1.79-.72c-.5-.48-.75-1.09-.75-1.82V3.82H10.44c-1.93 0-3.56.67-4.91 2.02-1.39 1.39-2.08 3.02-2.08 4.91v31.88c0 1.89.69 3.52 2.08 4.91 1.35 1.35 2.98 2.02 4.91 2.02h22.64c1.92 0 3.56-.67 4.91-2.02 1.34-1.35 2.02-2.99 2.02-4.91zm-27.78-17.9h19c.5 0 .75-.25.75-.75v-1.21c0-.54-.25-.81-.75-.81h-19c-.5 0-.75.27-.75.81v1.21c0 .5.25.75.75.75zm0 8.95h19c.5 0 .75-.25.75-.75v-1.21c0-.5-.25-.75-.75-.75h-19c-.5 0-.75.25-.75.75v1.21c0 .5.25.75.75.75zm0 9.06h19c.5 0 .75-.25.75-.75v-1.21c0-.5-.25-.75-.75-.75h-19c-.5 0-.75.25-.75.75v1.21c0 .5.25.75.75.75zm27.26-28.18L29.21 4.34v10.22h10.28z"/></svg>