<svg version="1.2" baseProfile="tiny-ps" xmlns="http://www.w3.org/2000/svg" width="1524" height="1524"><style>.shp0{fill:#000}</style><g id="Capa 1"><g id="&lt;Group&gt;"><path id="&lt;Compound Path&gt;" fill-rule="evenodd" class="shp0" d="M1135.12 937.41c-26.68 0-53.1 11.34-72.48 31.11-23.86 24.35-41.61 67.18-19.85 114.4 23.24 50.43 32.39 106.71 26.45 162.75-16.5 156.02-157.49 278.24-320.96 278.24-3.33 0-6.68-.05-10.02-.15-197.73-6.09-383.19-88.24-522.21-231.32C76.73 1149.05 0 960.7 0 762.11c0-99.5 19.93-197.14 59.24-290.21 38.24-90.54 92.83-172.29 162.26-242.96C366.49 81.36 558.45.09 762.01.09c415.7 0 757.52 338.12 761.98 753.72.55 51.68-16.57 102.67-48.22 143.57-32.05 41.41-77 69.61-126.56 79.38-14.71 2.9-29.63 4.37-44.34 4.37-53.62 0-94.25-18.97-118.53-30.31-3.64-1.7-6.89-3.21-9.72-4.45-13.63-5.95-27.59-8.96-41.5-8.96zm.04-77.83c24.96 0 49.4 5.15 72.66 15.3 3.26 1.42 6.79 3.09 10.6 4.89 20.89 9.86 49.52 23.36 86.32 23.36 9.74 0 19.63-.98 29.38-2.9 64.53-12.72 112.62-75.3 111.87-145.58-4-373.06-310.83-676.56-683.98-676.56C391.24 78.09 78 391.33 78 762.11c0 365.73 297.27 672.43 662.65 683.68 2.55.08 5.09.12 7.63.12 59.46-.01 117.36-21.48 163.04-60.48 45.86-39.14 74.4-91.69 80.36-147.97 4.45-42.07-2.37-84.22-19.73-121.9-31.6-68.57-17.87-147.72 34.98-201.64 34.34-35.04 79.88-54.34 128.23-54.34z"/><path id="&lt;Compound Path&gt;" fill-rule="evenodd" class="shp0" d="M1251.03 492.1c0 74.75-54.26 129-129.01 129-71.13 0-129-57.87-129-129s57.87-129 129-129c71.14 0 129.01 57.87 129.01 129zm-78.01 0c0-28.12-22.87-51-51-51-28.12 0-51 22.88-51 51s22.88 51 51 51c46.03 0 51-35.67 51-51zm-282-180c0 71.13-57.87 129-129.01 129-71.13 0-129-57.87-129-129 0-71.14 57.87-129.01 129-129.01 71.14 0 129.01 57.87 129.01 129.01zm-78 0c0-28.13-22.88-51-51.01-51-28.12 0-51 22.87-51 51 0 28.12 22.88 51 51 51 28.13 0 51.01-22.88 51.01-51zm-282.01 180c0 71.13-57.87 129-129 129s-129-57.87-129-129 57.87-129 129-129 129 57.87 129 129zm-78 0c0-28.12-22.88-51-51-51s-51 22.88-51 51 22.88 51 51 51 51-22.88 51-51zm78 405.01c0 95.95-78.06 174-174 174-95.95 0-174.01-78.05-174.01-174s78.06-174 174.01-174c95.94 0 174 78.05 174 174zm-78 0c0-52.94-43.07-96-96-96-52.94 0-96 43.06-96 96 0 52.93 43.06 96 96 96 52.93 0 96-43.07 96-96zm438.01 270.01c0 95.94-78.06 174-174.01 174-95.94 0-174-78.06-174-174 0-95.95 78.06-174.01 174-174.01 95.95 0 174.01 78.06 174.01 174.01zm-78 0c0-52.94-43.07-96.01-96.01-96.01-52.93 0-96 43.07-96 96.01 0 52.93 43.07 96 96 96 52.94 0 96.01-43.07 96.01-96z"/></g></g></svg>