<svg version="1.2" baseProfile="tiny-ps" xmlns="http://www.w3.org/2000/svg" viewBox="0 0 1524 1524" width="1524" height="1524">
	<title>Capa 1</title>
	<style>
		tspan { white-space:pre }
		.shp0 { fill: #000000 } 
	</style>
	<g id="Capa 1">
		<g id="&lt;Group&gt;">
			<path id="&lt;Compound Path&gt;" fill-rule="evenodd" class="shp0" d="M1135.12 937.41C1108.44 937.41 1082.02 948.75 1062.64 968.52C1038.78 992.87 1021.03 1035.7 1042.79 1082.92C1066.03 1133.35 1075.18 1189.63 1069.24 1245.67C1052.74 1401.69 911.75 1523.91 748.28 1523.91C744.95 1523.91 741.6 1523.86 738.26 1523.76C540.53 1517.67 355.07 1435.52 216.05 1292.44C76.73 1149.05 0 960.7 0 762.11C0 662.61 19.93 564.97 59.24 471.9C97.48 381.36 152.07 299.61 221.5 228.94C366.49 81.36 558.45 0.09 762.01 0.09C1177.71 0.09 1519.53 338.21 1523.99 753.81C1524.54 805.49 1507.42 856.48 1475.77 897.38C1443.72 938.79 1398.77 966.99 1349.21 976.76C1334.5 979.66 1319.58 981.13 1304.87 981.13C1304.87 981.13 1304.87 981.13 1304.87 981.13C1251.25 981.13 1210.62 962.16 1186.34 950.82C1182.7 949.12 1179.45 947.61 1176.62 946.37C1162.99 940.42 1149.03 937.41 1135.12 937.41ZM1135.16 859.58C1160.12 859.58 1184.56 864.73 1207.82 874.88C1211.08 876.3 1214.61 877.97 1218.42 879.77C1239.31 889.63 1267.94 903.13 1304.74 903.13C1314.48 903.13 1324.37 902.15 1334.12 900.23C1398.65 887.51 1446.74 824.93 1445.99 754.65C1441.99 381.59 1135.16 78.09 762.01 78.09C391.24 78.09 78 391.33 78 762.11C78 1127.84 375.27 1434.54 740.65 1445.79C743.2 1445.87 745.74 1445.91 748.28 1445.91C807.74 1445.9 865.64 1424.43 911.32 1385.43C957.18 1346.29 985.72 1293.74 991.68 1237.46C996.13 1195.39 989.31 1153.24 971.95 1115.56C940.35 1046.99 954.08 967.84 1006.93 913.92C1041.27 878.88 1086.81 859.58 1135.16 859.58Z" />
			<path id="&lt;Compound Path&gt;" fill-rule="evenodd" class="shp0" d="M1251.03 492.1C1251.03 566.85 1196.77 621.1 1122.02 621.1C1050.89 621.1 993.02 563.23 993.02 492.1C993.02 420.97 1050.89 363.1 1122.02 363.1C1193.16 363.1 1251.03 420.97 1251.03 492.1ZM1173.02 492.1C1173.02 463.98 1150.15 441.1 1122.02 441.1C1093.9 441.1 1071.02 463.98 1071.02 492.1C1071.02 520.22 1093.9 543.1 1122.02 543.1C1168.05 543.1 1173.02 507.43 1173.02 492.1Z" />
			<path id="&lt;Compound Path&gt;" fill-rule="evenodd" class="shp0" d="M891.02 312.1C891.02 383.23 833.15 441.1 762.01 441.1C690.88 441.1 633.01 383.23 633.01 312.1C633.01 240.96 690.88 183.09 762.01 183.09C833.15 183.09 891.02 240.96 891.02 312.1ZM813.02 312.1C813.02 283.97 790.14 261.1 762.01 261.1C733.89 261.1 711.01 283.97 711.01 312.1C711.01 340.22 733.89 363.1 762.01 363.1C790.14 363.1 813.02 340.22 813.02 312.1Z" />
			<path id="&lt;Compound Path&gt;" fill-rule="evenodd" class="shp0" d="M531.01 492.1C531.01 563.23 473.14 621.1 402.01 621.1C330.88 621.1 273.01 563.23 273.01 492.1C273.01 420.97 330.88 363.1 402.01 363.1C473.14 363.1 531.01 420.97 531.01 492.1ZM453.01 492.1C453.01 463.98 430.13 441.1 402.01 441.1C373.89 441.1 351.01 463.98 351.01 492.1C351.01 520.22 373.89 543.1 402.01 543.1C430.13 543.1 453.01 520.22 453.01 492.1Z" />
			<path id="&lt;Compound Path&gt;" fill-rule="evenodd" class="shp0" d="M531.01 897.11C531.01 993.06 452.95 1071.11 357.01 1071.11C261.06 1071.11 183 993.06 183 897.11C183 801.16 261.06 723.11 357.01 723.11C452.95 723.11 531.01 801.16 531.01 897.11ZM453.01 897.11C453.01 844.17 409.94 801.11 357.01 801.11C304.07 801.11 261.01 844.17 261.01 897.11C261.01 950.04 304.07 993.11 357.01 993.11C409.94 993.11 453.01 950.04 453.01 897.11Z" />
			<path id="&lt;Compound Path&gt;" fill-rule="evenodd" class="shp0" d="M891.02 1167.12C891.02 1263.06 812.96 1341.12 717.01 1341.12C621.07 1341.12 543.01 1263.06 543.01 1167.12C543.01 1071.17 621.07 993.11 717.01 993.11C812.96 993.11 891.02 1071.17 891.02 1167.12ZM813.02 1167.12C813.02 1114.18 769.95 1071.11 717.01 1071.11C664.08 1071.11 621.01 1114.18 621.01 1167.12C621.01 1220.05 664.08 1263.12 717.01 1263.12C769.95 1263.12 813.02 1220.05 813.02 1167.12Z" />
		</g>
	</g>
</svg>