<svg xmlns="http://www.w3.org/2000/svg" viewBox="0 0 46 53"><path d="M24.35 6.78l4.74 4.74c.46-1.77 1.49-3.18 3.09-4.22s3.37-1.48 5.31-1.33c1.94.15 3.59.94 4.94 2.37 2.16 2.27 2.85 4.81 2.08 7.62-.73 2.89-2.48 4.79-5.25 5.72L44 26.42c.42.42.63.95.63 1.59 0 .64-.21 1.18-.63 1.65L24.29 49.35c-.46.42-1.01.63-1.65.63s-1.17-.21-1.59-.63L1.42 29.71c-.46-.46-.69-1.01-.69-1.65 0-.63.23-1.16.69-1.59l6.53-6.58c.5-.54 1.11-.66 1.82-.38.71.29 1.09.82 1.13 1.59.04 2.04 1.08 3.5 3.12 4.39 2 .85 3.81.5 5.43-1.04 1.58-1.58 1.94-3.39 1.1-5.43-.85-2.04-2.33-3.1-4.45-3.18-.73 0-1.24-.36-1.53-1.07-.29-.71-.16-1.34.38-1.88l6.18-6.12c.42-.46.95-.69 1.59-.69s1.17.24 1.63.7zm4.1 8.03l-5.72-5.78-4.45 4.45c1.69.46 3.05 1.46 4.07 3 1.02 1.54 1.46 3.24 1.33 5.11-.14 1.87-.9 3.46-2.28 4.76-1.31 1.39-2.9 2.15-4.76 2.28-1.87.13-3.57-.31-5.11-1.33-1.54-1.02-2.54-2.38-3-4.07l-4.85 4.85 19 19 19-19.06-5.72-5.78c-.54-.54-.67-1.16-.4-1.85.23-.65.73-1.02 1.5-1.1 1.42-.08 2.61-.64 3.55-1.7s1.42-2.25 1.42-3.58-.52-2.59-1.56-3.78c-1.19-1.04-2.45-1.56-3.75-1.56-1.31 0-2.5.48-3.58 1.44s-1.66 2.14-1.73 3.52c-.04.73-.4 1.24-1.1 1.53-.71.32-1.32.19-1.86-.35z"/></svg>