<svg xmlns="http://www.w3.org/2000/svg" viewBox="0 0 183.13 183.13"><path d="M14.9 140.64l56.5-56.55 27.63 27.63-56.53 56.53-33.13 5.53zM145.32 10.18l27.63 27.63L105 105.75 77.37 78.12zM3.52 183.08c.23.03.46.05.68.05.24 0 .48-.02.71-.06l40.31-6.72c.87-.14 1.67-.55 2.29-1.18L181.89 40.79a4.207 4.207 0 000-5.96L148.3 1.23c-.8-.8-1.86-1.23-2.98-1.23-1.13 0-2.19.43-2.99 1.23L125.16 18.4 107.98 1.23C107.19.43 106.13 0 105 0s-2.19.43-2.98 1.23L54.98 48.26c-.84.82-1.3 1.87-1.32 3a4.25 4.25 0 001.19 3c.8.83 1.88 1.29 3.03 1.29 1.1 0 2.14-.42 2.93-1.19l.11-.1L105 10.18l14.19 14.19L7.95 135.61c-.63.63-1.03 1.42-1.18 2.29L.05 178.22c-.37 2.29 1.18 4.47 3.47 4.86"/></svg>