<svg xmlns="http://www.w3.org/2000/svg" width="405.07" height="297.36"><style>.st0{fill:#fff}</style><path class="st0" d="M357.37 133.85c-13.78-6.89-39.62-6.97-40.72-6.97-3.27 0-5.93 2.66-5.93 5.94 0 3.27 2.66 5.93 5.93 5.93 6.67 0 26.04 1.03 35.42 5.72.85.42 1.75.63 2.65.63 2.17 0 4.27-1.21 5.31-3.29 1.46-2.93.28-6.49-2.66-7.96"/><path class="st0" d="M358.06 187.6c-6.29 6.1-14.59 9.33-23.36 9.06-17.18-.52-31.15-15.64-31.15-33.72v-11.09c0-.92-.21-1.83-.62-2.65l-3.67-7.33a19.62 19.62 0 01-2.05-8.7v-.35c0-14.22 11.57-25.79 25.79-25.79h51.17v24.64c0 3.99-.95 7.97-2.73 11.54l-2.99 5.99a5.94 5.94 0 00-.63 2.65v12.69c0 8.76-3.46 16.95-9.76 23.06m-22.37 38.34l-13.47-13.47c.24-1.07.37-2.24.37-3.52v-2.51c3.74 1.23 7.67 1.96 11.75 2.08.46.01.91.02 1.37.02 4.5 0 8.89-.68 13.08-1.98v2.39c0 1.18.15 2.34.43 3.46zm-108.35 5c-.03.05-.11.16-.3.18-.2.03-.29-.08-.33-.11l-14.85-14.85 27.99-19.14 5.94 6.24zm-24.73-22.83l-32.14-21.97v-11.07c8.32 4.49 17.63 7.3 27.53 7.94 1.56.1 3.12.15 4.67.15 11.34 0 22.26-2.71 32.07-7.86v10.84zM178.5 231c-.04.04-.13.14-.33.12a.375.375 0 01-.3-.18l-18.45-27.68 5.94-6.24 27.99 19.14zm-33.4-119.39V96.89c0-.89-.21-1.78-.6-2.58-3.81-7.91-5.75-16.3-5.75-24.94V56.68c0-24.71 20.11-44.82 44.82-44.82h82.89v57.51c0 8.64-1.94 17.03-5.75 24.94-.39.8-.59 1.69-.59 2.58v16.89c0 16.07-6.46 30.98-18.19 41.97a61.25 61.25 0 01-4.56 3.86l-.1.07c-10.99 8.35-24.45 12.4-38.5 11.49-30.1-1.95-53.67-28.11-53.67-59.56m-57.11 96.26l.01-7.07a43.901 43.901 0 0015.66-19.35c.71 5.11 1.76 9.95 3.38 14.18-2.36 2.88-7.96 8.25-19.05 12.24m-24.96-11.2c-17.72 0-32.13-14.41-32.13-32.13a5.932 5.932 0 00-6.91-5.85c.02-.51.03-1.02.05-1.52.13-4.08.26-7.94.5-11.24.75-10.66 5.02-20.49 11.99-27.67 7.04-7.24 16.45-11.23 26.5-11.23s19.45 3.99 26.5 11.23c6.97 7.18 11.23 17.01 11.99 27.67.24 3.3.36 7.15.5 11.23l.03 1.06c-6.45-9.94-16.42-17.27-29.3-21.41-11.9-3.83-22.14-3.59-22.57-3.58a5.91 5.91 0 00-4.11 1.81l-10.71 11.11a5.937 5.937 0 00.16 8.39 5.937 5.937 0 008.39-.16l8.91-9.23c7.67.37 32.35 3.24 41.95 24.38-2.42 15.57-15.81 27.14-31.74 27.14m9.02 27.24a13.093 13.093 0 01-18.05 0l-5.51-5.24c.93-1.75 1.44-3.72 1.44-5.8v-6.32c4.14 1.29 8.54 1.99 13.1 1.99 4.55 0 8.95-.7 13.1-1.99v6.32c0 2.08.51 4.05 1.44 5.8zm-33.99-16.06c-11.1-3.99-16.66-9.31-19.04-12.22 1.62-4.24 2.67-9.09 3.38-14.21a44.253 44.253 0 0015.66 19.32zm348.9 10.48l-24.51-7c-1.06-.3-1.8-1.28-1.8-2.38v-8.18c2-1.38 3.9-2.93 5.68-4.65 8.61-8.36 13.36-19.58 13.36-31.58v-11.29l2.37-4.74c2.6-5.2 3.97-11.02 3.97-16.84v-30.58a5.93 5.93 0 00-5.93-5.93H323c-20.76 0-37.66 16.89-37.66 37.66v.35c0 4.84 1.15 9.68 3.31 14l3.04 6.08v9.69c0 15.36 7.57 29.14 19.03 37.43v8.58c0 1.32 0 1.87-4.9 3.27l-11.95 3.41-34.59-12.57c.12-1.64-.43-3.3-1.62-4.55l-11.05-11.61v-19.49c1.16-.97 2.32-1.95 3.43-3 13.95-13.07 21.94-31.52 21.94-50.63V98.21c4.21-9.16 6.35-18.85 6.35-28.84V5.93c0-3.28-2.66-5.93-5.94-5.93h-88.82c-31.26 0-56.69 25.43-56.69 56.68v12.69c0 9.99 2.14 19.68 6.35 28.85v13.39c0 22.18 9.86 42.16 25.38 55.34v19.95l-11.06 11.61a5.92 5.92 0 00-1.61 4.55l-36.51 13.27c-2.65.96-5.11 2.27-7.34 3.84l-5.73-2.86c17.06-7.43 22.47-17.88 22.73-18.4.84-1.67.84-3.63 0-5.3-4.28-8.56-4.8-24.24-5.21-36.84-.14-4.19-.27-8.16-.52-11.69-2.03-28.46-23.66-49.92-50.33-49.92-26.67 0-48.31 21.46-50.33 49.92-.25 3.53-.38 7.5-.52 11.69-.42 12.6-.94 28.28-5.21 36.84a5.888 5.888 0 000 5.3c.26.52 5.65 10.95 22.75 18.38l-15.92 7.97C5.28 229.52 0 238.07 0 247.59v43.84a5.93 5.93 0 0011.86 0v-43.84c0-4.99 2.78-9.48 7.24-11.72l19.83-9.91 6.9 6.55a24.867 24.867 0 0017.2 6.88c6.19 0 12.38-2.3 17.2-6.88l6.89-6.55 6.47 3.23a31.211 31.211 0 00-4.77 16.57v45.67c0 3.28 2.65 5.93 5.93 5.93s5.93-2.65 5.93-5.93v-45.67c0-8.15 5.15-15.49 12.8-18.27l38.49-14L168 237.53c2.05 3.07 5.33 5.04 9 5.4.41.04.82.06 1.23.06 3.24 0 6.34-1.27 8.67-3.59l9.77-9.78v61.81a5.93 5.93 0 005.93 5.93c3.28 0 5.94-2.65 5.94-5.93v-61.81l9.77 9.78a12.23 12.23 0 008.67 3.59c.41 0 .82-.02 1.23-.06 3.67-.36 6.95-2.33 9-5.4l16.03-24.04 38.49 14c7.65 2.78 12.8 10.12 12.8 18.27v45.67c0 3.28 2.65 5.93 5.93 5.93s5.93-2.65 5.93-5.93v-45.67c0-8.25-3.27-15.99-8.77-21.71l1.46-.42c1.48-.42 3.5-1 5.52-1.99l15.15 15.15v54.64c0 3.28 2.66 5.93 5.94 5.93a5.93 5.93 0 005.93-5.93v-54.64l15.05-15.05c.8.41 1.64.75 2.52 1.01l24.51 7c5.59 1.6 9.5 6.78 9.5 12.59v49.09c0 3.28 2.65 5.93 5.93 5.93s5.94-2.65 5.94-5.93v-49.09c0-11.09-7.45-20.96-18.11-24.01"/><path class="st0" d="M251.21 71.52c-22.44-22.44-69.39-18.15-88.54-15.26-6.03.91-10.41 6.01-10.41 12.13v13.67c0 3.28 2.66 5.94 5.93 5.94a5.94 5.94 0 005.94-5.94V68.39c0-.2.13-.37.31-.4 7.65-1.15 22.82-2.93 38.55-1.88 18.5 1.23 31.9 5.87 39.83 13.8a5.927 5.927 0 008.39 0c2.32-2.31 2.32-6.07 0-8.39"/></svg>