<svg xmlns="http://www.w3.org/2000/svg" viewBox="0 0 154.89 155"><path d="M56 70.35l14.29-14.29 28.59 28.59-14.29 14.3a20.105 20.105 0 01-14.3 5.91c-5.4 0-10.48-2.1-14.29-5.91-7.89-7.89-7.89-20.71 0-28.6m-4.38 80.22A77.4 77.4 0 0077.5 155c20.68 0 40.14-8.08 54.78-22.75 14.61-14.62 22.64-34.1 22.61-54.85-.03-20.75-8.1-40.21-22.75-54.8C117.51 8.02 98.09 0 77.44 0 56.75 0 37.29 8.06 22.65 22.7 1.67 43.68-5.5 75.32 4.36 103.32l.12.33c3.76 10.5 13.45 17.29 24.7 17.29 6.95 0 13.51-2.73 18.47-7.69l5.55-5.56 1.36.9a28.631 28.631 0 0015.74 4.68c7.65 0 14.84-2.97 20.24-8.37l17.27-17.27c.8-.8 1.24-1.86 1.24-2.98 0-1.13-.44-2.18-1.24-2.98l-7.14-7.14 18.49-18.48c.79-.8 1.23-1.86 1.23-2.98 0-1.13-.43-2.18-1.23-2.98-.8-.8-1.85-1.23-2.98-1.23-1.12 0-2.18.43-2.97 1.23L94.72 68.58l-8.36-8.36 18.74-18.73c.79-.8 1.23-1.85 1.23-2.98 0-1.12-.44-2.18-1.23-2.97-.8-.8-1.86-1.24-2.98-1.24-1.12 0-2.18.44-2.98 1.23L80.41 54.27l-7.14-7.14c-.8-.8-1.85-1.24-2.98-1.24-1.12 0-2.18.44-2.98 1.24L50.04 64.4c-9.56 9.56-11.11 24.69-3.68 35.98l.89 1.36-5.56 5.55c-3.36 3.36-7.84 5.21-12.61 5.21-7.58.01-14.13-4.59-16.67-11.7l-.1-.27C3.51 75.57 9.9 47.36 28.6 28.65 41.66 15.6 59.01 8.41 77.45 8.41c18.39 0 35.7 7.16 48.75 20.15 13.05 13 20.24 30.35 20.27 48.85.02 18.5-7.13 35.86-20.15 48.89-13.05 13.07-30.39 20.27-48.83 20.27h-.01c-7.89 0-15.65-1.32-23.06-3.94a4.212 4.212 0 00-5.37 2.58c-.38 1.06-.32 2.2.17 3.21a4.165 4.165 0 002.4 2.15"/></svg>