<svg xmlns="http://www.w3.org/2000/svg" width="47.5" height="47.49" viewBox="0 0 47.5 47.49">
	<style type="text/css">
		.st0{fill:#000000;}
	</style>
	<path class="st0" d="M44.05,28.24L24.5,28.24L24.5,12.49L45.42,12.49ZM24.5,45.49L24.5,29.74L43.92,29.74L42.55,45.49ZM23,12.49L23,28.24L3.45,28.24L2.07,12.49ZM29,1.99C29.59,1.99 30.17,2.11 30.72,2.33C31.27,2.56 31.76,2.89 32.18,3.31C32.6,3.73 32.93,4.22 33.16,4.77C33.38,5.32 33.5,5.9 33.5,6.49C33.5,7.08 33.38,7.67 33.16,8.21C32.93,8.76 32.6,9.26 32.18,9.67C31.76,10.09 31.27,10.42 30.72,10.65C30.17,10.88 29.59,10.99 29,10.99L24.5,10.99L24.5,6.49C24.5,5.3 24.97,4.15 25.82,3.31C26.66,2.47 27.81,1.99 29,1.99M14,6.49C14,5.3 14.47,4.15 15.32,3.31C16.16,2.47 17.31,1.99 18.5,1.99C19.69,1.99 20.84,2.47 21.68,3.31C22.52,4.15 23,5.3 23,6.49L23,10.99L18.5,10.99C17.31,10.99 16.16,10.52 15.32,9.67C14.47,8.83 14,7.68 14,6.49M4.95,45.49L3.57,29.74L23,29.74L23,45.49ZM46.25,10.99L32.97,10.99C33.62,10.41 34.14,9.7 34.49,8.9C34.84,8.1 35.01,7.23 34.99,6.36C34.97,5.48 34.76,4.62 34.37,3.84C33.99,3.06 33.43,2.37 32.75,1.82C32.07,1.27 31.28,0.88 30.43,0.67C29.58,0.46 28.7,0.44 27.84,0.61C26.98,0.77 26.17,1.13 25.47,1.64C24.76,2.16 24.17,2.82 23.75,3.58C23.32,2.82 22.74,2.16 22.03,1.64C21.32,1.13 20.51,0.77 19.66,0.61C18.8,0.44 17.91,0.46 17.07,0.67C16.22,0.88 15.43,1.27 14.74,1.82C14.06,2.37 13.51,3.06 13.12,3.84C12.74,4.62 12.53,5.48 12.5,6.36C12.48,7.23 12.66,8.1 13.01,8.9C13.36,9.7 13.88,10.41 14.53,10.99L1.25,10.99C1.14,10.99 1.04,11.01 0.94,11.05C0.85,11.1 0.76,11.16 0.69,11.24C0.62,11.31 0.57,11.41 0.53,11.51C0.5,11.61 0.49,11.71 0.5,11.82L3.5,46.32C3.52,46.5 3.6,46.67 3.74,46.8C3.88,46.92 4.06,46.99 4.25,46.99L43.25,46.99C43.44,46.99 43.62,46.92 43.76,46.79C43.9,46.67 43.98,46.49 44,46.3L47,11.8C47.01,11.7 46.99,11.59 46.96,11.5C46.93,11.4 46.87,11.31 46.8,11.23C46.73,11.16 46.65,11.1 46.55,11.05C46.46,11.01 46.35,10.99 46.25,10.99"/>
	<path class="st0" d="M18.5,2.49C17.43,2.49 16.43,2.91 15.67,3.66C14.91,4.42 14.5,5.42 14.5,6.49C14.5,7.56 14.91,8.56 15.67,9.32C16.41,10.06 17.45,10.49 18.5,10.49L22.5,10.49L22.5,6.49C22.5,5.42 22.08,4.42 21.33,3.66C20.57,2.91 19.57,2.49 18.5,2.49M23.5,11.49L18.5,11.49C17.16,11.49 15.91,10.97 14.96,10.03C14.02,9.08 13.5,7.83 13.5,6.49C13.5,5.16 14.02,3.9 14.96,2.96C15.91,2.01 17.16,1.49 18.5,1.49C19.83,1.49 21.09,2.01 22.03,2.96C22.98,3.9 23.5,5.16 23.5,6.49ZM25,10.49L29,10.49C29.53,10.49 30.04,10.39 30.53,10.19C31.02,9.99 31.45,9.69 31.83,9.32C32.2,8.95 32.49,8.51 32.69,8.02C32.9,7.53 33,7.02 33,6.49C33,5.97 32.9,5.45 32.69,4.96C32.49,4.47 32.2,4.04 31.83,3.66C31.45,3.29 31.02,3 30.53,2.8C29.06,2.18 27.3,2.53 26.17,3.66C25.41,4.42 25,5.42 25,6.49ZM29,11.49L24,11.49L24,6.49C24,5.16 24.52,3.9 25.46,2.96C26.87,1.54 29.07,1.11 30.91,1.87C31.52,2.12 32.07,2.49 32.53,2.96C33,3.42 33.37,3.97 33.62,4.58C33.87,5.19 34,5.83 34,6.49C34,7.15 33.87,7.79 33.62,8.4C33.37,9.01 33,9.56 32.53,10.03C32.07,10.49 31.52,10.86 30.91,11.11C30.3,11.36 29.66,11.49 29,11.49M3.9,27.74L22.5,27.74L22.5,12.99L2.62,12.99ZM23.5,28.74L2.99,28.74L1.53,11.99L23.5,11.99ZM25,27.74L43.59,27.74L44.88,12.99L25,12.99ZM44.51,28.74L24,28.74L24,11.99L45.97,11.99ZM5.4,44.99L22.5,44.99L22.5,30.24L4.12,30.24ZM23.5,45.99L4.49,45.99L3.03,29.24L23.5,29.24ZM25,44.99L42.09,44.99L43.38,30.24L25,30.24ZM43.01,45.99L24,45.99L24,29.24L44.47,29.24ZM1.25,11.49C1.21,11.49 1.18,11.5 1.14,11.51C1.11,11.53 1.08,11.55 1.06,11.57C1.04,11.6 1.02,11.63 1.01,11.66C1,11.7 0.99,11.73 1,11.77L4,46.27C4,46.33 4.03,46.39 4.08,46.43C4.12,46.47 4.18,46.49 4.24,46.49L4.24,46.99L4.25,46.49L43.25,46.49C43.31,46.49 43.37,46.47 43.42,46.43C43.47,46.38 43.49,46.32 43.5,46.26L46.5,11.76C46.5,11.73 46.5,11.69 46.49,11.66C46.48,11.63 46.46,11.6 46.43,11.57C46.41,11.55 46.38,11.53 46.35,11.51L46.25,11.49L31.64,11.49L32.63,10.62C33.24,10.08 33.71,9.44 34.03,8.7C34.35,7.97 34.51,7.16 34.49,6.37C34.47,5.56 34.28,4.78 33.93,4.06C33.57,3.35 33.06,2.71 32.44,2.21C31.82,1.71 31.08,1.35 30.31,1.15C29.54,0.96 28.72,0.94 27.94,1.1C27.16,1.25 26.4,1.58 25.76,2.05C25.12,2.51 24.57,3.13 24.19,3.82L23.75,4.61L23.31,3.82C22.93,3.13 22.38,2.51 21.74,2.05C21.09,1.58 20.34,1.25 19.56,1.1C18.78,0.95 17.96,0.96 17.19,1.15C16.41,1.35 15.68,1.71 15.06,2.21C14.44,2.71 13.92,3.35 13.57,4.06C13.21,4.78 13.02,5.56 13,6.37C12.99,7.16 13.14,7.97 13.46,8.7C13.78,9.43 14.27,10.09 14.86,10.62L15.85,11.49ZM43.25,47.49L4.24,47.49C3.94,47.49 3.64,47.38 3.41,47.17C3.18,46.96 3.03,46.68 3,46.37L0,11.86C-0.01,11.7 0,11.52 0.06,11.35C0.11,11.18 0.2,11.03 0.32,10.9C0.44,10.77 0.58,10.67 0.74,10.6C0.9,10.53 1.07,10.49 1.25,10.49L13.38,10.49C13.04,10.06 12.76,9.59 12.55,9.1C12.17,8.24 11.98,7.28 12,6.34C12.03,5.39 12.25,4.47 12.67,3.62C13.09,2.77 13.7,2.02 14.43,1.43C15.16,0.84 16.03,0.41 16.95,0.18C17.86,-0.03 18.83,-0.06 19.75,0.12C20.67,0.3 21.56,0.68 22.33,1.24C22.87,1.63 23.35,2.11 23.75,2.66C24.15,2.11 24.63,1.63 25.17,1.24C25.93,0.68 26.82,0.3 27.74,0.12C28.67,-0.06 29.64,-0.03 30.55,0.18C31.46,0.41 32.33,0.84 33.07,1.43C33.8,2.02 34.4,2.77 34.82,3.62C35.24,4.47 35.47,5.39 35.49,6.34C35.51,7.28 35.33,8.24 34.95,9.1C34.73,9.6 34.45,10.07 34.12,10.49L46.25,10.49C46.42,10.49 46.6,10.53 46.75,10.6C46.9,10.66 47.05,10.76 47.17,10.89C47.29,11.02 47.37,11.17 47.43,11.33C47.49,11.49 47.51,11.66 47.5,11.84L44.5,46.35C44.47,46.66 44.33,46.95 44.1,47.16C43.87,47.37 43.57,47.49 43.25,47.49"/>
</svg>