<svg xmlns="http://www.w3.org/2000/svg" width="47.5" height="47.49"><style>.st0{fill:#000}</style><path class="st0" d="M44.05 28.24H24.5V12.49h20.92zM24.5 45.49V29.74h19.42l-1.37 15.75zm-1.5-33v15.75H3.45L2.07 12.49zm6-10.5c.59 0 1.17.12 1.72.34.55.23 1.04.56 1.46.98.42.42.75.91.98 1.46.22.55.34 1.13.34 1.72 0 .59-.12 1.18-.34 1.72-.23.55-.56 1.05-.98 1.46-.42.42-.91.75-1.46.98-.55.23-1.13.34-1.72.34h-4.5v-4.5c0-1.19.47-2.34 1.32-3.18.84-.84 1.99-1.32 3.18-1.32m-15 4.5c0-1.19.47-2.34 1.32-3.18.84-.84 1.99-1.32 3.18-1.32 1.19 0 2.34.48 3.18 1.32.84.84 1.32 1.99 1.32 3.18v4.5h-4.5c-1.19 0-2.34-.47-3.18-1.32A4.471 4.471 0 0114 6.49m-9.05 39L3.57 29.74H23v15.75zm41.3-34.5H32.97A6.003 6.003 0 0030.43.67C29.58.46 28.7.44 27.84.61c-.86.16-1.67.52-2.37 1.03-.71.52-1.3 1.18-1.72 1.94a6.146 6.146 0 00-1.72-1.94c-.71-.51-1.52-.87-2.37-1.03-.86-.17-1.75-.15-2.59.06-.85.21-1.64.6-2.33 1.15-.68.55-1.23 1.24-1.62 2.02a6.24 6.24 0 00-.62 2.52 6.054 6.054 0 002.03 4.63H1.25c-.11 0-.21.02-.31.06a.806.806 0 00-.41.46.8.8 0 00-.03.31l3 34.5c.02.18.1.35.24.48.14.12.32.19.51.19h39c.19 0 .37-.07.51-.2.14-.12.22-.3.24-.49l3-34.5c.01-.1-.01-.21-.04-.3a.744.744 0 00-.16-.27.942.942 0 00-.25-.18.765.765 0 00-.3-.06"/><path class="st0" d="M18.5 2.49c-1.07 0-2.07.42-2.83 1.17-.76.76-1.17 1.76-1.17 2.83s.41 2.07 1.17 2.83c.74.74 1.78 1.17 2.83 1.17h4v-4c0-1.07-.42-2.07-1.17-2.83a4.004 4.004 0 00-2.83-1.17m5 9h-5c-1.34 0-2.59-.52-3.54-1.46-.94-.95-1.46-2.2-1.46-3.54 0-1.33.52-2.59 1.46-3.53.95-.95 2.2-1.47 3.54-1.47 1.33 0 2.59.52 3.53 1.47.95.94 1.47 2.2 1.47 3.53zm1.5-1h4c.53 0 1.04-.1 1.53-.3.49-.2.92-.5 1.3-.87.37-.37.66-.81.86-1.3.21-.49.31-1 .31-1.53 0-.52-.1-1.04-.31-1.53-.2-.49-.49-.92-.86-1.3-.38-.37-.81-.66-1.3-.86-1.47-.62-3.23-.27-4.36.86-.76.76-1.17 1.76-1.17 2.83zm4 1h-5v-5c0-1.33.52-2.59 1.46-3.53 1.41-1.42 3.61-1.85 5.45-1.09.61.25 1.16.62 1.62 1.09.47.46.84 1.01 1.09 1.62a5.006 5.006 0 010 3.82c-.25.61-.62 1.16-1.09 1.63A5.006 5.006 0 0129 11.49M3.9 27.74h18.6V12.99H2.62zm19.6 1H2.99L1.53 11.99H23.5zm1.5-1h18.59l1.29-14.75H25zm19.51 1H24V11.99h21.97zM5.4 44.99h17.1V30.24H4.12zm18.1 1H4.49L3.03 29.24H23.5zm1.5-1h17.09l1.29-14.75H25zm18.01 1H24V29.24h20.47zM1.25 11.49c-.04 0-.07.01-.11.02-.03.02-.06.04-.08.06-.02.03-.04.06-.05.09-.01.04-.02.07-.01.11l3 34.5c0 .06.03.12.08.16.04.04.1.06.16.06v.5l.01-.5h39c.06 0 .12-.02.17-.06.05-.05.07-.11.08-.17l3-34.5c0-.03 0-.07-.01-.1a.236.236 0 00-.06-.09.555.555 0 00-.08-.06l-.1-.02H31.64l.99-.87a5.512 5.512 0 001.86-4.25c-.02-.81-.21-1.59-.56-2.31a5.69 5.69 0 00-1.49-1.85c-.62-.5-1.36-.86-2.13-1.06-.77-.19-1.59-.21-2.37-.05-.78.15-1.54.48-2.18.95a5.44 5.44 0 00-1.57 1.77l-.44.79-.44-.79a5.44 5.44 0 00-1.57-1.77c-.65-.47-1.4-.8-2.18-.95a5.57 5.57 0 00-2.37.05 5.564 5.564 0 00-3.62 2.91c-.36.72-.55 1.5-.57 2.31-.01.79.14 1.6.46 2.33s.81 1.39 1.4 1.92l.99.87zm42 36H4.24c-.3 0-.6-.11-.83-.32-.23-.21-.38-.49-.41-.8L0 11.86c-.01-.16 0-.34.06-.51.05-.17.14-.32.26-.45s.26-.23.42-.3c.16-.07.33-.11.51-.11h12.13A6.548 6.548 0 0112 6.34c.03-.95.25-1.87.67-2.72a6.58 6.58 0 011.76-2.19c.73-.59 1.6-1.02 2.52-1.25.91-.21 1.88-.24 2.8-.06.92.18 1.81.56 2.58 1.12.54.39 1.02.87 1.42 1.42.4-.55.88-1.03 1.42-1.42.76-.56 1.65-.94 2.57-1.12.93-.18 1.9-.15 2.81.06.91.23 1.78.66 2.52 1.25.73.59 1.33 1.34 1.75 2.19.42.85.65 1.77.67 2.72.02.94-.16 1.9-.54 2.76-.22.5-.5.97-.83 1.39h12.13c.17 0 .35.04.5.11a1.177 1.177 0 01.68.73c.06.16.08.33.07.51l-3 34.51a1.256 1.256 0 01-1.25 1.14"/></svg>