<svg xmlns="http://www.w3.org/2000/svg" viewBox="0 0 50 50"><path d="M15.91 12.41l1.03.29c.39.15.68 0 .83-.44 1.12-2.79 3.27-4.2 6.4-4.2 3.67 0 5.81 2.05 5.81 4.94 0 1.71-.34 2.83-1.37 3.91-.54.54-.93.93-1.17 1.12-.29.24-.83.59-1.56 1.12-2.49 1.56-3.76 3.03-3.76 6.16 0 .44.2.64.63.64h.78c.44 0 .68-.2.68-.64.2-2.44 1.32-3.32 3.08-4.54.1-.05.24-.15.39-.24 1.37-.93 2.1-1.42 3.18-2.59s1.56-2.88 1.56-5.03c0-4.06-3.13-7.09-8.16-7.09-4.35 0-7.28 1.91-8.75 5.67-.14.43-.04.77.4.92zm7.18 16.12c-1.12 0-1.42.34-1.42 1.37v.2c0 1.03.29 1.37 1.42 1.37h.2c1.03 0 1.32-.34 1.32-1.37v-.2c0-1.03-.29-1.37-1.32-1.37h-.2z"/><path d="M10.61.35h28.3c2.81 0 5.22.98 7.22 2.95 2 2 3 4.41 3 7.22v17.32c0 2.81-1 5.22-3 7.22s-4.41 3-7.22 3H22.97l-10.4 9.64c-.85.73-1.79.9-2.83.52-1.08-.46-1.62-1.27-1.62-2.43v-8.08c-2.27-.54-4.12-1.73-5.57-3.58C1.11 32.28.38 30.18.38 27.84V10.51c0-2.81 1-5.22 3-7.22C5.39 1.33 7.8.35 10.61.35zm28.3 2.71h-28.3c-2.04 0-3.79.73-5.25 2.19s-2.19 3.22-2.19 5.26v17.32c0 2.16.69 3.9 2.08 5.23 1.39 1.33 3.25 2.13 5.6 2.4v10.11l11.03-10.28h17.04c2.04 0 3.79-.73 5.26-2.19 1.46-1.46 2.19-3.21 2.19-5.26V10.51c0-2.04-.73-3.79-2.19-5.26-1.48-1.45-3.23-2.19-5.27-2.19z"/></svg>