<svg xmlns="http://www.w3.org/2000/svg" viewBox="0 0 19 17">
	<style type="text/css">
		.st0{fill:#212b36;}
	</style>
	<path class="st0" d="M16.72,11.58C16.39,11.79 16.07,11.9 15.86,11.94C15.75,11.97 15.64,11.98 15.52,11.99L4.49,12C4.22,12 3.99,12.22 3.99,12.5C3.99,12.77 4.22,13 4.49,13L16.49,13C16.79,13.01 17.03,13.07 17.27,13.19C17.46,13.28 17.63,13.43 17.76,13.61C17.92,13.84 17.99,14.14 17.99,14.5C17.99,14.85 17.92,15.15 17.76,15.38C17.63,15.56 17.46,15.71 17.26,15.8C17.03,15.91 16.79,15.97 16.54,15.99L4.48,16C4.29,15.98 4.12,15.97 3.95,15.94C3.53,15.87 3.12,15.74 2.72,15.55C2.22,15.3 1.82,14.95 1.54,14.53C1.18,13.99 0.99,13.31 0.99,12.5C0.99,11.68 1.18,11 1.54,10.46C1.82,10.04 2.22,9.69 2.72,9.44C3.11,9.25 3.53,9.12 3.95,9.05C4.09,9.03 4.22,9.01 4.36,9L4.47,9L14.49,9C14.77,9 14.99,8.77 14.99,8.5C14.99,8.22 14.77,7.99 14.49,7.99L4.49,7.99C4.29,7.98 4.12,7.97 3.95,7.94C3.65,7.89 3.18,7.78 2.72,7.55C2.22,7.3 1.82,6.95 1.54,6.53C1.18,5.99 0.99,5.31 0.99,4.49C0.99,3.68 1.18,3 1.54,2.46C1.82,2.04 2.22,1.69 2.72,1.44C3.19,1.21 3.65,1.1 3.95,1.05C4.09,1.03 4.22,1.01 4.36,1L4.49,1L16.49,1C16.77,1.01 17.02,1.07 17.27,1.19C17.46,1.28 17.63,1.42 17.76,1.6C17.92,1.84 17.99,2.14 17.99,2.5C17.99,2.85 17.92,3.15 17.77,3.37C17.63,3.56 17.46,3.71 17.26,3.8C17.04,3.91 16.79,3.97 16.54,3.99L4.49,3.99C4.22,3.99 3.99,4.22 3.99,4.49C3.99,4.77 4.22,4.99 4.49,4.99L15.52,5.01C15.94,5.13 16.34,5.32 16.69,5.58C17.56,6.23 17.99,7.21 17.99,8.5C17.99,9.97 17.57,11.01 16.72,11.58M17.48,4.87L17.97,4.55C18.22,4.39 18.43,4.18 18.6,3.93C18.86,3.53 18.99,3.05 18.99,2.5C18.99,1.94 18.86,1.46 18.6,1.06C18.38,0.74 18.09,0.48 17.72,0.3C17.37,0.13 17,0.03 16.62,0C16.58,0 16.54,0 16.51,0L4.49,0C4.26,0 4.02,0.02 3.79,0.06C3.26,0.15 2.75,0.31 2.27,0.55C1.64,0.86 1.09,1.33 0.7,1.91C0.23,2.61 0,3.48 0,4.49C0,5.51 0.23,6.38 0.7,7.08C0.97,7.48 1.29,7.81 1.68,8.09L2.26,8.5L1.68,8.9C1.29,9.18 0.97,9.51 0.7,9.9C0.23,10.61 0,11.48 0,12.5C0,13.51 0.23,14.38 0.7,15.09C1.1,15.66 1.64,16.13 2.27,16.44C2.75,16.68 3.26,16.84 3.79,16.93C3.96,16.95 4.12,16.97 4.29,16.99C4.35,16.99 4.41,17 4.47,17L16.49,17C16.93,16.98 17.34,16.88 17.72,16.69C18.09,16.51 18.38,16.25 18.6,15.93C18.86,15.53 18.99,15.05 18.99,14.5C18.99,13.94 18.86,13.46 18.6,13.06C18.46,12.85 18.28,12.66 18.07,12.51L17.63,12.19L17.98,11.78C18.65,10.99 18.99,9.89 18.99,8.5C18.99,7.2 18.62,6.13 17.87,5.3Z"/>
</svg>