<svg version="1.2" baseProfile="tiny-ps" xmlns="http://www.w3.org/2000/svg" width="1536" height="1268"><style>.shp0{fill:#000}</style><g id="Capa 1"><g id="&lt;Group&gt;"><path id="&lt;Compound Path&gt;" fill-rule="evenodd" class="shp0" d="M1506 304.78c16.56 0 30 13.43 30 30v638.26c0 16.57-13.44 30-30 30h-87.87v234.7c0 16.57-13.43 30-30 30H30c-16.57 0-30-13.43-30-30v-133.62c0-16.57 13.43-30 30-30h26.55v-28.67c0-56.47 45.94-102.41 102.41-102.41h392.97c56.47 0 102.4 45.94 102.4 102.41v28.67h230.82V542.1H651.33L522.45 719.12a29.992 29.992 0 01-24.26 12.34H342.08v98.04c0 16.57-13.43 30-30 30s-30-13.43-30-30v-98.04H175.83c-16.57 0-30-13.43-30-30V275.73c0-95 54.07-149.49 148.35-149.49h62.36V80.28c0-44.12 35.89-80.02 80.02-80.02H997.4c44.12 0 80.02 35.9 80.02 80.02v45.96h118.94V30.26c0-16.57 13.44-30 30-30 16.57 0 30 13.43 30 30v96.75c90.3 8.42 161.29 84.86 161.77 177.77H1506zM416.54 126.24h600.88V80.28c0-11.04-8.98-20.02-20.02-20.02H436.56c-11.04 0-20.02 8.98-20.02 20.02v45.96zM945.15 512.1v562.02h412.98V305.73c0-65.89-53.09-119.49-118.35-119.49h-945.6c-60.28 0-88.35 28.44-88.35 89.49v395.73h277.1l128.88-177.02a30.002 30.002 0 0124.25-12.34h279.09c16.56 0 30 13.43 30 30zm-828.6 562.02h477.79v-28.67c0-23.39-19.03-42.41-42.4-42.41H158.96c-23.38 0-42.41 19.02-42.41 42.41v28.67zm1241.58 60H60v73.62h1298.13v-73.62zM1476 364.78h-57.87v578.26H1476V364.78z"/><path id="&lt;Compound Path&gt;" fill-rule="evenodd" class="shp0" d="M995.47 703.87c0-81.96 66.67-148.64 148.61-148.64 81.94 0 148.61 66.68 148.61 148.64 0 81.95-66.67 148.63-148.61 148.63-81.94 0-148.61-66.68-148.61-148.63zm60 0c0 48.87 39.75 88.63 88.61 88.63s88.61-39.76 88.61-88.63c0-48.88-39.75-88.64-88.61-88.64s-88.61 39.76-88.61 88.64zm-23.64-355.67c0-61.91 50.36-112.27 112.25-112.27s112.25 50.36 112.25 112.27-50.36 112.27-112.25 112.27-112.25-50.36-112.25-112.27zm60 0c0 28.83 23.44 52.27 52.25 52.27s52.25-23.44 52.25-52.27c0-28.82-23.44-52.27-52.25-52.27s-52.25 23.45-52.25 52.27z"/><path id="&lt;Path&gt;" class="shp0" d="M897.42 318.2H536.54c-16.57 0-30 13.43-30 30 0 16.56 13.43 30 30 30h360.88c16.57 0 30-13.44 30-30 0-16.57-13.43-30-30-30z"/></g></g></svg>