<svg version="1.2" baseProfile="tiny-ps" xmlns="http://www.w3.org/2000/svg" viewBox="0 0 1536 1268" width="1536" height="1268">
	<title>Capa 1</title>
	<style>
		tspan { white-space:pre }
		.shp0 { fill: #000000 } 
	</style>
	<g id="Capa 1">
		<g id="&lt;Group&gt;">
			<path id="&lt;Compound Path&gt;" fill-rule="evenodd" class="shp0" d="M1506 304.78C1522.56 304.78 1536 318.21 1536 334.78L1536 973.04C1536 989.61 1522.56 1003.04 1506 1003.04L1418.13 1003.04L1418.13 1237.74C1418.13 1254.31 1404.7 1267.74 1388.13 1267.74L30 1267.74C13.43 1267.74 0 1254.31 0 1237.74L0 1104.12C0 1087.55 13.43 1074.12 30 1074.12L56.55 1074.12L56.55 1045.45C56.55 988.98 102.49 943.04 158.96 943.04L551.93 943.04C608.4 943.04 654.33 988.98 654.33 1045.45L654.33 1074.12L885.15 1074.12L885.15 542.1L651.33 542.1L522.45 719.12C516.8 726.88 507.79 731.46 498.19 731.46L342.08 731.46L342.08 829.5C342.08 846.07 328.65 859.5 312.08 859.5C295.51 859.5 282.08 846.07 282.08 829.5L282.08 731.46L175.83 731.46C159.26 731.46 145.83 718.03 145.83 701.46L145.83 275.73C145.83 180.73 199.9 126.24 294.18 126.24L356.54 126.24L356.54 80.28C356.54 36.16 392.43 0.26 436.56 0.26L997.4 0.26C1041.52 0.26 1077.42 36.16 1077.42 80.28L1077.42 126.24L1196.36 126.24L1196.36 30.26C1196.36 13.69 1209.8 0.26 1226.36 0.26C1242.93 0.26 1256.36 13.69 1256.36 30.26L1256.36 127.01C1346.66 135.43 1417.65 211.87 1418.13 304.78L1506 304.78ZM416.54 126.24L1017.42 126.24L1017.42 80.28C1017.42 69.24 1008.44 60.26 997.4 60.26L436.56 60.26C425.52 60.26 416.54 69.24 416.54 80.28L416.54 126.24ZM945.15 512.1L945.15 1074.12L1358.13 1074.12L1358.13 305.73C1358.13 239.84 1305.04 186.24 1239.78 186.24L294.18 186.24C233.9 186.24 205.83 214.68 205.83 275.73L205.83 671.46L482.93 671.46L611.81 494.44C617.46 486.68 626.48 482.1 636.06 482.1L915.15 482.1C931.71 482.1 945.15 495.53 945.15 512.1ZM116.55 1074.12L594.34 1074.12L594.34 1045.45C594.34 1022.06 575.31 1003.04 551.94 1003.04L158.96 1003.04C135.58 1003.04 116.55 1022.06 116.55 1045.45L116.55 1074.12ZM1358.13 1134.12L60 1134.12L60 1207.74L1358.13 1207.74L1358.13 1134.12ZM1476 364.78L1418.13 364.78L1418.13 943.04L1476 943.04L1476 364.78Z" />
			<path id="&lt;Compound Path&gt;" fill-rule="evenodd" class="shp0" d="M995.47 703.87C995.47 621.91 1062.14 555.23 1144.08 555.23C1226.02 555.23 1292.69 621.91 1292.69 703.87C1292.69 785.82 1226.02 852.5 1144.08 852.5C1062.14 852.5 995.47 785.82 995.47 703.87ZM1055.47 703.87C1055.47 752.74 1095.22 792.5 1144.08 792.5C1192.94 792.5 1232.69 752.74 1232.69 703.87C1232.69 654.99 1192.94 615.23 1144.08 615.23C1095.22 615.23 1055.47 654.99 1055.47 703.87Z" />
			<path id="&lt;Compound Path&gt;" fill-rule="evenodd" class="shp0" d="M1031.83 348.2C1031.83 286.29 1082.19 235.93 1144.08 235.93C1205.97 235.93 1256.33 286.29 1256.33 348.2C1256.33 410.11 1205.97 460.47 1144.08 460.47C1082.19 460.47 1031.83 410.11 1031.83 348.2ZM1091.83 348.2C1091.83 377.03 1115.27 400.47 1144.08 400.47C1172.89 400.47 1196.33 377.03 1196.33 348.2C1196.33 319.38 1172.89 295.93 1144.08 295.93C1115.27 295.93 1091.83 319.38 1091.83 348.2Z" />
			<path id="&lt;Path&gt;" class="shp0" d="M897.42 318.2L536.54 318.2C519.97 318.2 506.54 331.63 506.54 348.2C506.54 364.76 519.97 378.2 536.54 378.2L897.42 378.2C913.99 378.2 927.42 364.76 927.42 348.2C927.42 331.63 913.99 318.2 897.42 318.2Z" />
		</g>
	</g>
</svg>