<svg xmlns="http://www.w3.org/2000/svg" width="523.86" height="598.27"><style>.st0{fill:#fa8242}</style><path class="st0" d="M147.73 276.91c-2.62-2.62-6.11-4.06-9.83-4.06-3.72 0-7.21 1.44-9.83 4.06a13.836 13.836 0 00-4.06 9.83c0 3.72 1.44 7.21 4.06 9.83l99.22 99.22c2.64 2.61 6.14 4.06 9.84 4.06 3.71 0 7.19-1.45 9.81-4.07l173.63-173.62c2.62-2.62 4.06-6.11 4.06-9.83 0-3.71-1.44-7.2-4.06-9.83a13.836 13.836 0 00-9.83-4.06c-3.72 0-7.21 1.44-9.83 4.06L237.13 366.29z"/><path class="st0" d="M496.06 98.65v262.49c0 27.2-13.99 70.93-80.64 124.77-44.15 35.66-101.49 67-153.49 83.88-52-16.88-109.34-48.22-153.49-83.88-66.65-53.84-80.64-97.57-80.64-124.77V98.65l234.13-70.24zm17.88-23.66L265.91.57c-2.6-.76-5.38-.76-7.98.01L9.9 74.98C4.07 76.73 0 82.2 0 88.3v272.84c0 110.47 167.91 208.55 257.81 236.52 1.3.41 2.69.61 4.12.61 1.43 0 2.82-.2 4.12-.61 89.9-27.99 257.82-126.11 257.82-236.52V88.3c0-6.17-3.99-11.52-9.93-13.31"/></svg>