<svg version="1.2" baseProfile="tiny-ps" xmlns="http://www.w3.org/2000/svg" width="1452" height="1536"><style>.shp0{fill:#000}</style><g id="Layer 1"><g id="&lt;Group&gt;"><path id="&lt;Path&gt;" class="shp0" d="M330.85 196.13c3.25-.01 6.46-.77 9.37-2.22l53.67-26.82c10.37-5.19 14.58-17.8 9.39-28.18-5.18-10.37-17.8-14.58-28.17-9.39l-53.67 26.82c-10.37 5.17-14.59 17.78-9.42 28.16a21.011 21.011 0 0018.83 11.63zm7.66 712.89c-11.6 0-21 9.41-21 21v60c0 11.6 9.4 21 21 21s21-9.4 21-21v-60c0-11.59-9.39-20.99-20.98-21h-.02zM392.96 990c-.01 11.6 9.38 21.01 20.98 21.02H474c11.6 0 21-9.4 21-21 0-11.59-9.4-21-21-21h-60c-11.6-.01-21.02 9.37-21.04 20.97v.01zm104.15-852h60c11.6 0 21-9.4 21-21s-9.4-21-21-21h-60c-11.6 0-21 9.4-21 21s9.4 21 21 21zm-158.6 591.02c-11.6 0-21 9.41-21 21v60c0 11.6 9.4 21 21 21s21-9.4 21-21v-60c0-11.59-9.39-20.99-20.98-21h-.02zM294 354.24c-3.88-10.91-15.86-16.61-26.77-12.73-.03.01-.05.01-.07.02l-56.51 20.21c-10.86 4.08-16.36 16.18-12.28 27.04 3.98 10.62 15.68 16.16 26.42 12.5l56.5-20.21c10.92-3.89 16.61-15.9 12.71-26.82v-.01zm300 656.78h60c11.6 0 21-9.4 21-21 0-11.59-9.4-21-21-21h-60c-11.6 0-21 9.41-21 21 0 11.6 9.4 21 21 21zM242.28 219.4c-5.2-10.37-17.8-14.57-28.18-9.4l-53.66 26.83c-10.38 5.19-14.58 17.8-9.4 28.18 5.19 10.37 17.8 14.58 28.18 9.39l53.68-26.83c10.37-5.19 14.57-17.8 9.38-28.17zm-124.56 103c-11.6 0-21 9.41-21 21v60c0 11.6 9.4 21 21 21s21-9.4 21-21v-60c0-11.59-9.4-21-21-21zm220.79 46.62c-11.6 0-21 9.41-21 21v60c0 11.6 9.4 21 21 21s21-9.4 21-21v-60c0-11.59-9.39-20.99-20.98-21h-.02zm0 180c-11.6 0-21 9.41-21 21v60c0 11.6 9.4 21 21 21s21-9.4 21-21v-60c0-11.59-9.39-20.99-20.98-21h-.02zm319.5-373.95c0 11.6 9.4 21 21 21s21-9.4 21-21v-58.09c-.01-11.59-9.41-20.99-21-20.98h-1.9c-11.62.02-21.02 9.46-21 21.07.01 3 .66 5.96 1.9 8.69v49.31zm21 639c-11.6 0-21 9.4-21 21v60c0 11.6 9.4 21 21 21s21-9.4 21-21v-60c0-11.59-9.39-20.99-20.98-21h-.02zm0-540c-11.6 0-21 9.4-21 21v60c0 11.6 9.4 21 21 21s21-9.4 21-21v-60c0-11.59-9.39-20.99-20.98-21h-.02zm0 180c-11.6 0-21 9.4-21 21v60c0 11.6 9.4 21 21 21s21-9.4 21-21v-60c0-11.59-9.39-20.99-20.98-21h-.02zm0 180c-11.6 0-21 9.4-21 21v60c0 11.6 9.4 21 21 21s21-9.4 21-21v-60c0-11.59-9.39-20.99-20.98-21h-.02zM797.02 1398h-3.04v-15c0-11.6-9.4-21-21-21s-21 9.4-21 21v36c0 11.6 9.4 21 21 21h24c11.6 0 21-9.4 21-21s-9.4-21-21-21h.04zm436.82-714.12l53.66 26.83c10.34 5.26 22.98 1.15 28.25-9.18 5.26-10.34 1.14-22.98-9.19-28.25-.1-.04-.19-.09-.29-.14l-53.66-26.83c-10.42-5.1-23-.8-28.1 9.62-5.05 10.3-.89 22.74 9.33 27.95zm79.44 151.54c-.49.92-.91 1.87-1.26 2.85-3.89 10.92 1.81 22.93 12.73 26.81.01.01.02.01.03.01l2.47.89c10.93 3.88 22.94-1.85 26.82-12.78.8-2.25 1.21-4.62 1.21-7.01v-57.38c0-11.6-9.4-21-21-21s-21 9.4-21 21v46.61zm-199.8-20.99c-11.6 0-21 9.4-21 21v60c0 11.6 9.4 21 21 21s21-9.4 21-21v-60c.01-11.59-9.39-20.99-20.98-21h-.02zM772.98 1284c11.59.01 20.99-9.38 21-20.98V1203c0-11.6-9.4-21-21-21s-21 9.4-21 21v60c0 11.6 9.4 21 21 21zm369.55-506.34c-3.9 10.92 1.78 22.93 12.7 26.83h.01l56.49 20.2c10.94 3.9 22.97-1.8 26.87-12.73 3.91-10.94-1.79-22.97-12.73-26.87l-56.5-20.2c-10.9-3.9-22.9 1.77-26.8 12.67-.02.03-.03.07-.04.1zm-69.73-174.28l53.67 26.85c10.38 5.18 23 .98 28.18-9.4 5.19-10.37.98-22.99-9.39-28.17l-53.67-26.85c-10.37-5.19-22.99-.98-28.18 9.39-5.19 10.38-.99 23 9.39 28.18zm40.68 391.05c-11.6 0-21 9.4-21 21v60c0 11.6 9.4 21 21 21s21-9.4 21-21v-60c.01-11.59-9.39-20.99-20.98-21h-.02zM977.02 1398h-60c-11.6 0-21 9.4-21 21s9.4 21 21 21h60c11.59 0 21-9.4 21-21s-9.41-21-21-21zm-64.3-831.07h58.63c11.6 0 21-9.4 21-21s-9.4-21-21-21h-58.63c-11.6 0-21 9.4-21 21s9.4 21 21 21zm200.76 607.5c-11.6 0-21 9.4-21 21v60c0 11.6 9.4 21 21 21s21-9.4 21-21v-60c.01-11.59-9.39-20.99-20.98-21h-.02zm0 180c-11.6 0-21 9.4-21 21v23.03c-11.35 2.4-18.6 13.54-16.2 24.89 2.07 9.77 10.74 16.74 20.74 16.65h16.46c11.59.01 20.99-9.38 21-20.98v-43.56c.02-11.59-9.35-21.01-20.94-21.03h-.06z"/><path id="&lt;Compound Path&gt;" fill-rule="evenodd" class="shp0" d="M1451.27 651.25v331.2c0 2.41-.42 4.8-1.23 7.07-3.9 10.92-15.92 16.61-26.84 12.71l-192.72-68.9v581.69c-.01 11.6-9.41 20.99-21 20.98h-532.5c-11.6 0-21-9.4-21-21v-408H242.52c-11.6 0-21-9.4-21-21V504.38L28.8 573.26c-2.28.82-4.69 1.24-7.11 1.24-11.58 0-20.97-9.39-20.97-20.98v-331.2c0-7.95 4.49-15.22 11.6-18.78L415.09 2.22C418.01.76 421.22 0 424.49 0h350.52c11.57-.01 20.97 9.36 21 20.93v408h231.5c3.26 0 6.48.76 9.4 2.22l402.76 201.35a21.006 21.006 0 0111.6 18.75zM263.51 474.62v590.4h490.5V42H429.44L42.72 235.31v288.38L235.4 454.8a20.843 20.843 0 0119.2 2.6 20.974 20.974 0 018.91 17.22zm1145.77 189.64l-386.73-193.33H796.01v615.12c-.01 11.59-9.41 20.98-21 20.97h-77.03v386.91h490.5v-590.4c0-2.42.41-4.81 1.23-7.09 3.91-10.91 15.92-16.58 26.84-12.68l192.73 68.88V664.26z"/></g></g></svg>