<svg version="1.2" baseProfile="tiny-ps" xmlns="http://www.w3.org/2000/svg" viewBox="0 0 940 941" width="940" height="941">
	<title>Layer 1</title>
	<style>
		tspan { white-space:pre }
		.shp0 { fill: #000000;stroke: #000000;stroke-width: 10 } 
	</style>
	<g id="Layer 1">
		<path id="&lt;Compound Path&gt;" fill-rule="evenodd" class="shp0" d="M833.61 78.95C858.24 106.02 873.16 140.51 876.05 177.01L935 859.65C935.2 861.74 934.94 863.83 934.26 865.8C933.59 867.8 932.54 869.59 931.11 871.14C929.71 872.68 927.99 873.91 926.07 874.75C924.16 875.57 922.09 876 920 876L789.65 876L791.76 921C791.76 924.98 790.18 928.79 787.34 931.61C784.55 934.42 780.74 936 776.76 936L163.11 936C159.12 936 155.31 934.42 152.5 931.61C149.68 928.79 148.11 924.98 148.11 921L150.21 876L20 876C17.91 876 15.85 875.57 13.94 874.75C12.02 873.91 10.3 872.68 8.89 871.14C7.48 869.59 6.4 867.8 5.73 865.8C5.06 863.83 4.81 861.74 5 859.65L63.35 177.46C66.16 140.8 81.14 106.14 105.9 78.96C130.65 51.79 163.77 33.66 200 27.46L323.45 6C326.26 5.46 329.17 5.75 331.83 6.81C334.49 7.87 336.79 9.67 338.45 12C373.85 60.15 420.35 87.01 469.55 87.01C518.75 87.01 565.25 60.75 600.66 12C602.32 9.67 604.61 7.87 607.27 6.81C609.92 5.75 612.85 5.46 615.66 6L740 27.46C776.05 33.75 808.98 51.88 833.61 78.95ZM788.3 846L903.65 846L846.35 179.55C844.02 149.6 831.76 121.29 811.52 99.1C791.27 76.9 764.22 62.08 734.61 57L620 37.35C579.2 89.4 526.7 117.9 470 117.9C413.3 117.9 360.5 89.4 320 37.35L205.7 57C176.11 62.07 149.07 76.87 128.83 99.04C108.59 121.2 96.32 149.48 93.96 179.4L36.35 846L151.7 846L178.85 277.35C178.85 273.37 180.43 269.55 183.24 266.74C186.05 263.93 189.87 262.35 193.85 262.35C197.7 262.54 201.33 264.2 203.97 267.01C206.63 269.79 208.11 273.5 208.11 277.35L180.95 861L178.85 906L761.15 906L759.06 861L732.5 276C732.5 272.15 733.98 268.44 736.64 265.65C739.28 262.86 742.91 261.2 746.76 261C750.74 261 754.55 262.58 757.34 265.39C760.18 268.21 761.76 272.03 761.76 276L788.3 846Z" />
	</g>
</svg>