<svg version="1.2" baseProfile="tiny-ps" xmlns="http://www.w3.org/2000/svg" width="940" height="941"><style/><g id="Layer 1"><path id="&lt;Compound Path&gt;" fill-rule="evenodd" d="M833.61 78.95a165.038 165.038 0 0142.44 98.06L935 859.65c.2 2.09-.06 4.18-.74 6.15-.67 2-1.72 3.79-3.15 5.34-1.4 1.54-3.12 2.77-5.04 3.61-1.91.82-3.98 1.25-6.07 1.25H789.65l2.11 45c0 3.98-1.58 7.79-4.42 10.61-2.79 2.81-6.6 4.39-10.58 4.39H163.11a14.992 14.992 0 01-15-15l2.1-45H20c-2.09 0-4.15-.43-6.06-1.25-1.92-.84-3.64-2.07-5.05-3.61-1.41-1.55-2.49-3.34-3.16-5.34a14.89 14.89 0 01-.73-6.15l58.35-682.19a164.986 164.986 0 0142.55-98.5 164.926 164.926 0 0194.1-51.5L323.45 6c2.81-.54 5.72-.25 8.38.81 2.66 1.06 4.96 2.86 6.62 5.19 35.4 48.15 81.9 75.01 131.1 75.01 49.2 0 95.7-26.26 131.11-75.01 1.66-2.33 3.95-4.13 6.61-5.19a15.03 15.03 0 018.39-.81L740 27.46c36.05 6.29 68.98 24.42 93.61 51.49zM788.3 846h115.35l-57.3-666.45a134.906 134.906 0 00-34.83-80.45A134.991 134.991 0 00734.61 57L620 37.35c-40.8 52.05-93.3 80.55-150 80.55S360.5 89.4 320 37.35L205.7 57a134.946 134.946 0 00-76.87 42.04 134.886 134.886 0 00-34.87 80.36L36.35 846H151.7l27.15-568.65c0-3.98 1.58-7.8 4.39-10.61a15.01 15.01 0 0110.61-4.39c3.85.19 7.48 1.85 10.12 4.66a14.96 14.96 0 014.14 10.34L180.95 861l-2.1 45h582.3l-2.09-45-26.56-585c0-3.85 1.48-7.56 4.14-10.35a15 15 0 0110.12-4.65c3.98 0 7.79 1.58 10.58 4.39 2.84 2.82 4.42 6.64 4.42 10.61l26.54 570z" fill="#000" stroke="#000" stroke-width="10"/></g></svg>