<svg version="1.2" baseProfile="tiny-ps" xmlns="http://www.w3.org/2000/svg" viewBox="0 0 1452 1536" width="1452" height="1536">
	<title>Layer 1</title>
	<style>
		tspan { white-space:pre }
		.shp0 { fill: #000000 } 
	</style>
	<g id="Layer 1">
		<g id="&lt;Group&gt;">
			<path id="&lt;Path&gt;" class="shp0" d="M330.85 196.13C334.1 196.12 337.31 195.36 340.22 193.91L393.89 167.09C404.26 161.9 408.47 149.29 403.28 138.91C398.1 128.54 385.48 124.33 375.11 129.52L321.44 156.34C311.07 161.51 306.85 174.12 312.02 184.5C315.58 191.64 322.88 196.14 330.85 196.13Z" />
			<path id="&lt;Path&gt;" class="shp0" d="M338.51 909.02C326.91 909.02 317.51 918.43 317.51 930.02L317.51 990.02C317.51 1001.62 326.91 1011.02 338.51 1011.02C350.11 1011.02 359.51 1001.62 359.51 990.02L359.51 930.02C359.51 918.43 350.12 909.03 338.53 909.02C338.52 909.02 338.52 909.02 338.51 909.02Z" />
			<path id="&lt;Path&gt;" class="shp0" d="M392.96 990C392.95 1001.6 402.34 1011.01 413.94 1011.02C413.96 1011.02 413.98 1011.02 414 1011.02L474 1011.02C485.6 1011.02 495 1001.62 495 990.02C495 978.43 485.6 969.02 474 969.02L414 969.02C402.4 969.01 392.98 978.39 392.96 989.99C392.96 989.99 392.96 989.99 392.96 990Z" />
			<path id="&lt;Path&gt;" class="shp0" d="M497.11 138L557.11 138C568.71 138 578.11 128.6 578.11 117C578.11 105.4 568.71 96 557.11 96L497.11 96C485.51 96 476.11 105.4 476.11 117C476.11 128.6 485.51 138 497.11 138Z" />
			<path id="&lt;Path&gt;" class="shp0" d="M338.51 729.02C326.91 729.02 317.51 738.43 317.51 750.02L317.51 810.02C317.51 821.62 326.91 831.02 338.51 831.02C350.11 831.02 359.51 821.62 359.51 810.02L359.51 750.02C359.51 738.43 350.12 729.03 338.53 729.02C338.52 729.02 338.52 729.02 338.51 729.02Z" />
			<path id="&lt;Path&gt;" class="shp0" d="M294 354.24C290.12 343.33 278.14 337.63 267.23 341.51C267.2 341.52 267.18 341.52 267.16 341.53L210.65 361.74C199.79 365.82 194.29 377.92 198.37 388.78C202.35 399.4 214.05 404.94 224.79 401.28L281.29 381.07C292.21 377.18 297.9 365.17 294 354.25C294 354.25 294 354.24 294 354.24Z" />
			<path id="&lt;Path&gt;" class="shp0" d="M594 1011.02L654 1011.02C665.6 1011.02 675 1001.62 675 990.02C675 978.43 665.6 969.02 654 969.02L594 969.02C582.4 969.02 573 978.43 573 990.02C573 1001.62 582.4 1011.02 594 1011.02Z" />
			<path id="&lt;Path&gt;" class="shp0" d="M242.28 219.4C237.08 209.03 224.48 204.83 214.1 210L160.44 236.83C150.06 242.02 145.86 254.63 151.04 265.01C156.23 275.38 168.84 279.59 179.22 274.4L232.9 247.57C243.27 242.38 247.47 229.77 242.28 219.4Z" />
			<path id="&lt;Path&gt;" class="shp0" d="M117.72 322.4C106.12 322.4 96.72 331.81 96.72 343.4L96.72 403.4C96.72 415 106.12 424.4 117.72 424.4C129.32 424.4 138.72 415 138.72 403.4L138.72 343.4C138.72 331.81 129.32 322.4 117.72 322.4Z" />
			<path id="&lt;Path&gt;" class="shp0" d="M338.51 369.02C326.91 369.02 317.51 378.43 317.51 390.02L317.51 450.02C317.51 461.62 326.91 471.02 338.51 471.02C350.11 471.02 359.51 461.62 359.51 450.02L359.51 390.02C359.51 378.43 350.12 369.03 338.53 369.02C338.52 369.02 338.52 369.02 338.51 369.02Z" />
			<path id="&lt;Path&gt;" class="shp0" d="M338.51 549.02C326.91 549.02 317.51 558.43 317.51 570.02L317.51 630.02C317.51 641.62 326.91 651.02 338.51 651.02C350.11 651.02 359.51 641.62 359.51 630.02L359.51 570.02C359.51 558.43 350.12 549.03 338.53 549.02C338.52 549.02 338.52 549.02 338.51 549.02Z" />
			<path id="&lt;Path&gt;" class="shp0" d="M658.01 175.07C658.01 186.67 667.41 196.07 679.01 196.07C690.61 196.07 700.01 186.67 700.01 175.07L700.01 116.98C700 105.39 690.6 95.99 679.01 96L677.11 96C665.49 96.02 656.09 105.46 656.11 117.07C656.12 120.07 656.77 123.03 658.01 125.76L658.01 175.07Z" />
			<path id="&lt;Path&gt;" class="shp0" d="M679.01 814.07C667.41 814.07 658.01 823.47 658.01 835.07L658.01 895.07C658.01 906.67 667.41 916.07 679.01 916.07C690.61 916.07 700.01 906.67 700.01 895.07L700.01 835.07C700.01 823.48 690.62 814.08 679.03 814.07C679.02 814.07 679.02 814.07 679.01 814.07Z" />
			<path id="&lt;Path&gt;" class="shp0" d="M679.01 274.07C667.41 274.07 658.01 283.47 658.01 295.07L658.01 355.07C658.01 366.67 667.41 376.07 679.01 376.07C690.61 376.07 700.01 366.67 700.01 355.07L700.01 295.07C700.01 283.48 690.62 274.08 679.03 274.07C679.02 274.07 679.02 274.07 679.01 274.07Z" />
			<path id="&lt;Path&gt;" class="shp0" d="M679.01 454.07C667.41 454.07 658.01 463.47 658.01 475.07L658.01 535.07C658.01 546.67 667.41 556.07 679.01 556.07C690.61 556.07 700.01 546.67 700.01 535.07L700.01 475.07C700.01 463.48 690.62 454.08 679.03 454.07C679.02 454.07 679.02 454.07 679.01 454.07Z" />
			<path id="&lt;Path&gt;" class="shp0" d="M679.01 634.07C667.41 634.07 658.01 643.47 658.01 655.07L658.01 715.07C658.01 726.67 667.41 736.07 679.01 736.07C690.61 736.07 700.01 726.67 700.01 715.07L700.01 655.07C700.01 643.48 690.62 634.08 679.03 634.07C679.02 634.07 679.02 634.07 679.01 634.07Z" />
			<path id="&lt;Path&gt;" class="shp0" d="M797.02 1398L793.98 1398L793.98 1383C793.98 1371.4 784.58 1362 772.98 1362C761.38 1362 751.98 1371.4 751.98 1383L751.98 1419C751.98 1430.6 761.38 1440 772.98 1440L796.98 1440C808.58 1440 817.98 1430.6 817.98 1419C817.98 1407.4 808.58 1398 796.98 1398L797.02 1398Z" />
			<path id="&lt;Path&gt;" class="shp0" d="M1233.84 683.88L1287.5 710.71C1297.84 715.97 1310.48 711.86 1315.75 701.53C1321.01 691.19 1316.89 678.55 1306.56 673.28C1306.46 673.24 1306.37 673.19 1306.27 673.14L1252.61 646.31C1242.19 641.21 1229.61 645.51 1224.51 655.93C1219.46 666.23 1223.62 678.67 1233.84 683.88Z" />
			<path id="&lt;Path&gt;" class="shp0" d="M1313.28 835.42C1312.79 836.34 1312.37 837.29 1312.02 838.27C1308.13 849.19 1313.83 861.2 1324.75 865.08C1324.76 865.09 1324.77 865.09 1324.78 865.09L1327.25 865.98C1338.18 869.86 1350.19 864.13 1354.07 853.2C1354.87 850.95 1355.28 848.58 1355.28 846.19L1355.28 788.81C1355.28 777.21 1345.88 767.81 1334.28 767.81C1322.68 767.81 1313.28 777.21 1313.28 788.81L1313.28 835.42Z" />
			<path id="&lt;Path&gt;" class="shp0" d="M1113.48 814.43C1101.88 814.43 1092.48 823.83 1092.48 835.43L1092.48 895.43C1092.48 907.03 1101.88 916.43 1113.48 916.43C1125.08 916.43 1134.48 907.03 1134.48 895.43L1134.48 835.43C1134.49 823.84 1125.09 814.44 1113.5 814.43C1113.49 814.43 1113.49 814.43 1113.48 814.43Z" />
			<path id="&lt;Path&gt;" class="shp0" d="M772.98 1284C784.57 1284.01 793.97 1274.62 793.98 1263.02C793.98 1263.01 793.98 1263.01 793.98 1263L793.98 1203C793.98 1191.4 784.58 1182 772.98 1182C761.38 1182 751.98 1191.4 751.98 1203L751.98 1263C751.98 1274.6 761.38 1284 772.98 1284Z" />
			<path id="&lt;Path&gt;" class="shp0" d="M1142.53 777.66C1138.63 788.58 1144.31 800.59 1155.23 804.49C1155.23 804.49 1155.23 804.49 1155.24 804.49L1211.73 824.69C1222.67 828.59 1234.7 822.89 1238.6 811.96C1242.51 801.02 1236.81 788.99 1225.87 785.09L1169.37 764.89C1158.47 760.99 1146.47 766.66 1142.57 777.56C1142.55 777.59 1142.54 777.63 1142.53 777.66Z" />
			<path id="&lt;Path&gt;" class="shp0" d="M1072.8 603.38L1126.47 630.23C1136.85 635.41 1149.47 631.21 1154.65 620.83C1159.84 610.46 1155.63 597.84 1145.26 592.66L1091.59 565.81C1081.22 560.62 1068.6 564.83 1063.41 575.2C1058.22 585.58 1062.42 598.2 1072.8 603.38Z" />
			<path id="&lt;Path&gt;" class="shp0" d="M1113.48 994.43C1101.88 994.43 1092.48 1003.83 1092.48 1015.43L1092.48 1075.43C1092.48 1087.03 1101.88 1096.43 1113.48 1096.43C1125.08 1096.43 1134.48 1087.03 1134.48 1075.43L1134.48 1015.43C1134.49 1003.84 1125.09 994.44 1113.5 994.43C1113.49 994.43 1113.49 994.43 1113.48 994.43Z" />
			<path id="&lt;Path&gt;" class="shp0" d="M977.02 1398L917.02 1398C905.42 1398 896.02 1407.4 896.02 1419C896.02 1430.6 905.42 1440 917.02 1440L977.02 1440C988.61 1440 998.02 1430.6 998.02 1419C998.02 1407.4 988.61 1398 977.02 1398Z" />
			<path id="&lt;Path&gt;" class="shp0" d="M912.72 566.93L971.35 566.93C982.95 566.93 992.35 557.53 992.35 545.93C992.35 534.33 982.95 524.93 971.35 524.93L912.72 524.93C901.12 524.93 891.72 534.33 891.72 545.93C891.72 557.53 901.12 566.93 912.72 566.93Z" />
			<path id="&lt;Path&gt;" class="shp0" d="M1113.48 1174.43C1101.88 1174.43 1092.48 1183.83 1092.48 1195.43L1092.48 1255.43C1092.48 1267.03 1101.88 1276.43 1113.48 1276.43C1125.08 1276.43 1134.48 1267.03 1134.48 1255.43L1134.48 1195.43C1134.49 1183.84 1125.09 1174.44 1113.5 1174.43C1113.49 1174.43 1113.49 1174.43 1113.48 1174.43Z" />
			<path id="&lt;Path&gt;" class="shp0" d="M1113.48 1354.43C1101.88 1354.43 1092.48 1363.83 1092.48 1375.43L1092.48 1398.46C1081.13 1400.86 1073.88 1412 1076.28 1423.35C1078.35 1433.12 1087.02 1440.09 1097.02 1440L1113.48 1440C1125.07 1440.01 1134.47 1430.62 1134.48 1419.02C1134.48 1419.01 1134.48 1419.01 1134.48 1419L1134.48 1375.46C1134.5 1363.87 1125.13 1354.45 1113.54 1354.43C1113.52 1354.43 1113.5 1354.43 1113.48 1354.43Z" />
			<path id="&lt;Compound Path&gt;" fill-rule="evenodd" class="shp0" d="M1451.27 651.25L1451.27 982.45C1451.27 984.86 1450.85 987.25 1450.04 989.52C1446.14 1000.44 1434.12 1006.13 1423.2 1002.23L1230.48 933.33C1230.48 933.34 1230.48 1515.01 1230.48 1515.02C1230.47 1526.62 1221.07 1536.01 1209.48 1536L676.98 1536C665.38 1536 655.98 1526.6 655.98 1515L655.98 1107L242.52 1107C230.92 1107 221.52 1097.6 221.52 1086L221.52 504.38L28.8 573.26C26.52 574.08 24.11 574.5 21.69 574.5C10.11 574.5 0.72 565.11 0.72 553.52L0.72 222.32C0.72 214.37 5.21 207.1 12.32 203.54L415.09 2.22C418.01 0.76 421.22 0 424.49 0L775.01 0C786.58 -0.01 795.98 9.36 796.01 20.93L796.01 428.93L1027.51 428.93C1030.77 428.93 1033.99 429.69 1036.91 431.15L1439.67 632.5C1446.77 636.06 1451.26 643.31 1451.27 651.25ZM263.51 474.62L263.51 1065.02L754.01 1065.02L754.01 42L429.44 42L42.72 235.31L42.72 523.69L235.4 454.8C241.84 452.46 249.02 453.43 254.6 457.4C260.21 461.35 263.53 467.77 263.51 474.62ZM1409.28 664.26L1022.55 470.93L796.01 470.93C796.01 470.94 796.01 1086.04 796.01 1086.05C796 1097.64 786.6 1107.03 775.01 1107.02L697.98 1107.02L697.98 1493.93L1188.48 1493.93L1188.48 903.53C1188.48 901.11 1188.89 898.72 1189.71 896.44C1193.62 885.53 1205.63 879.86 1216.55 883.76L1409.28 952.64L1409.28 664.26Z" />
		</g>
	</g>
</svg>