<svg version="1.2" baseProfile="tiny-ps" xmlns="http://www.w3.org/2000/svg" viewBox="0 0 1522 1426" width="1522" height="1426">
	<title>Capa 1</title>
	<style>
		tspan { white-space:pre }
		.shp0 { fill: #fa8242 } 
	</style>
	<g id="Capa 1">
		<g id="&lt;Group&gt;">
			<path id="&lt;Compound Path&gt;" fill-rule="evenodd" class="shp0" d="M1521.5 606.92L1280.78 606.92L1280.78 1425.36L241.21 1425.36L241.21 606.92L0.5 606.92L0.5 166.9L268.64 0.64L558.63 0.64L558.63 38.99C558.63 150.58 649.42 241.36 761 241.36C872.59 241.36 963.37 150.58 963.37 38.99L963.37 0.64L1253.35 0.64L1521.5 166.9L1521.5 606.92ZM1444.8 209.58L1231.5 77.34L1037.51 77.34L1036.49 83.65C1026.05 148.3 992.74 207.6 942.71 250.63C892.14 294.11 827.6 318.06 761 318.06C694.39 318.06 629.86 294.11 579.29 250.63C529.25 207.6 495.94 148.3 485.5 83.65L484.48 77.34L290.49 77.34L77.2 209.58L77.2 530.22L317.92 530.22L317.92 1348.65L1204.08 1348.65L1204.08 530.22L1444.8 530.22L1444.8 209.58Z" />
			<path id="&lt;Path&gt;" class="shp0" d="M631.78 1050.91L631.78 549.55L511.98 549.55L511.98 626.25L555.08 626.25L555.08 1050.91L631.78 1050.91Z" />
			<path id="&lt;Compound Path&gt;" fill-rule="evenodd" class="shp0" d="M1055.87 892.21C1055.87 979.72 984.68 1050.91 897.17 1050.91C809.67 1050.91 738.48 979.72 738.48 892.21L738.48 699.75C738.48 612.25 809.67 541.06 897.17 541.06C984.68 541.06 1055.87 612.25 1055.87 699.75L1055.87 892.21ZM979.17 699.75C979.17 654.54 942.39 617.76 897.17 617.76C851.96 617.76 815.18 654.54 815.18 699.75L815.18 892.21C815.18 937.43 851.96 974.21 897.17 974.21C942.39 974.21 979.17 937.43 979.17 892.21L979.17 699.75Z" />
		</g>
	</g>
</svg>