<svg version="1.2" baseProfile="tiny-ps" xmlns="http://www.w3.org/2000/svg" viewBox="0 0 1528 1530" width="1528" height="1530">
	<title>regular</title>
	<style>
		tspan { white-space:pre }
		.shp0 { fill: #fa8242 } 
	</style>
	<g id="regular">
		<g id="&lt;Group&gt;">
			<path id="&lt;Path&gt;" class="shp0" d="M476 512.5C390.26 512.5 320.5 582.26 320.5 668C320.5 691.99 340.01 711.5 364 711.5C387.98 711.5 407.5 691.99 407.5 668C407.5 630.23 438.23 599.5 476 599.5C513.77 599.5 544.5 630.23 544.5 668C544.5 691.99 564.01 711.5 588 711.5C611.98 711.5 631.5 691.99 631.5 668C631.5 582.26 561.74 512.5 476 512.5Z" />
			<path id="&lt;Path&gt;" class="shp0" d="M1052 512.5C966.26 512.5 896.5 582.26 896.5 668C896.5 691.99 916.01 711.5 940 711.5C963.98 711.5 983.5 691.99 983.5 668C983.5 630.23 1014.23 599.5 1052 599.5C1089.77 599.5 1120.5 630.23 1120.5 668C1120.5 691.99 1140.01 711.5 1164 711.5C1187.98 711.5 1207.5 691.99 1207.5 668C1207.5 582.26 1137.74 512.5 1052 512.5Z" />
			<path id="&lt;Path&gt;" class="shp0" d="M1130.8 930.06C1122.58 921.84 1111.65 917.32 1100.03 917.32C1088.41 917.32 1077.48 921.84 1069.26 930.06C987.73 1011.6 879.32 1056.5 764 1056.5C648.63 1056.5 540.24 1011.57 458.8 929.99C450.58 921.78 439.65 917.25 428.03 917.25C416.41 917.25 405.48 921.78 397.26 930C389.04 938.22 384.52 949.14 384.52 960.77C384.52 972.39 389.04 983.32 397.26 991.54C495.19 1089.53 625.43 1143.5 764 1143.5C902.52 1143.5 1032.78 1089.56 1130.8 991.6C1139.02 983.38 1143.55 972.46 1143.55 960.83C1143.55 949.21 1139.02 938.28 1130.8 930.06Z" />
			<path id="&lt;Compound Path&gt;" fill-rule="evenodd" class="shp0" d="M1527.5 764C1527.5 1185 1185 1527.5 764 1527.5C633.79 1527.5 505.26 1494 392.29 1430.64L389.37 1429L386.96 1431.33C340.7 1476.06 294.61 1509.62 276.96 1521.96C269.55 1527.09 260.92 1529.8 252 1529.8C243.08 1529.8 234.45 1527.09 227.06 1521.98C189.23 1495.46 0.5 1356.84 0.5 1231.2C0.5 1179.65 29.7 1131.53 76.72 1105.63L80.48 1103.56L78.58 1099.71C27.5 995.92 0.5 879.83 0.5 764C0.5 343 343 0.5 764 0.5C880.7 0.5 997.26 27.75 1101.09 79.3L1103.11 80.3L1105.13 79.27C1126.99 68.14 1151.66 62.26 1176.48 62.26C1211.61 62.26 1245.97 73.99 1273.23 95.29L1276 97.46L1278.77 95.29C1306.03 73.99 1340.39 62.26 1375.64 62.26C1459.38 62.26 1527.5 127.28 1527.5 207.2C1527.5 259.67 1495.06 320.19 1431.09 387.1L1428.78 389.51L1430.42 392.42C1493.93 504.91 1527.5 633.4 1527.5 764ZM1440.5 764C1440.5 656.43 1414.59 549.67 1365.56 455.27L1362.99 450.33L1358.7 453.87C1332.91 475.14 1311.44 490.63 1300.96 497.96C1293.55 503.09 1284.92 505.8 1276 505.8C1267.08 505.8 1258.45 503.09 1251.06 497.98C1213.23 471.46 1024.5 332.83 1024.5 207.2C1024.5 187.44 1028.63 168.26 1036.77 150.18L1038.64 146.04L1034.48 144.21C950.08 107.11 856.55 87.5 764 87.5C390.98 87.5 87.5 390.98 87.5 764C87.5 876.08 115.73 987.15 169.15 1085.21L170.25 1087.23L172.54 1087.52C200.67 1091.08 227.19 1102.07 249.23 1119.29L252 1121.45L254.77 1119.29C282.03 1097.99 316.39 1086.26 351.52 1086.26L351.64 1081.76L351.64 1086.26C435.38 1086.26 503.5 1151.28 503.5 1231.2C503.5 1269.17 486.17 1311.91 451.99 1358.23L448.86 1362.46L453.54 1364.89C548.8 1414.36 656.16 1440.5 764 1440.5C1137.02 1440.5 1440.5 1137.02 1440.5 764ZM416.5 1231.14C416.5 1199.19 387.35 1173.2 351.52 1173.2C325.07 1173.2 301.51 1187.21 291.5 1208.89C284.97 1222.97 269.84 1231.72 252.03 1231.72C234.22 1231.72 219.1 1222.97 212.56 1208.88C202.48 1187.21 178.9 1173.2 152.48 1173.2C116.65 1173.2 87.5 1199.19 87.5 1231.14C87.5 1255.72 105.64 1288.98 141.42 1329.98C169.96 1362.7 209.26 1399.23 249.24 1430.21L251.99 1432.35L254.75 1430.22C335.26 1368.07 416.5 1282.41 416.5 1231.14ZM1111.5 207.14C1111.5 231.72 1129.64 264.98 1165.42 305.98C1193.96 338.7 1233.26 375.23 1273.24 406.21L1275.99 408.34L1278.75 406.22C1359.26 344.07 1440.5 258.41 1440.5 207.14C1440.5 175.19 1411.35 149.2 1375.52 149.2C1349.07 149.2 1325.51 163.21 1315.5 184.89C1308.96 198.97 1293.84 207.72 1276.03 207.72C1258.22 207.72 1243.1 198.97 1236.56 184.89C1226.48 163.21 1202.9 149.2 1176.48 149.2C1140.65 149.2 1111.5 175.19 1111.5 207.14Z" />
		</g>
	</g>
</svg>
