<svg version="1.2" baseProfile="tiny-ps" xmlns="http://www.w3.org/2000/svg" width="88" height="87"><defs><clipPath clipPathUnits="userSpaceOnUse" id="cp1"><path d="M0 0h88v87H0z"/></clipPath></defs><style/><g id="Page 1" clip-path="url(#cp1)"><path id="Path 1" fill-rule="evenodd" d="M87.59 43.26c0 12.1-4.21 22.36-12.75 31C66.31 82.79 55.94 87 43.85 87c-12.1 0-22.47-4.21-31-12.74C4.32 65.62 0 55.36 0 43.26c0-12.1 4.32-22.46 12.85-31 8.53-8.53 18.9-12.74 31-12.74 12.09 0 22.46 4.21 30.99 12.74 8.54 8.54 12.75 18.9 12.75 31zm-82.41 0c0 10.69 3.78 19.76 11.34 27.32 7.56 7.56 16.64 11.34 27.33 11.34 10.69 0 19.76-3.78 27.32-11.34 7.45-7.56 11.23-16.63 11.23-27.32 0-10.69-3.78-19.76-11.23-27.32C63.61 8.38 54.54 4.6 43.85 4.6c-10.69 0-19.77 3.78-27.33 11.34C8.96 23.5 5.18 32.57 5.18 43.26zm29.81-10.15c0 3.02-2.59 5.61-5.72 5.61-3.03 0-5.62-2.59-5.62-5.61 0-3.13 2.59-5.62 5.62-5.62 3.13 0 5.72 2.49 5.72 5.62zm28.95 0c0 3.02-2.49 5.61-5.62 5.61s-5.62-2.59-5.62-5.61c0-4.97 6.16-7.45 9.62-4 1.08 1.08 1.62 2.38 1.62 4zm-10.7 36.5c-6.26 2.16-12.52 2.16-18.79 0-6.37-2.05-11.34-5.94-15.12-11.66-.54-.76-.32-1.41.43-1.95l1.95-1.29c.75-.54 1.4-.33 1.94.43 4.75 7.24 11.45 10.8 20.2 10.8s15.44-3.56 20.19-10.8c.44-.76 1.08-.86 1.95-.43L67.93 56c.76.54.87 1.19.33 1.95-3.78 5.72-8.75 9.61-15.02 11.66z" fill="#2c2e35"/></g></svg>