<svg xmlns="http://www.w3.org/2000/svg" width="509" height="509.76"><style>.st0{fill:#fff}</style><path class="st0" d="M158.5 170.66c-28.59 0-51.84 23.25-51.84 51.83 0 8 6.51 14.5 14.5 14.5 8 0 14.5-6.5 14.5-14.5 0-12.59 10.24-22.83 22.84-22.83 12.58 0 22.83 10.24 22.83 22.83 0 8 6.5 14.5 14.5 14.5 7.99 0 14.5-6.5 14.5-14.5 0-28.58-23.25-51.83-51.83-51.83m192 0c-28.59 0-51.84 23.25-51.84 51.83 0 8 6.51 14.5 14.5 14.5 8 0 14.5-6.5 14.5-14.5 0-12.59 10.24-22.83 22.84-22.83 12.58 0 22.83 10.24 22.83 22.83 0 8 6.5 14.5 14.5 14.5 7.99 0 14.5-6.5 14.5-14.5 0-28.58-23.25-51.83-51.83-51.83m26.26 139.19a14.409 14.409 0 00-10.26-4.25c-3.87 0-7.51 1.51-10.25 4.25-27.18 27.18-63.32 42.14-101.76 42.14-38.45 0-74.58-14.97-101.73-42.16a14.403 14.403 0 00-10.25-4.25c-3.88 0-7.52 1.51-10.26 4.25a14.403 14.403 0 00-4.25 10.25c0 3.88 1.51 7.52 4.25 10.26 32.64 32.67 76.06 50.65 122.24 50.65 46.18 0 89.6-17.98 122.27-50.63 2.74-2.74 4.25-6.38 4.25-10.25 0-3.88-1.51-7.52-4.25-10.26"/><path class="st0" d="M254.5 480c-35.95 0-71.74-8.72-103.49-25.21l-1.56-.81 1.04-1.41c11.39-15.44 17.17-29.68 17.17-42.34 0-26.64-22.71-48.31-50.62-48.31v-1.5l-.04 1.5c-11.71 0-23.16 3.91-32.25 11.01l-.92.72-.93-.72c-7.34-5.75-16.18-9.41-25.56-10.59l-.76-.1-.37-.67C38.41 328.88 29 291.85 29 254.5 29 130.15 130.15 29 254.5 29c30.84 0 62.02 6.53 90.16 18.9l1.38.61-.62 1.38a45.907 45.907 0 00-4.09 19.01c0 41.87 62.91 88.08 75.52 96.92 2.46 1.71 5.34 2.61 8.31 2.61 2.98 0 5.85-.9 8.32-2.61 3.5-2.45 10.65-7.61 19.25-14.7l1.43-1.18.86 1.65C471.36 183.05 480 218.64 480 254.5 480 378.84 378.84 480 254.5 480m-169.75-3.43l-.92.71-.92-.71c-13.33-10.33-26.43-22.51-35.94-33.41C35.04 429.49 29 418.4 29 410.21c0-10.65 9.71-19.32 21.66-19.32 8.8 0 16.66 4.67 20.02 11.9 2.18 4.7 7.22 7.61 13.16 7.61 5.93 0 10.98-2.91 13.16-7.61 3.33-7.23 11.19-11.9 20-11.9 11.94 0 21.66 8.67 21.66 19.32 0 17.09-27.08 45.64-53.91 66.36M391.99 49.56c8.8 0 16.66 4.67 20.03 11.9 2.17 4.69 7.21 7.61 13.15 7.61s10.98-2.92 13.16-7.61c3.33-7.23 11.19-11.9 20-11.9 11.95 0 21.67 8.66 21.67 19.31 0 17.1-27.09 45.65-53.92 66.36l-.92.71-.92-.71c-13.32-10.32-26.42-22.5-35.94-33.41-11.92-13.66-17.97-24.75-17.97-32.95 0-10.65 9.71-19.31 21.66-19.31m84.65 81.08l-.55-.97.77-.81C498.18 106.56 509 86.38 509 68.9c0-26.64-22.71-48.32-50.62-48.32-11.75 0-23.21 3.91-32.3 11.01l-.92.72-.92-.72c-9.09-7.1-20.54-11.01-32.25-11.01-8.28 0-16.5 1.96-23.79 5.67l-.67.35-.67-.34C332.25 9.08 293.39 0 254.5 0 114.16 0 0 114.16 0 254.5c0 38.61 9 77.3 26.02 111.9l.64 1.28-1.26.69C9.73 377.01 0 393.04 0 410.23c0 41.88 62.91 88.09 75.52 96.92 2.46 1.71 5.33 2.61 8.31 2.61 2.97 0 5.85-.9 8.32-2.61 5.88-4.11 21.24-15.3 36.67-30.21l.8-.78.97.55C168.25 497.83 211.09 509 254.5 509 394.83 509 509 394.83 509 254.5c0-43.54-11.19-86.37-32.36-123.86"/></svg>