<svg version="1.2" baseProfile="tiny-ps" xmlns="http://www.w3.org/2000/svg" width="1528" height="1530"><style>.shp0{fill:#fa8242}</style><g id="regular"><g id="&lt;Group&gt;"><path id="&lt;Path&gt;" class="shp0" d="M476 512.5c-85.74 0-155.5 69.76-155.5 155.5 0 23.99 19.51 43.5 43.5 43.5 23.98 0 43.5-19.51 43.5-43.5 0-37.77 30.73-68.5 68.5-68.5 37.77 0 68.5 30.73 68.5 68.5 0 23.99 19.51 43.5 43.5 43.5 23.98 0 43.5-19.51 43.5-43.5 0-85.74-69.76-155.5-155.5-155.5zm576 0c-85.74 0-155.5 69.76-155.5 155.5 0 23.99 19.51 43.5 43.5 43.5 23.98 0 43.5-19.51 43.5-43.5 0-37.77 30.73-68.5 68.5-68.5 37.77 0 68.5 30.73 68.5 68.5 0 23.99 19.51 43.5 43.5 43.5 23.98 0 43.5-19.51 43.5-43.5 0-85.74-69.76-155.5-155.5-155.5zm78.8 417.56c-8.22-8.22-19.15-12.74-30.77-12.74-11.62 0-22.55 4.52-30.77 12.74C987.73 1011.6 879.32 1056.5 764 1056.5c-115.37 0-223.76-44.93-305.2-126.51-8.22-8.21-19.15-12.74-30.77-12.74-11.62 0-22.55 4.53-30.77 12.75-8.22 8.22-12.74 19.14-12.74 30.77 0 11.62 4.52 22.55 12.74 30.77 97.93 97.99 228.17 151.96 366.74 151.96 138.52 0 268.78-53.94 366.8-151.9 8.22-8.22 12.75-19.14 12.75-30.77 0-11.62-4.53-22.55-12.75-30.77z"/><path id="&lt;Compound Path&gt;" fill-rule="evenodd" class="shp0" d="M1527.5 764c0 421-342.5 763.5-763.5 763.5-130.21 0-258.74-33.5-371.71-96.86l-2.92-1.64-2.41 2.33c-46.26 44.73-92.35 78.29-110 90.63-7.41 5.13-16.04 7.84-24.96 7.84-8.92 0-17.55-2.71-24.94-7.82C189.23 1495.46.5 1356.84.5 1231.2c0-51.55 29.2-99.67 76.22-125.57l3.76-2.07-1.9-3.85C27.5 995.92.5 879.83.5 764 .5 343 343 .5 764 .5c116.7 0 233.26 27.25 337.09 78.8l2.02 1 2.02-1.03c21.86-11.13 46.53-17.01 71.35-17.01 35.13 0 69.49 11.73 96.75 33.03l2.77 2.17 2.77-2.17c27.26-21.3 61.62-33.03 96.87-33.03 83.74 0 151.86 65.02 151.86 144.94 0 52.47-32.44 112.99-96.41 179.9l-2.31 2.41 1.64 2.91c63.51 112.49 97.08 240.98 97.08 371.58zm-87 0c0-107.57-25.91-214.33-74.94-308.73l-2.57-4.94-4.29 3.54c-25.79 21.27-47.26 36.76-57.74 44.09-7.41 5.13-16.04 7.84-24.96 7.84-8.92 0-17.55-2.71-24.94-7.82-37.83-26.52-226.56-165.15-226.56-290.78 0-19.76 4.13-38.94 12.27-57.02l1.87-4.14-4.16-1.83C950.08 107.11 856.55 87.5 764 87.5 390.98 87.5 87.5 390.98 87.5 764c0 112.08 28.23 223.15 81.65 321.21l1.1 2.02 2.29.29c28.13 3.56 54.65 14.55 76.69 31.77l2.77 2.16 2.77-2.16c27.26-21.3 61.62-33.03 96.75-33.03l.12-4.5v4.5c83.74 0 151.86 65.02 151.86 144.94 0 37.97-17.33 80.71-51.51 127.03l-3.13 4.23 4.68 2.43c95.26 49.47 202.62 75.61 310.46 75.61 373.02 0 676.5-303.48 676.5-676.5zm-1024 467.14c0-31.95-29.15-57.94-64.98-57.94-26.45 0-50.01 14.01-60.02 35.69-6.53 14.08-21.66 22.83-39.47 22.83s-32.93-8.75-39.47-22.84c-10.08-21.67-33.66-35.68-60.08-35.68-35.83 0-64.98 25.99-64.98 57.94 0 24.58 18.14 57.84 53.92 98.84 28.54 32.72 67.84 69.25 107.82 100.23l2.75 2.14 2.76-2.13c80.51-62.15 161.75-147.81 161.75-199.08zm695-1024c0 24.58 18.14 57.84 53.92 98.84 28.54 32.72 67.84 69.25 107.82 100.23l2.75 2.13 2.76-2.12c80.51-62.15 161.75-147.81 161.75-199.08 0-31.95-29.15-57.94-64.98-57.94-26.45 0-50.01 14.01-60.02 35.69-6.54 14.08-21.66 22.83-39.47 22.83s-32.93-8.75-39.47-22.83c-10.08-21.68-33.66-35.69-60.08-35.69-35.83 0-64.98 25.99-64.98 57.94z"/></g></g></svg>