<svg version="1.2" baseProfile="tiny-ps" xmlns="http://www.w3.org/2000/svg" viewBox="0 0 1461 1536" width="1461" height="1536">
	<title>Layer 1</title>
	<style>
		tspan { white-space:pre }
		.shp0 { fill: #000000 } 
	</style>
	<g id="Layer 1">
		<path id="&lt;Path&gt;" class="shp0" d="M1449.77 832.02L1351.2 770.45C1312.72 746.41 1267.2 738.81 1222.99 749.02C1178.79 759.23 1141.21 786.05 1117.18 824.52L1016.96 984.95C999.3 1013.24 971.68 1032.94 939.2 1040.45C906.7 1047.96 873.23 1042.36 844.96 1024.7C786.57 988.23 768.74 911.06 805.21 852.68L1032.61 488.63C1082.21 409.21 1057.97 304.22 978.54 254.61L881.93 194.26L897.52 169.31C904.1 158.77 900.89 144.89 890.36 138.3C879.81 131.73 865.93 134.93 859.36 145.46L797.11 245.11C790.54 255.66 793.73 269.53 804.28 276.12C807.98 278.43 812.1 279.54 816.18 279.54C823.68 279.54 831.01 275.79 835.28 268.96L858.09 232.43L954.7 292.78C1013.09 329.25 1030.91 406.41 994.44 464.79L767.05 828.84C717.43 908.27 741.69 1013.25 821.11 1062.86C848.44 1079.93 879.32 1088.71 910.76 1088.71C923.59 1088.71 936.5 1087.25 949.31 1084.29C993.52 1074.08 1031.1 1047.26 1055.12 1008.79L1155.34 848.36C1173 820.08 1200.62 800.37 1233.11 792.86C1265.59 785.34 1299.07 790.95 1327.35 808.61L1425.93 870.19C1436.47 876.76 1450.35 873.56 1456.93 863.03C1463.52 852.48 1460.31 838.61 1449.77 832.02Z" />
		<path id="&lt;Path&gt;" class="shp0" d="M896.57 309.76C886.37 302.66 872.36 305.17 865.25 315.36L46.89 1490.26C46.71 1490.52 46.55 1490.71 46.44 1490.84C46 1490.7 45.45 1490.36 45.13 1490.02C45.2 1489.86 45.29 1489.64 45.45 1489.37L826.77 86.8C837.71 67.16 855.74 53.25 877.52 47.64C899.3 42.04 921.8 45.5 940.88 57.42C959.34 68.95 972.19 86.98 977.05 108.19C981.9 129.34 978.26 151.07 966.81 169.38C966.08 170.54 965.32 171.7 964.52 172.84C957.42 183.04 959.93 197.06 970.11 204.16C980.31 211.27 994.34 208.76 1001.44 198.56C1002.66 196.82 1003.82 195.05 1004.94 193.25C1022.77 164.75 1028.43 130.97 1020.9 98.13C1013.36 65.19 993.4 37.17 964.71 19.25C935.09 0.75 900.13 -4.64 866.3 4.07C832.46 12.77 804.47 34.38 787.46 64.9L758.39 117.11L650.36 49.62C639.82 43.04 625.95 46.24 619.36 56.79C612.77 67.32 615.98 81.2 626.52 87.79L736.46 156.46L6.14 1467.47C-6.15 1489.55 0.48 1515.28 21.9 1528.66C29.82 1533.61 38.38 1536 46.73 1536C61 1536 74.71 1529.05 83.81 1515.98L902.17 341.09C909.27 330.89 906.76 316.86 896.57 309.76Z" />
	</g>
</svg>