<svg version="1.2" baseProfile="tiny-ps" xmlns="http://www.w3.org/2000/svg" width="1461" height="1536"><style>.shp0{fill:#000}</style><g id="Layer 1"><path id="&lt;Path&gt;" class="shp0" d="M1449.77 832.02l-98.57-61.57c-38.48-24.04-84-31.64-128.21-21.43-44.2 10.21-81.78 37.03-105.81 75.5l-100.22 160.43c-17.66 28.29-45.28 47.99-77.76 55.5-32.5 7.51-65.97 1.91-94.24-15.75-58.39-36.47-76.22-113.64-39.75-172.02l227.4-364.05c49.6-79.42 25.36-184.41-54.07-234.02l-96.61-60.35 15.59-24.95c6.58-10.54 3.37-24.42-7.16-31.01-10.55-6.57-24.43-3.37-31 7.16l-62.25 99.65c-6.57 10.55-3.38 24.42 7.17 31.01 3.7 2.31 7.82 3.42 11.9 3.42 7.5 0 14.83-3.75 19.1-10.58l22.81-36.53 96.61 60.35c58.39 36.47 76.21 113.63 39.74 172.01L767.05 828.84c-49.62 79.43-25.36 184.41 54.06 234.02 27.33 17.07 58.21 25.85 89.65 25.85 12.83 0 25.74-1.46 38.55-4.42 44.21-10.21 81.79-37.03 105.81-75.5l100.22-160.43c17.66-28.28 45.28-47.99 77.77-55.5 32.48-7.52 65.96-1.91 94.24 15.75l98.58 61.58c10.54 6.57 24.42 3.37 31-7.16 6.59-10.55 3.38-24.42-7.16-31.01z"/><path id="&lt;Path&gt;" class="shp0" d="M896.57 309.76c-10.2-7.1-24.21-4.59-31.32 5.6L46.89 1490.26c-.18.26-.34.45-.45.58-.44-.14-.99-.48-1.31-.82.07-.16.16-.38.32-.65L826.77 86.8c10.94-19.64 28.97-33.55 50.75-39.16 21.78-5.6 44.28-2.14 63.36 9.78 18.46 11.53 31.31 29.56 36.17 50.77 4.85 21.15 1.21 42.88-10.24 61.19-.73 1.16-1.49 2.32-2.29 3.46-7.1 10.2-4.59 24.22 5.59 31.32 10.2 7.11 24.23 4.6 31.33-5.6 1.22-1.74 2.38-3.51 3.5-5.31 17.83-28.5 23.49-62.28 15.96-95.12-7.54-32.94-27.5-60.96-56.19-78.88C935.09.75 900.13-4.64 866.3 4.07c-33.84 8.7-61.83 30.31-78.84 60.83l-29.07 52.21-108.03-67.49c-10.54-6.58-24.41-3.38-31 7.17-6.59 10.53-3.38 24.41 7.16 31l109.94 68.67L6.14 1467.47c-12.29 22.08-5.66 47.81 15.76 61.19 7.92 4.95 16.48 7.34 24.83 7.34 14.27 0 27.98-6.95 37.08-20.02L902.17 341.09c7.1-10.2 4.59-24.23-5.6-31.33z"/></g></svg>