<svg xmlns="http://www.w3.org/2000/svg" viewBox="0 0 62.96 60.8"><path d="M23.48 6.93h-2.15c-.03 0-.06.01-.09.01h-.05l-.09-.01h-2.46V4.92c0-.07-.01-.13-.02-.2l-.01-.2c.02-.14.03-.2.03-.27V2.09C18.64.93 17.71 0 16.55 0c-1.15 0-2.09.93-2.09 2.09v2.16c0 .07.01.13.02.2l.01.2c-.02.14-.03.2-.03.27v2.01H9.62c-1.16 0-2.1.94-2.1 2.09 0 1.16.94 2.1 2.1 2.1h4.84v4.84a2.09 2.09 0 104.18 0v-4.84h4.84a2.1 2.1 0 002.1-2.1c0-1.15-.94-2.09-2.1-2.09m37.39 32.92h-2.16c-.03 0-.06.01-.09.01h-.05l-.09-.01h-2.45v-2.01c0-.07-.02-.13-.02-.2l-.01-.2c.01-.14.03-.2.03-.27v-2.16c0-1.16-.94-2.09-2.1-2.09-1.15 0-2.09.93-2.09 2.09v2.16c0 .07.01.13.02.2l.01.2c-.02.14-.03.2-.03.27v2.01H47c-1.16 0-2.09.94-2.09 2.09 0 1.16.93 2.1 2.09 2.1h4.84v4.84a2.095 2.095 0 004.19 0v-4.84h4.84a2.095 2.095 0 000-4.19"/><path d="M53.93 15.68L11.64 57.97l-8.82-8.81 42.3-42.3 8.81 8.82zm-16.31-1.32l8.67 9.01" stroke="#000" fill="none" stroke-width="4"/></svg>