<svg xmlns="http://www.w3.org/2000/svg" viewBox="0 0 62.96 60.8">
	<style type="text/css">
		.st1{stroke:#000000;fill:none;stroke-width:4;}
		.st0{fill:#000000;}
	</style>
	<path class="st0" d="M23.48,6.93L21.33,6.93C21.3,6.93 21.27,6.94 21.24,6.94L21.19,6.94L21.1,6.93L18.64,6.93L18.64,4.92C18.64,4.85 18.63,4.79 18.62,4.72L18.61,4.52C18.63,4.38 18.64,4.32 18.64,4.25L18.64,2.09C18.64,0.93 17.71,0 16.55,0C15.4,0 14.46,0.93 14.46,2.09L14.46,4.25C14.46,4.32 14.47,4.38 14.48,4.45L14.49,4.65C14.47,4.79 14.46,4.85 14.46,4.92L14.46,6.93L9.62,6.93C8.46,6.93 7.52,7.87 7.52,9.02C7.52,10.18 8.46,11.12 9.62,11.12L14.46,11.12L14.46,15.96C14.46,17.11 15.4,18.05 16.55,18.05C17.71,18.05 18.64,17.11 18.64,15.96L18.64,11.12L23.48,11.12C24.64,11.12 25.58,10.18 25.58,9.02C25.58,7.87 24.64,6.93 23.48,6.93"/>
	<path class="st0" d="M60.87,39.85L58.71,39.85C58.68,39.85 58.65,39.86 58.62,39.86L58.57,39.86L58.48,39.85L56.03,39.85L56.03,37.84C56.03,37.77 56.01,37.71 56.01,37.64L56,37.44C56.01,37.3 56.03,37.24 56.03,37.17L56.03,35.01C56.03,33.85 55.09,32.92 53.93,32.92C52.78,32.92 51.84,33.85 51.84,35.01L51.84,37.17C51.84,37.24 51.85,37.3 51.86,37.37L51.87,37.57C51.85,37.71 51.84,37.77 51.84,37.84L51.84,39.85L47,39.85C45.84,39.85 44.91,40.79 44.91,41.94C44.91,43.1 45.84,44.04 47,44.04L51.84,44.04L51.84,48.88C51.84,50.03 52.78,50.97 53.93,50.97C55.09,50.97 56.03,50.03 56.03,48.88L56.03,44.04L60.87,44.04C62.02,44.04 62.96,43.1 62.96,41.94C62.96,40.79 62.02,39.85 60.87,39.85"/>
	<path class="st1" d="M53.93,15.68L11.64,57.97L2.82,49.16L45.12,6.86L53.93,15.68Z"/>
	<path class="st1" d="M37.62,14.36L46.29,23.37"/>
</svg>