<svg version="1.2" baseProfile="tiny-ps" xmlns="http://www.w3.org/2000/svg" width="1536" height="1536"><style>.shp0{fill:#000}</style><g id="Capa 1"><g id="&lt;Group&gt;"><path id="&lt;Path&gt;" class="shp0" d="M45 270c24.85 0 45-20.15 45-45V90h135c24.85 0 45-20.15 45-45S249.85 0 225 0H45C20.15 0 0 20.15 0 45v180c0 24.85 20.15 45 45 45zm180 1176H90v-135c0-24.85-20.15-45-45-45s-45 20.15-45 45v180c0 24.85 20.15 45 45 45h180c24.85 0 45-20.15 45-45s-20.15-45-45-45zm1266-180c-24.85 0-45 20.15-45 45v135h-135c-24.85 0-45 20.15-45 45s20.15 45 45 45h180c24.85 0 45-20.15 45-45v-180c0-24.85-20.15-45-45-45zm0-1266h-180c-24.85 0-45 20.15-45 45s20.15 45 45 45h135v135c0 24.85 20.15 45 45 45s45-20.15 45-45V45c0-24.85-20.15-45-45-45z"/><path id="&lt;Compound Path&gt;" fill-rule="evenodd" class="shp0" d="M1248 677.88c-24.85 0-45-20.15-45-45v-45c0-24.81-20.19-45-45-45H903v630.24h45c24.85 0 45 20.15 45 45 0 24.86-20.15 45-45 45H588c-24.85 0-45-20.14-45-45 0-24.85 20.15-45 45-45h45V542.88H378c-24.81 0-45 20.19-45 45v45c0 24.85-20.15 45-45 45s-45-20.15-45-45v-315c0-24.86 20.15-45 45-45h960c24.85 0 45 20.14 45 45v315c0 24.85-20.15 45-45 45zm-45-217.29v-97.71H333v97.71c14.08-4.99 29.23-7.71 45-7.71h300c24.85 0 45 20.14 45 45v675.24h90V497.88c0-24.86 20.15-45 45-45h300c15.77 0 30.92 2.72 45 7.71z"/></g></g></svg>