<svg version="1.2" baseProfile="tiny-ps" xmlns="http://www.w3.org/2000/svg" viewBox="0 0 342 342" width="342" height="342">
	<title>Capa 1</title>
	<style>
		tspan { white-space:pre }
		.shp0 { fill: #000000 } 
	</style>
	<g id="Capa 1">
		<path id="&lt;Compound Path&gt;" fill-rule="evenodd" class="shp0" d="M266.16 341.67L266.16 343.17L266.14 341.67C263.85 341.67 261.7 340.78 260.08 339.16L171.04 250.24L82.24 339.14C78.99 342.4 73.33 342.39 70.09 339.15L2.84 271.9C1.22 270.28 0.33 268.13 0.33 265.83C0.33 263.54 1.22 261.38 2.84 259.76L91.66 170.95L17.12 96.5C15.86 95.25 15.04 93.66 14.73 91.91L0.45 10.39C-0.03 7.64 0.86 4.82 2.84 2.84C4.81 0.87 7.61 -0.03 10.39 0.45L91.91 14.72C93.66 15.03 95.25 15.85 96.51 17.11L171 91.6L259.75 2.85C262.99 -0.39 268.63 -0.4 271.88 2.84L339.15 69.76C340.77 71.38 341.67 73.54 341.68 75.84C341.68 78.1 340.76 80.32 339.16 81.92L250.29 170.89L339.15 259.75C342.49 263.09 342.49 268.53 339.16 271.88L272.23 339.14C270.61 340.77 268.46 341.67 266.16 341.67ZM183.15 103.75L238.15 158.75L320.93 75.87L265.84 21.05L251.72 35.17L274.19 57.63C275.81 59.25 276.7 61.41 276.7 63.7C276.7 66 275.81 68.15 274.19 69.77C270.95 73.02 265.29 73.02 262.04 69.77L239.58 47.31L218.1 68.79L240.56 91.26C242.18 92.88 243.08 95.03 243.08 97.33C243.08 99.62 242.18 101.78 240.56 103.4C237.32 106.64 231.66 106.65 228.41 103.4L205.95 80.94L183.15 103.75ZM90.43 35.33L68.95 56.81L299.51 287.37L320.94 265.83L90.43 35.33ZM28.8 72.67L72.68 28.79L19.48 19.48L28.8 72.67ZM158.89 238.1L103.81 183.08L80.94 205.96L103.4 228.42C105.02 230.04 105.91 232.2 105.91 234.49C105.91 236.79 105.02 238.94 103.39 240.56C100.15 243.81 94.49 243.81 91.25 240.56L68.79 218.1L47.31 239.58L69.77 262.04C71.39 263.67 72.29 265.82 72.29 268.12C72.29 270.41 71.39 272.57 69.77 274.19C66.53 277.44 60.87 277.44 57.62 274.19L35.16 251.73L21.06 265.83L76.16 320.93L158.89 238.1ZM287.4 299.55L56.81 68.95L35.34 90.42L265.06 319.86L266.12 320.93L287.4 299.55Z" />
	</g>
</svg>