<svg version="1.2" baseProfile="tiny-ps" xmlns="http://www.w3.org/2000/svg" width="342" height="342"><style/><g id="Capa 1"><path id="&lt;Compound Path&gt;" fill-rule="evenodd" d="M266.16 341.67v1.5l-.02-1.5a8.51 8.51 0 01-6.06-2.51l-89.04-88.92-88.8 88.9c-3.25 3.26-8.91 3.25-12.15.01L2.84 271.9a8.515 8.515 0 01-2.51-6.07c0-2.29.89-4.45 2.51-6.07l88.82-88.81L17.12 96.5a8.517 8.517 0 01-2.39-4.59L.45 10.39A8.593 8.593 0 0110.39.45l81.52 14.27a8.58 8.58 0 014.6 2.39L171 91.6l88.75-88.75c3.24-3.24 8.88-3.25 12.13-.01l67.27 66.92a8.599 8.599 0 012.53 6.08c0 2.26-.92 4.48-2.52 6.08l-88.87 88.97 88.86 88.86c3.34 3.34 3.34 8.78.01 12.13l-66.93 67.26a8.493 8.493 0 01-6.07 2.53zm-83.01-237.92l55 55 82.78-82.88-55.09-54.82-14.12 14.12 22.47 22.46a8.532 8.532 0 012.51 6.07c0 2.3-.89 4.45-2.51 6.07-3.24 3.25-8.9 3.25-12.15 0l-22.46-22.46-21.48 21.48 22.46 22.47a8.525 8.525 0 012.52 6.07c0 2.29-.9 4.45-2.52 6.07-3.24 3.24-8.9 3.25-12.15 0l-22.46-22.46-22.8 22.81zM90.43 35.33L68.95 56.81l230.56 230.56 21.43-21.54L90.43 35.33zM28.8 72.67l43.88-43.88-53.2-9.31 9.32 53.19zM158.89 238.1l-55.08-55.02-22.87 22.88 22.46 22.46a8.532 8.532 0 012.51 6.07c0 2.3-.89 4.45-2.52 6.07-3.24 3.25-8.9 3.25-12.14 0L68.79 218.1l-21.48 21.48 22.46 22.46a8.565 8.565 0 012.52 6.08c0 2.29-.9 4.45-2.52 6.07-3.24 3.25-8.9 3.25-12.15 0l-22.46-22.46-14.1 14.1 55.1 55.1 82.73-82.83zm128.51 61.45L56.81 68.95 35.34 90.42l229.72 229.44 1.06 1.07 21.28-21.38z" fill="#000"/></g></svg>