<svg xmlns="http://www.w3.org/2000/svg" viewBox="0 0 383.98 511.7">
	<style type="text/css">
		.st0{fill:#000000;}
	</style>
	<path class="st0" d="M213.32,511.7L170.65,511.7C158.9,511.7 149.32,502.12 149.32,490.37L149.32,437.04C149.32,431.15 154.1,426.37 159.99,426.37C165.88,426.37 170.65,431.15 170.65,437.04L170.65,490.37L213.32,490.37L213.32,437.04C213.32,431.15 218.1,426.37 223.99,426.37C229.88,426.37 234.65,431.15 234.65,437.04L234.65,490.37C234.65,502.12 225.08,511.7 213.32,511.7"/>
	<path class="st0" d="M94.94,170.37L289.05,170.37L191.99,29.18ZM309.32,191.7L74.65,191.7C70.69,191.7 67.06,189.5 65.22,186.01C63.37,182.49 63.62,178.26 65.86,175L183.2,4.33C187.19,-1.44 196.81,-1.44 200.78,4.33L318.11,175C320.35,178.26 320.61,182.51 318.75,186.01C316.92,189.5 313.29,191.7 309.32,191.7"/>
	<path class="st0" d="M351.99,319.7L31.99,319.7C27.96,319.7 24.26,317.42 22.45,313.81C20.64,310.19 21.02,305.88 23.45,302.64L119.45,174.64C123,169.92 129.69,168.98 134.39,172.5C139.1,176.04 140.06,182.72 136.52,187.44L53.32,298.37L330.65,298.37L247.45,187.44C243.91,182.72 244.87,176.04 249.59,172.5C254.28,168.94 260.98,169.9 264.52,174.64L360.52,302.64C362.95,305.86 363.34,310.19 361.52,313.79C359.71,317.42 356.02,319.7 351.99,319.7"/>
	<path class="st0" d="M373.32,447.7L10.65,447.7C6.64,447.7 2.95,445.44 1.14,441.84C-0.66,438.23 -0.3,433.94 2.08,430.7L96.58,302.7C100.08,297.96 106.76,296.94 111.5,300.46C116.23,303.96 117.26,310.64 113.74,315.37L31.8,426.37L352.2,426.37L270.24,315.37C266.74,310.64 267.74,303.96 272.48,300.46C277.21,296.94 283.89,297.98 287.39,302.7L381.9,430.7C384.29,433.94 384.65,438.25 382.84,441.84C381.02,445.42 377.33,447.7 373.32,447.7"/>
</svg>