<svg xmlns="http://www.w3.org/2000/svg" viewBox="0 0 383.98 511.7"><style>.st0{fill:#000}</style><path class="st0" d="M213.32 511.7h-42.67c-11.75 0-21.33-9.58-21.33-21.33v-53.33c0-5.89 4.78-10.67 10.67-10.67s10.66 4.78 10.66 10.67v53.33h42.67v-53.33c0-5.89 4.78-10.67 10.67-10.67s10.66 4.78 10.66 10.67v53.33c0 11.75-9.57 21.33-21.33 21.33M94.94 170.37h194.11L191.99 29.18zm214.38 21.33H74.65a10.668 10.668 0 01-8.79-16.7L183.2 4.33c3.99-5.77 13.61-5.77 17.58 0L318.11 175c2.24 3.26 2.5 7.51.64 11.01a10.644 10.644 0 01-9.43 5.69"/><path class="st0" d="M351.99 319.7h-320c-4.03 0-7.73-2.28-9.54-5.89a10.646 10.646 0 011-11.17l96-128c3.55-4.72 10.24-5.66 14.94-2.14 4.71 3.54 5.67 10.22 2.13 14.94l-83.2 110.93h277.33l-83.2-110.93c-3.54-4.72-2.58-11.4 2.14-14.94 4.69-3.56 11.39-2.6 14.93 2.14l96 128a10.59 10.59 0 011 11.15c-1.81 3.63-5.5 5.91-9.53 5.91"/><path class="st0" d="M373.32 447.7H10.65c-4.01 0-7.7-2.26-9.51-5.86-1.8-3.61-1.44-7.9.94-11.14l94.5-128c3.5-4.74 10.18-5.76 14.92-2.24 4.73 3.5 5.76 10.18 2.24 14.91l-81.94 111h320.4l-81.96-111c-3.5-4.73-2.5-11.41 2.24-14.91 4.73-3.52 11.41-2.48 14.91 2.24l94.51 128c2.39 3.24 2.75 7.55.94 11.14-1.82 3.58-5.51 5.86-9.52 5.86"/></svg>