<svg xmlns="http://www.w3.org/2000/svg" viewBox="0 0 595.27 595.28"><path d="M490.64 245.32c-23.97 0-51.79 3.72-73.35 13.71-5.73-57.42-20.82-131.67-52.8-179.72 86.31 22.47 156.35 88.16 183.61 173.76-16.69-5.03-36.65-7.75-57.46-7.75m-191.84 0c-27.54 0-59.96 3.46-85.6 12.81 12.85-117.4 53.95-187.21 85.6-187.21 32.81 0 71.12 73.5 83.29 186.81-22.87-8.43-53.14-12.41-83.29-12.41m-120.77 13.73c-21.5-9.98-49.33-13.73-73.4-13.73-20.79 0-40.74 2.71-57.42 7.74 27.44-85.65 98.13-151.34 185.34-173.78-32.8 47.98-48.58 121.82-54.52 179.77m412.84 22.34C567.55 147.43 454.69 44.69 316.24 36.57V17.43C316.24 7.8 308.43 0 298.8 0c-9.63 0-17.44 7.8-17.44 17.43v19.14C143.38 44.62 27.95 146.83 4.4 281.38.88 287.63 0 293.42 0 297.64c0 9.63 7.8 17.43 17.43 17.43 6.6 0 18.1-4.62 19.58-16.18.15-1.11.31-2.21.47-3.31 7.74-6.07 30.67-15.39 67.15-15.39 42.58 0 66.73 12.7 69.78 18.1.32 8.43 6.7 16.29 17.42 16.8 9.59.45 17.72-6.93 18.22-16.51 6.37-5.64 30.77-15.59 71.31-17.89v244.83c0 38.46 31.29 69.75 69.76 69.75 38.46 0 69.76-31.29 69.76-69.75v-17.44c0-9.64-7.81-17.44-17.44-17.44-9.64 0-17.44 7.8-17.44 17.44v17.44c0 19.23-15.65 34.88-34.88 34.88-19.24 0-34.88-15.65-34.88-34.88V280.7c39.4 2.31 62.9 12.07 68.96 17.61 0 .06 0 .12.01.18.43 9.34 8.15 16.62 17.4 16.62 11 0 17.92-8.09 18.25-16.82 3.05-5.4 27.2-18.1 69.78-18.1 36.48 0 59.41 9.32 67.15 15.39.15 1.02.3 2.04.44 3.07 1.42 11.02 12.5 16.42 19.6 16.42 9.64 0 17.44-7.8 17.44-17.43 0-4.22-.88-10.01-4.4-16.25"/></svg>