<svg xmlns="http://www.w3.org/2000/svg" viewBox="0 0 30.56 40.5">
	<style type="text/css">
		.st0{fill:#000000;}
	</style>
	<path class="st0" d="M23.06,21.75C23.06,20.95 23.37,20.19 23.94,19.62C24.5,19.06 25.26,18.75 26.06,18.75L29.06,18.75L29.06,24.75L26.06,24.75C25.26,24.75 24.5,24.43 23.94,23.87C23.37,23.3 23.06,22.54 23.06,21.75M19.31,3L4.31,3C4.11,3 3.92,3.07 3.78,3.21C3.64,3.36 3.56,3.55 3.56,3.75L3.56,34.5L3.56,36L3.56,39.75C3.56,39.94 3.64,40.13 3.78,40.27C3.92,40.42 4.11,40.5 4.31,40.5L26.06,40.5C27.25,40.5 28.4,40.02 29.24,39.18C30.08,38.33 30.56,37.19 30.56,36L30.56,7.5C30.56,6.3 30.08,5.16 29.24,4.31C28.4,3.47 27.25,3 26.06,3L20.81,3ZM29.06,36C29.06,36.79 28.74,37.55 28.18,38.12C27.62,38.68 26.85,39 26.06,39L5.06,39L5.06,4.5L26.06,4.5C26.85,4.5 27.62,4.81 28.18,5.37C28.74,5.94 29.06,6.7 29.06,7.5L29.06,17.25L26.06,17.25C24.86,17.25 23.72,17.72 22.88,18.56C22.03,19.41 21.56,20.55 21.56,21.75C21.56,22.94 22.03,24.08 22.88,24.93C23.72,25.77 24.86,26.25 26.06,26.25L29.06,26.25Z"/>
	<path class="st0" d="M4.9,38.93L1.5,36.12L1.5,1.49L22.5,1.49C23.29,1.49 24.05,1.81 24.62,2.37C25.18,2.94 25.5,3.7 25.5,4.49L27,4.49C27,3.3 26.52,2.16 25.68,1.31C24.83,0.47 23.69,0 22.5,0L17.25,0L15.75,0L0.75,0C0.55,0 0.36,0.07 0.21,0.21C0.07,0.36 0,0.55 0,0.74L0,31.5L0,33L0,36.74C0,36.94 0.07,37.13 0.21,37.28C0.36,37.42 3.78,40.28 3.78,40.28Z"/>
</svg>