<svg xmlns="http://www.w3.org/2000/svg" viewBox="0 0 30.56 40.5"><style>.st0{fill:#000}</style><path class="st0" d="M23.06 21.75a2.988 2.988 0 013-3h3v6h-3c-.8 0-1.56-.32-2.12-.88a2.99 2.99 0 01-.88-2.12M19.31 3h-15c-.2 0-.39.07-.53.21a.79.79 0 00-.22.54v36c0 .19.08.38.22.52.14.15.33.23.53.23h21.75c1.19 0 2.34-.48 3.18-1.32A4.53 4.53 0 0030.56 36V7.5c0-1.2-.48-2.34-1.32-3.19A4.503 4.503 0 0026.06 3h-5.25zm9.75 33c0 .79-.32 1.55-.88 2.12-.56.56-1.33.88-2.12.88h-21V4.5h21c.79 0 1.56.31 2.12.87.56.57.88 1.33.88 2.13v9.75h-3a4.486 4.486 0 00-4.5 4.5c0 1.19.47 2.33 1.32 3.18.84.84 1.98 1.32 3.18 1.32h3z"/><path class="st0" d="M4.9 38.93l-3.4-2.81V1.49h21c.79 0 1.55.32 2.12.88.56.57.88 1.33.88 2.12H27c0-1.19-.48-2.33-1.32-3.18A4.52 4.52 0 0022.5 0H.75C.55 0 .36.07.21.21.07.36 0 .55 0 .74v36c0 .2.07.39.21.54.15.14 3.57 3 3.57 3z"/></svg>