<svg xmlns="http://www.w3.org/2000/svg" viewBox="0 0 232.86 312.82"><style>.st0{fill:#000}</style><path class="st0" d="M148.49 179.28l-25.57-25.56V99.94h-12.99v59.15l29.37 29.38z"/><path class="st0" d="M171.32 299.83H61.54l-12-47.96 7.25 4.34c18.13 10.88 38.75 16.63 59.64 16.63s41.51-5.75 59.64-16.63l7.24-4.34zM12.98 156.4c0-57.03 46.41-103.44 103.45-103.44 57.04 0 103.44 46.41 103.44 103.44 0 57.04-46.4 103.45-103.44 103.45S12.98 213.44 12.98 156.4M61.54 12.98h109.78l11.99 47.96-7.24-4.34c-18.13-10.88-38.75-16.63-59.64-16.63S74.92 45.72 56.79 56.6l-7.25 4.34zm138.93 223.76l.63-.67c20.48-21.75 31.76-50.05 31.76-79.67 0-29.62-11.28-57.91-31.76-79.66l-.63-.67-.12-.51-17.66-70.64a6.474 6.474 0 00-6.3-4.92H56.46c-2.98 0-5.57 2.02-6.29 4.92L32.38 76.07l-.62.66C11.27 98.49 0 126.78 0 156.4c0 29.63 11.27 57.92 31.76 79.67l.62.67 17.79 71.15c.72 2.9 3.31 4.92 6.29 4.92h119.93c2.99 0 5.58-2.02 6.3-4.92z"/></svg>