<svg version="1.2" baseProfile="tiny-ps" xmlns="http://www.w3.org/2000/svg" width="1199" height="1200"><style/><g id="Capa 1"><path id="&lt;Compound Path&gt;" fill-rule="evenodd" d="M1193.79 614.41l-90.32 120.79 17.87 149.97c1.26 10.45-4.62 20.63-14.3 24.77l-138.83 59.2-59.22 138.84a23.794 23.794 0 01-21.92 14.48c-.95 0-1.91-.06-2.85-.17l-149.85-17.98-120.79 90.31c-4.15 3.12-9.1 4.77-14.3 4.77-5.2 0-10.15-1.65-14.31-4.77l-120.78-90.41-149.87 17.98c-.94.12-1.91.17-2.85.17-9.56 0-18.17-5.68-21.92-14.48l-59.22-138.84-138.81-59.2c-9.68-4.13-15.56-14.32-14.3-24.77L95.2 735.2 4.77 614.41c-6.32-8.42-6.32-20.19 0-28.61l90.41-120.78-17.96-149.87c-1.26-10.45 4.62-20.64 14.3-24.77l138.83-59.2 59.22-138.85a23.81 23.81 0 0121.92-14.48c.95 0 1.91.06 2.85.18l149.85 17.98L584.98 5.59c4.15-3.11 9.1-4.76 14.3-4.76 5.2 0 10.15 1.65 14.31 4.77l120.78 90.41 149.87-17.98c.94-.12 1.9-.18 2.85-.18 9.56 0 18.17 5.69 21.92 14.48l59.31 138.85 138.81 59.2c9.69 4.13 15.57 14.32 14.31 24.77l-17.96 149.87 90.31 120.79c6.32 8.42 6.32 20.18 0 28.6zM126.67 872.98l131.2 55.97c2.53 1.13 4.78 2.63 6.74 4.48h33.03V425.52H138.48l5.23 43.29c.74 6.12-.88 12.21-4.57 17.14L53.62 600.11l85.45 114.16c3.7 4.93 5.32 11.02 4.58 17.14l-16.98 141.57zm932.81-158.63l85.46-114.24-85.46-114.1c-3.69-4.94-5.32-11.02-4.58-17.14l16.99-141.58-131.2-55.97a23.728 23.728 0 01-12.57-12.56l-55.97-131.2-141.57 17c-6 .73-12.28-.95-17.13-4.6L599.28 54.45 485.1 139.91c-4.83 3.64-11.09 5.33-17.13 4.59l-141.57-17-55.95 131.2a23.749 23.749 0 01-12.59 12.57l-131.19 55.96 6.08 50.61h212.57v39.68h15.85c85.22-.09 154.64-69.51 154.74-154.74v-79.37c0-13.14 10.69-23.84 23.84-23.84h39.69c56.84.07 103.14 46.37 103.21 103.21v154.74H873.7c.47-.01 1-.01 1.54-.01 44.27 0 80.79 33.25 84.95 77.33 1.54 20.62-4.46 40.58-16.93 56.76 4.78 3.16 9.23 6.81 13.27 10.89 31.91 32.3 31.59 84.53-.7 116.44a84.412 84.412 0 01-12.12 10.03 83.37 83.37 0 0112.02 22.48c7.37 21.02 6.12 43.64-3.53 63.71-8.93 18.57-24.05 32.9-42.9 40.78 7.48 12.76 11.42 27.21 11.43 42.1.01 22.26-8.66 43.21-24.4 58.96-15.73 15.75-36.67 24.43-58.94 24.44H345.32v39.69h-57.98l39.04 91.54 141.58-17.01c.93-.11 1.87-.16 2.79-.16h.06c5.11 0 10.19 1.69 14.29 4.77l114.18 85.51 114.18-85.38c4.84-3.63 11.09-5.31 17.11-4.6l141.58 17.01 55.95-131.2c2.43-5.68 6.9-10.14 12.59-12.57l131.2-55.97-16.99-141.57c-.73-6.12.89-12.21 4.58-17.14zM361.17 465.21h-15.85v428.54h492.07c19.68 0 35.69-16.01 35.69-35.69 0-19.67-16.01-35.68-35.69-35.68h-19.84c-13.15 0-23.84-10.7-23.84-23.84 0-13.15 10.69-23.85 23.84-23.85h59.53c19.67 0 35.68-16 35.68-35.68s-16.01-35.69-35.68-35.69h-39.69c-13.15 0-23.84-10.69-23.84-23.84s10.69-23.84 23.84-23.84h59.53c9.46 0 18.61-3.82 25.2-10.47 7.44-7.31 11.2-17.41 10.36-27.75-2.43-19.17-19.2-33.71-38.83-33.16l-56.26.01c-13.15 0-23.84-10.7-23.84-23.85 0-13.14 10.69-23.84 23.84-23.84h39.69c9.45 0 18.6-3.81 25.2-10.46 7.43-7.31 11.2-17.42 10.36-27.76-2.43-19.17-19.21-33.74-38.83-33.15h-215c-13.15 0-23.85-10.7-23.85-23.84V262.78c0-30.62-24.91-55.52-55.52-55.52h-15.85v55.52c-.12 111.5-90.93 202.31-202.42 202.43z" fill="#fa8242"/></g></svg>