<svg version="1.2" baseProfile="tiny-ps" xmlns="http://www.w3.org/2000/svg" width="1178" height="1192"><style>.shp0{fill:#000}</style><g id="Capa 1"><path id="&lt;Compound Path&gt;" fill-rule="evenodd" class="shp0" d="M1174.27 853.46c5.02 10.35 5.02 22.22 0 32.57l-65.88 135.76c-.46.94-.46 2.03 0 2.97l54.86 113.04c5.65 11.64 4.92 25.13-1.94 36.09-6.86 10.96-18.68 17.5-31.61 17.5H125.18c-68.74 0-124.66-55.92-124.66-124.66 0-.94.04-1.86.06-2.79-.01-.94-.06-1.86-.06-2.8V131.08C.52 59.26 58.95.83 130.77.83h328.87c71.82 0 130.25 58.43 130.25 130.25v108.45h406.39c.02 0 .04.01.06.01h134.08c12.93 0 24.75 6.54 31.61 17.5 6.86 10.96 7.59 24.44 1.94 36.08l-55.57 114.53a3.39 3.39 0 000 2.98l65.88 135.78c5.02 10.34 5.02 22.21 0 32.56l-65.88 135.76a3.39 3.39 0 000 2.98l65.87 135.75zM34.4 981.42c22.76-24.2 55.02-39.35 90.78-39.35h314.64c52.84 0 98.07 33.06 116.19 79.58V131.08c0-53.14-43.23-96.36-96.37-96.36H130.77c-53.13 0-96.36 43.22-96.36 96.36v724.03c0 .02-.01.05-.01.08v126.23zm496.19 85.31c0-50.05-40.72-90.77-90.77-90.77H125.18c-49.12 0-89.22 39.21-90.7 87.97 1.48 51.85 44.09 93.57 96.29 93.57h309.05c50.05 0 90.77-40.72 90.77-90.77zm613.2-198.47l-65.88-135.76c-5.02-10.35-5.02-22.22 0-32.57l65.88-135.75c.46-.95.46-2.03 0-2.98l-65.88-135.78c-5.02-10.34-5.02-22.21 0-32.56l55.58-114.54c.68-1.4.28-2.57-.18-3.29-.46-.74-1.33-1.61-2.89-1.61H589.89v787.71c0 2.32-.06 4.62-.19 6.91-.04.76-.12 1.52-.17 2.28-.11 1.52-.21 3.03-.37 4.53-.09.91-.23 1.81-.34 2.71-.17 1.34-.33 2.68-.54 4-.15.96-.34 1.9-.51 2.85-.23 1.25-.46 2.51-.72 3.76-.2.97-.44 1.92-.67 2.88-.28 1.21-.56 2.41-.88 3.6-.26.97-.54 1.92-.82 2.88-.34 1.17-.68 2.33-1.05 3.48-.31.95-.64 1.9-.97 2.85-.39 1.13-.79 2.25-1.22 3.37-.35.94-.73 1.87-1.11 2.81-.44 1.09-.9 2.18-1.37 3.26-.41.92-.82 1.84-1.25 2.75a115.9 115.9 0 01-1.54 3.17c-.45.9-.9 1.79-1.37 2.67-.55 1.04-1.12 2.07-1.69 3.1-.49.86-.98 1.72-1.49 2.57-.61 1.02-1.23 2.02-1.87 3.03-.52.82-1.04 1.65-1.58 2.46-.67 1-1.36 1.98-2.05 2.96-.55.79-1.09 1.58-1.67 2.35-.73.99-1.48 1.95-2.24 2.92-.57.73-1.13 1.47-1.72 2.18-.81 1-1.66 1.97-2.51 2.94-.56.65-1.11 1.32-1.7 1.96-.95 1.06-1.95 2.09-2.94 3.12-.5.52-.98 1.05-1.49 1.56-1.49 1.49-3.01 2.95-4.56 4.36l-.1.1h582.51c1.57 0 2.44-.87 2.9-1.6.45-.73.85-1.89.17-3.3l-54.86-113.04c-5.02-10.35-5.02-22.22 0-32.57l65.88-135.75c.46-.95.46-2.03 0-2.98z"/><g id="&lt;Group&gt;"><g id="&lt;Group&gt;"><path id="&lt;Path&gt;" class="shp0" d="M488.16 1024.46c-12.22-13.95-29.84-21.96-48.34-21.96H125.18c-17.6 0-34.03 6.99-46.26 19.7-12.23 12.7-18.59 29.38-17.93 46.99 1.31 34.64 30.02 61.77 65.35 61.77h313.48c9.35 0 16.94-7.59 16.94-16.95s-7.58-16.94-16.94-16.94H126.34c-16.75 0-30.88-13.08-31.48-29.16-.32-8.32 2.69-16.21 8.47-22.21 5.79-6.01 13.55-9.32 21.85-9.32h314.64c8.73 0 17.05 3.79 22.84 10.4.26.3.66.75.2 1.76-.56 1.24-1.5 1.24-1.86 1.24H315.35c-9.36 0-16.95 7.59-16.95 16.95 0 9.35 7.59 16.94 16.95 16.94H461c14.27 0 26.81-8.09 32.72-21.12 5.85-12.89 3.71-27.49-5.56-38.09z"/></g></g></g></svg>