<svg version="1.2" baseProfile="tiny-ps" xmlns="http://www.w3.org/2000/svg" width="1199" height="1088"><style/><g id="Capa 1"><g id="&lt;Group&gt;"><g id="&lt;Group&gt;"><path id="&lt;Compound Path&gt;" fill-rule="evenodd" d="M1187.29 326.5L992.92 522.97v537.32c0 12.9-10.46 23.36-23.36 23.36H229c-12.9 0-23.36-10.46-23.36-23.36V522.97L11.27 326.5c-.29-.28-.57-.56-.85-.85-8.88-9.35-8.5-24.14.85-33.03L255.4 74.9c2.24-2.05 4.86-3.63 7.71-4.68L440.65 5.98c2.1-.74 4.29-1.17 6.5-1.29 12.88-.69 23.89 9.2 24.58 22.08.23 5.14 7.71 123.58 126.85 125.45 118.44-1.87 126.15-120.31 126.15-125.45.12-2.32.58-4.62 1.37-6.8 4.41-12.13 17.81-18.39 29.93-13.99l177.79 63.54a23.47 23.47 0 017.71 4.68l245.76 218.42c.29.28.57.56.84.85 8.89 9.36 8.51 24.14-.84 33.03zm-51.63-15.42l-221.7-199.04-146.25-52.8c-13.37 68.94-67.28 122.84-136.21 136.22-93.35 18.12-183.71-42.87-201.82-136.22l-146.25 52.8-222.4 199.04L204.7 456.62V347.99c0-12.9 10.46-23.36 23.37-23.36 12.9 0 23.36 10.46 23.36 23.36v687.76H945.5V347.99c0-12.9 10.46-23.36 23.36-23.36 12.9 0 23.36 10.46 23.36 23.36v108.4l143.44-145.31z" fill="#000" stroke="#000" stroke-width="8"/></g></g></g></svg>