<svg version="1.2" baseProfile="tiny-ps" xmlns="http://www.w3.org/2000/svg" width="1522" height="1426"><style>.shp0{fill:#fa8242}</style><g id="Capa 1"><g id="&lt;Group&gt;"><path id="&lt;Compound Path&gt;" fill-rule="evenodd" class="shp0" d="M1521.5 606.92h-240.72v818.44H241.21V606.92H.5V166.9L268.64.64h289.99v38.35c0 111.59 90.79 202.37 202.37 202.37 111.59 0 202.37-90.78 202.37-202.37V.64h289.98L1521.5 166.9v440.02zm-76.7-397.34L1231.5 77.34h-193.99l-1.02 6.31c-10.44 64.65-43.75 123.95-93.78 166.98-50.57 43.48-115.11 67.43-181.71 67.43-66.61 0-131.14-23.95-181.71-67.43-50.04-43.03-83.35-102.33-93.79-166.98l-1.02-6.31H290.49L77.2 209.58v320.64h240.72v818.43h886.16V530.22h240.72V209.58z"/><path id="&lt;Path&gt;" class="shp0" d="M631.78 1050.91V549.55h-119.8v76.7h43.1v424.66h76.7z"/><path id="&lt;Compound Path&gt;" fill-rule="evenodd" class="shp0" d="M1055.87 892.21c0 87.51-71.19 158.7-158.7 158.7-87.5 0-158.69-71.19-158.69-158.7V699.75c0-87.5 71.19-158.69 158.69-158.69 87.51 0 158.7 71.19 158.7 158.69v192.46zm-76.7-192.46c0-45.21-36.78-81.99-82-81.99-45.21 0-81.99 36.78-81.99 81.99v192.46c0 45.22 36.78 82 81.99 82 45.22 0 82-36.78 82-82V699.75z"/></g></g></svg>